<?xml version="1.0" encoding="UTF-8"?>
<svg width="600px" height="366px" viewBox="0 0 600 366" version="1.1" xmlns="http://www.w3.org/2000/svg" xmlns:xlink="http://www.w3.org/1999/xlink">
    <title>Art 1</title>
    <g id="Graphics" stroke="none" stroke-width="1" fill="none" fill-rule="evenodd">
        <g id="Artwork-2" transform="translate(0.000000, -34.000000)">
            <g id="Art-1" transform="translate(0.000000, 34.000000)">
                <path d="M500.420032,366 L22.0532233,366 C10.1226485,354.426352 -0.256990392,338.563441 3.95573939,322.148389 C9.51002878,300.508341 37.1031181,292.63888 41.6279737,270.704357 C46.0752826,249.145677 25.2714154,230.396135 24.6936918,208.289189 C24.3214671,194.074951 32.7934548,180.897188 43.7314306,173.467503 C54.6713451,166.035881 67.7360418,163.494095 80.5312634,162.430497 C85.620272,162.008158 90.72479,161.796988 95.8273693,161.796988 C108.145678,161.796988 120.462048,163.027197 132.582613,165.472116 C149.043859,168.794648 165.520615,174.376114 182.094304,174.376114 C185.01588,174.376114 187.937456,174.203691 190.866786,173.814286 C198.590447,172.785561 206.308292,170.15272 212.47714,164.898664 C220.635063,157.953313 225.330521,147.154599 228.653402,136.365573 C237.800046,106.66233 238.971003,73.4835061 254.108138,46.9594327 C271.527087,16.4347595 305.079648,1 337.920717,1 C341.986108,1 346.037928,1.23635505 350.050975,1.70906514 C386.470828,6.00995207 419.707386,26.8634417 448.746723,51.5974162 C477.113341,75.7598764 503.492823,105.583234 514.426922,143.336109 C525.36102,181.087047 516.856075,227.90472 487.097492,249.916737 C479.691772,255.393587 470.149639,261.168787 470.120559,271.035642 C470.108927,274.412419 471.320596,277.628398 472.549712,280.718449 C481.281482,302.658785 492.054671,323.810624 497.498456,347.017977 C498.944704,353.180645 499.945057,359.573855 500.420032,366 L500.420032,366 Z M67.5557455,342.771336 L123.459232,342.771336 L123.459232,234.700896 L67.5557455,234.700896 L67.5557455,342.771336 Z" id="Fill-2" fill="#F3DFAA"></path>
                <path d="M510.752666,175.282302 C497.242444,185.903082 479.512571,194.036741 463.016164,200 C458.271468,181.92369 454.102004,163.736625 451,145.366913 C463.892523,142.68743 477.974116,137.825887 491.244979,128.724583 C511.40897,114.895807 538.246034,63.8146382 544.961574,50.6056995 C545.301308,49.9120262 545.637181,49.220296 545.974985,48.5305088 L545.924797,48.5110782 C545.924797,48.5110782 551.128906,34.6414984 551.825747,32.5488201 C553.574605,27.2947792 555.713386,14.2976344 555.713386,14.2976344 C555.713386,14.2976344 559.523813,13.0327007 560.170466,21.8231153 C560.813258,30.617416 562.318898,28.0020539 562.318898,28.0020539 C562.318898,28.0020539 578.160931,4.01883396 582.695223,5.0311695 C584.388103,5.41006668 582.660477,10.895332 579.963838,14.0411501 C577.267199,17.1889113 574.477904,22.1145747 574.477904,22.1145747 C574.477904,22.1145747 589.924224,4.92430106 594.072455,6.95480134 C594.072455,6.95480134 596.130163,8.27802687 591.186645,13.384395 C584.334054,20.4610285 579.838368,26.9119959 579.838368,26.9119959 C579.838368,26.9119959 595.497022,13.2036902 597.529635,14.2976344 C600.909604,16.1143978 585.046337,30.088903 582.67592,34.9290716 C582.67592,34.9290716 594.398677,23.7992098 595.062703,26.9197681 C595.695843,29.900426 582.305301,41.6404093 576.230623,57.3578416 C575.782792,58.8967471 575.213351,60.6649339 574.530023,62.6351992 L574.545465,62.627427 C574.545465,62.627427 558.516192,137.740393 510.752666,175.282302" id="Fill-3" fill="#F1B18F"></path>
                <path d="M561,29 C562.867716,30.4491648 564.485177,32.1598053 565.920466,34.0343286 C566.638111,34.9715902 567.295032,35.9714586 567.874668,37.0394581 C568.417502,38.1258714 568.989777,39.2435881 569.109385,40.6945942 L567.26375,39.9930291 C568.209569,39.1938708 569.122265,38.6782849 570.196892,38.3247402 C571.243917,37.9693542 572.362707,37.7962646 573.457575,37.8975404 C574.546923,37.9859266 575.614189,38.2566092 576.541607,38.7574642 C577.485586,39.2233329 578.298916,39.8788636 579,40.6025253 C578.044981,40.2471393 577.139644,39.8899119 576.201186,39.7186637 C575.282969,39.4829672 574.350031,39.501381 573.468616,39.5492569 C572.579841,39.6302775 571.724187,39.8714981 570.923737,40.2195186 C570.149049,40.5712219 569.322838,41.0720768 568.776324,41.5729317 L567.225107,43 L566.930689,40.8732079 C566.811082,40.0132842 566.448579,38.9655399 565.962789,37.9951335 C565.49908,37.0063133 564.980168,36.0101276 564.415253,35.0268315 C563.301983,33.0491911 562.115109,31.0770748 561,29" id="Fill-4" fill="#000105"></path>
                <path d="M392,90.5009672 C392,102.374376 383.494902,112 373.000954,112 C362.507007,112 354,102.374376 354,90.5009672 C354,78.6275586 362.507007,69 373.000954,69 C383.494902,69 392,78.6275586 392,90.5009672" id="Fill-5" fill="#000105"></path>
                <path d="M358.235559,98 C358.235559,98 385.626582,75.1189187 368.197673,24.9152832 C356.857575,-7.74833177 290.074228,85.2032621 358.235559,98" id="Fill-6" fill="#000105"></path>
                <path d="M287.681554,42.5613106 C290.814907,22.945842 310.538911,-9.85171977 345.587643,10.3340904 C356.607452,16.6837638 361.311412,28.265786 363.550364,40.2916235 C365.111143,48.6851832 362.107528,131.114143 362.107528,131.114143 C359.145192,164.145292 309.043,171.984083 307.322998,131.764294 L309.385035,104.228279 C283.995835,96.1520087 284.160956,64.5827253 287.681554,42.5613106" id="Fill-7" fill="#F1B18F"></path>
                <path d="M309.312017,103.878087 C309.312017,103.878087 323.407987,108.619218 350,92 C350,92 335.053828,114.00351 308,123 L309.312017,103.878087" id="Fill-8" fill="#96615D"></path>
                <path d="M357,70.500976 C357,78.5078414 350.508278,85 342.5,85 C334.491722,85 328,78.5078414 328,70.500976 C328,62.4902066 334.491722,56 342.5,56 C350.508278,56 357,62.4902066 357,70.500976" id="Fill-9" fill="#EEA182"></path>
                <path d="M303,58.5 C303,50.4936734 296.326425,44 288.093811,44 C287.826948,44 287.562092,44.0078072 287.299242,44.0214699 C285.999039,53.0583524 285.381041,63.3853816 286.855808,72.9453493 C287.265132,72.9785301 287.676461,73 288.093811,73 C296.326425,73 303,66.5082784 303,58.5" id="Fill-10" fill="#EEA182"></path>
                <path d="M379.700896,51.024294 C381.069577,56.6581235 377.611452,62.3341253 371.975706,63.7008896 C366.341876,65.0695709 360.665875,61.6114462 359.29911,55.9776167 C357.930429,50.3437872 361.388554,44.6658686 367.022383,43.2991042 C372.65813,41.9304229 378.334131,45.3885476 379.700896,51.024294" id="Fill-11" fill="#F1B18F"></path>
                <path d="M366,57 C366.09218,55.9619563 366.519401,55.0243105 367.123892,54.1996126 C367.72661,53.3677433 368.575734,52.6631644 369.641127,52.2490226 C370.71361,51.8474306 372.021863,51.9352788 372.98444,52.4856751 C373.987788,52.9822867 374.62596,53.8751119 375,54.8127576 C374.007288,54.5079779 373.209573,54.1440351 372.43313,54.0687366 C371.672641,53.9755099 371.016742,54.004195 370.350207,54.2731183 C368.987,54.7625586 367.657475,55.8669367 366,57" id="Fill-12" fill="#000105"></path>
                <path d="M309,69.2378417 C310.344493,69.7514418 311.436407,70.3581104 312.549694,70.7527897 C313.64938,71.1647039 314.665521,71.4335684 315.631146,71.4232275 C316.596772,71.424951 317.570169,71.1750449 318.636826,70.7424488 C319.695711,70.2960648 320.762367,69.6704378 322,69 C321.762965,70.2719359 321.057689,71.4352919 319.969661,72.3694237 C318.914661,73.3156199 317.325362,74.01191 315.623375,73.9998456 C313.919444,74.0015691 312.380661,73.3207904 311.310118,72.4280224 C310.179345,71.5662772 309.437154,70.4477319 309,69.2378417" id="Fill-13" fill="#000105"></path>
                <path d="M311.824405,38 C312.143192,39.2133429 311.991768,40.5265179 311.659035,41.7398608 C311.330286,42.9704824 310.776395,44.1108711 310.140815,45.1898248 C308.837775,47.3438925 307.203995,49.2234221 305.247444,50.8552916 L305.058165,49.3578114 C307.178094,50.7861771 309.264152,52.2721382 311.196795,54 C308.700299,53.1783057 306.355227,52.1166307 304.046018,50.9954404 L303,50.4886009 L303.856738,49.4979602 C304.609871,48.6282697 305.361012,47.687545 306.108167,46.7909767 C306.835399,45.8675306 307.588531,44.9709623 308.27193,44.0321574 C309.664628,42.1507079 310.989584,40.3268539 311.824405,38" id="Fill-14" fill="#000105"></path>
                <path d="M324.258461,39.8609023 C324.199279,41.7278435 324.247006,43.6633503 324.5181,45.4166687 C324.779649,47.1758641 325.480294,48.7646252 326.429123,48.99383 C327.263406,49.3758379 328.720059,48.5021172 329.926619,47.2385526 C331.135087,45.980865 332.282465,44.4508743 333.313386,42.9287197 L333.342022,42.8856213 C333.630299,42.4624741 334.197305,42.3566873 334.609674,42.6524986 C334.96286,42.9032525 335.088861,43.367539 334.936132,43.761301 C334.195396,45.6909308 333.254203,47.4697163 331.894915,49.1035348 C331.211452,49.914567 330.424897,50.6825009 329.38443,51.2976315 C328.378328,51.8892541 326.862492,52.279098 325.495567,51.752123 C324.149642,51.2702053 323.181721,50.0850013 322.734989,48.9840349 C322.267256,47.8615193 322.08589,46.7625119 322.026708,45.6987668 C321.906433,43.5634405 322.200437,41.5632863 322.746443,39.5768451 C322.862899,39.1556569 323.288631,38.91078 323.699091,39.0302799 C324.046549,39.1301897 324.269916,39.4612632 324.258461,39.8158449 L324.258461,39.8609023" id="Fill-15" fill="#000105"></path>
                <path d="M295.223257,36.8291471 C295.169323,38.5383455 295.162364,40.2911265 295.28937,41.9226341 C295.365922,42.7336506 295.47379,43.5332977 295.687788,44.1775632 C295.903525,44.854042 296.195814,45.1667002 296.350657,45.1572257 C296.451567,45.2197574 296.88652,45.1079583 297.385847,44.6380235 C297.886914,44.2135663 298.363623,43.5920396 298.831634,42.9572486 C299.743297,41.6611381 300.621903,40.1944867 301.443096,38.7486792 L301.462234,38.714571 C301.704068,38.2901138 302.215574,38.1593658 302.607032,38.4227567 C302.935858,38.6444598 303.073303,39.0783915 302.961955,39.4649508 C302.44523,41.2404706 301.777141,42.9022966 300.818503,44.4996959 C300.343533,45.2993431 299.790272,46.066777 299.05259,46.7887333 C298.671571,47.1373946 298.238357,47.4784763 297.672917,47.7304978 C297.119656,47.9787295 296.361096,48.1113724 295.654731,47.8801948 C294.960545,47.6717559 294.362049,47.1525538 294.007126,46.6106128 C293.643505,46.0648821 293.434727,45.5134666 293.304241,44.9885797 C293.045009,43.938806 292.984115,42.9610384 293.003253,42.0079045 C293.038049,40.1016367 293.351216,38.3185373 293.847063,36.5449123 C293.960151,36.1394041 294.35335,35.9101214 294.72567,36.0332898 C295.037097,36.1375092 295.235436,36.4539572 295.224997,36.793144 L295.223257,36.8291471" id="Fill-16" fill="#000105"></path>
                <path d="M335.982843,33.1736504 C335.767858,34.5013259 333.588416,35.2772158 331.113123,34.9081031 C328.635857,34.5333408 326.80552,33.1548181 327.016561,31.8271425 C327.233519,30.4975837 329.412961,29.7216938 331.890227,30.0926897 C334.367492,30.4655688 336.197829,31.8422083 335.982843,33.1736504" id="Fill-17" fill="#000105"></path>
                <path d="M302.907224,27.1893916 C303.406395,28.3666176 301.841645,29.9066037 299.40691,30.6286356 C296.972175,31.3524116 294.594488,30.9861635 294.093279,29.8089375 C293.59207,28.6351996 295.160895,27.0952136 297.593593,26.3714376 C300.02629,25.6476616 302.406015,26.0139097 302.907224,27.1893916" id="Fill-18" fill="#000105"></path>
                <path d="M297,21.4318077 C297,21.4318077 318.348341,25.900682 347.238547,9.89671605 C347.238547,9.89671605 336.798833,64.3155203 364.821842,44.7584953 C364.821842,44.7584953 368.712455,41.8723474 372.895403,43.0731673 L374,43.418973 C374,43.418973 373.364317,11.6485452 349.8833,3.79761471 C326.400321,-4.05331574 309.80979,-0.456555981 297,21.4318077" id="Fill-19" fill="#000105"></path>
                <polyline id="Fill-20" fill="#F1B18F" points="155 182.181876 165.557186 150 190 158.180607 188.889227 186 155 182.181876"></polyline>
                <path d="M538.049664,58 C538.049664,58 508.488338,117.801139 483.135651,129.637226 C457.845026,141.444217 392.343473,123.593102 374.448029,124.368984 L374.44609,124.339889 L362.931486,124.087727 C358.678239,130.905794 343.300221,135.41755 332.169631,134.387566 C316.281533,132.915329 310.870425,126.159333 309.33049,120.693241 L289.654617,119.224884 L289.652678,119.230703 C280.042628,118.39275 263.886884,120.249048 248.972398,135.863683 C243.287826,141.816641 216.610484,172.650209 185.522799,212.980578 L193.296175,185.421234 L150.942137,180.255797 C117.294358,244.374722 132.162297,294.201892 152.177576,294.201892 C186.694236,294.201892 240.743248,242.780283 270.409305,211.523859 L277.870428,292.089552 L392.302745,296 L382.271831,199.553933 C398.642856,201.660454 481.822633,211.271697 510.825393,193.329416 C543.055424,173.387297 572,87.1906373 572,87.1906373 L538.049664,58" id="Fill-21" fill="#DE4C2E"></path>
                <path d="M176.121304,243.997716 C175.393013,243.814448 177.991292,231.155481 182.646944,215.934625 C187.28521,200.702195 192.197793,188.751219 192.906765,189.003935 C193.642784,189.264368 189.920193,201.578021 185.301245,216.742932 C180.666843,231.896268 176.878572,244.192558 176.121304,243.997716" id="Fill-22" fill="#000105"></path>
                <path d="M185.316871,123 C187.265511,120.877111 192.981018,114.402594 193,111.509349 C193.030159,106.391286 184.644014,115.58655 181,119.822527 C182.532829,120.837907 184.005177,121.87877 185.316871,123" id="Fill-23" fill="#E38D6C"></path>
                <path d="M148.37824,83.3973667 C149.602091,80.7500241 153.146771,80.1692295 155.163101,82.289805 C164.46203,92.0764825 185.316303,116.69947 195.796142,133.372712 C210.65608,157.017417 220.499594,172.515563 220.499594,172.515563 L264,209.653612 C264,209.653612 245.605141,219.61009 229.283217,205.175126 C216.933443,194.251944 211.183098,174.915923 211.183098,174.915923 C211.183098,174.915923 173.341297,107.715485 149.481073,88.2193121 C148.04251,87.0442162 147.603329,85.0741456 148.37824,83.3973667" id="Fill-24" fill="#493A2A"></path>
                <path d="M165.994011,166.427867 C163.324927,155.849605 163.131487,138.702538 163.002527,132.3032 C162.889198,126.645284 166.613411,124.195702 169.012851,122.832256 C178.933011,117.197449 199.085963,113.118666 199.83823,115.891777 C200.457629,118.173816 183.053873,123.725814 183.053873,123.725814 C183.053873,123.725814 204.707452,120.215133 200.443952,125.073854 C198.173472,127.664017 186.002371,128.673121 186.002371,128.673121 C186.002371,128.673121 199.216877,130.051973 198.206689,131.962338 C196.416879,135.34977 185.543195,134.879882 185.543195,134.879882 C185.543195,134.879882 190.773896,139.214793 192.294062,150.176283 C193.398039,158.139348 176.812985,174 176.812985,174 L165.994011,166.427867" id="Fill-25" fill="#F1B18F"></path>
                <path d="M175.004663,137.577318 C174.883942,136.990264 177.121915,135.797368 180.019207,135.510886 C181.451138,135.344162 182.743776,135.412261 183.533102,135.327725 C184.315,135.304243 184.643731,134.907394 184.901887,135.020108 C185.004035,135.081162 185.052324,135.332421 184.916745,135.731618 C184.781167,136.142557 184.383718,136.569932 183.884121,136.854067 C182.871925,137.424684 181.571858,137.579667 180.175215,137.753435 C177.393072,138.025828 175.127241,138.197248 175.004663,137.577318" id="Fill-26" fill="#000105"></path>
                <path d="M472.375913,160 C471.548758,160.023802 471.051295,153.763943 467.904595,146.967014 C464.855436,140.118367 460.497267,135.68455 461.047403,135.055978 C461.285405,134.777497 462.730975,135.537353 464.623287,137.351458 C466.513648,139.15164 468.766865,142.081659 470.446535,145.765567 C472.116452,149.453453 472.848016,153.101556 472.972869,155.735192 C473.103575,158.378774 472.738769,159.995954 472.375913,160" id="Fill-27" fill="#000105"></path>
                <path d="M486.936349,146.942285 C486.350486,147.486118 482.467213,144.086683 477.059539,140.954361 C471.6827,137.768232 466.814636,136.04065 467.005428,135.266217 C467.134549,134.551356 472.665563,135.15476 478.462528,138.573412 C484.278764,141.957473 487.501014,146.483006 486.936349,146.942285" id="Fill-28" fill="#000105"></path>
                <path d="M395.289221,299.273631 C395.493287,299.091688 396.950905,300.45722 399.745643,302.715232 C402.546212,304.952177 406.755811,308.075856 412.564902,310.873952 C415.396567,312.224163 418.799618,313.516918 421.992771,312.779569 C423.465937,312.425258 424.976028,311.421697 425.802012,310.081062 C426.668808,308.744258 426.661034,307.237002 425.753424,305.990211 C424.849702,304.754912 423.009217,303.850941 420.976326,303.320433 C418.972588,302.78801 416.572378,302.529459 414.23436,302.267077 C409.513623,301.792109 404.561611,301.723163 399.50465,302.157911 L399.458007,298.256664 C403.111767,298.457759 406.967651,298.520961 410.879896,298.404134 C413.77764,298.321781 416.636513,298.136007 419.448743,297.875541 C422.247369,297.590177 425.069316,297.304813 427.597796,296.778136 C430.12239,296.232306 432.429312,295.364724 434.056013,293.899601 C435.587483,292.591525 436.436788,290.396714 436.285196,288.519826 C436.13166,286.598888 435.043306,285.380825 433.109533,284.859893 C432.159167,284.593681 431.0747,284.459618 429.945532,284.407907 C428.824138,284.346621 427.720236,284.281505 426.629938,284.321724 C422.270691,284.358112 418.220458,285.118444 414.659984,286.213934 C407.511829,288.427896 402.340202,291.867582 399.104291,294.5297 C395.843115,297.203308 394.274719,298.997844 394.018178,298.794833 C393.837434,298.666515 394.991867,296.532991 398.048976,293.397821 C401.076934,290.285633 406.252447,286.280966 413.756261,283.569053 C417.493592,282.224588 421.80814,281.238264 426.53082,281.04866 C427.710519,280.970137 428.911595,281.002695 430.135994,281.035253 C431.344845,281.063981 432.648926,281.163571 434.034635,281.508306 C435.402851,281.856871 436.920717,282.531019 438.053772,283.787385 C439.182939,285.016939 439.834008,286.629531 439.960335,288.190413 C440.236311,291.310261 439.06633,294.453092 436.633081,296.688122 C434.30478,298.825476 431.309862,299.905645 428.452932,300.55298 C425.549358,301.181163 422.737128,301.472272 419.837441,301.784449 C416.939698,302.067897 413.98948,302.265162 411.000393,302.351346 C406.963764,302.472003 402.987384,302.395395 399.218957,302.161742 L399.172314,298.260495 C404.497476,297.837237 409.704085,297.965555 414.650267,298.540113 C417.132103,298.86378 419.4915,299.133822 421.979167,299.834783 C424.373547,300.547234 426.925349,301.631233 428.64145,304.002242 C429.46549,305.18583 429.906662,306.612649 429.879453,308.052874 C429.860018,309.495014 429.313898,310.80309 428.606467,311.866022 C427.150794,313.993801 424.985746,315.299962 422.663275,315.792166 C420.383562,316.234576 418.226288,315.914739 416.352764,315.357418 C414.473409,314.792436 412.835047,313.993801 411.346334,313.185589 C405.426464,309.937423 401.337361,306.375165 398.773898,303.757097 C396.212378,301.116046 395.11625,299.423016 395.289221,299.273631" id="Fill-29" fill="#000105"></path>
                <polyline id="Fill-30" fill="#967647" points="276.65972 288 268 361 438 361 390.887484 291.921069 276.65972 288"></polyline>
                <polyline id="Fill-31" fill="#FBF7E8" points="278.607006 288 392.466554 291.567333 397 300.026619 352.021515 300.730749 374.336616 361 270 360.968878 278.607006 288"></polyline>
                <polyline id="Fill-32" fill="#000000" points="278.607006 288 392.466554 291.567333 397 300.026619 352.021515 300.730749 374.336616 361 270 360.968878 278.607006 288"></polyline>
                <polygon id="Fill-34" fill="#000105" points="167 361 371 361 371 348 167 348"></polygon>
                <path d="M279.720654,97.005446 C279.793242,97.0653552 279.48379,97.6470545 278.832414,98.6925672 C278.486669,99.2317503 278.077887,99.8656286 277.602249,100.6 C277.139982,101.367224 276.673894,102.294851 276.104656,103.305578 C273.936586,107.385203 271.210739,113.644752 270.04552,121.854249 C268.956709,129.994174 269.227957,140.174878 273.271838,150.297605 C275.245069,155.362834 278.177217,160.238672 281.995696,164.753122 C285.798893,169.261775 290.438755,173.84773 293.311687,179.948809 C296.159787,185.955192 297.512204,192.537477 296.822624,198.897518 C296.457777,202.05918 295.519871,205.17446 293.829349,207.839454 C292.16366,210.539235 289.649844,212.541362 287.143669,213.913477 C284.620303,215.312647 282.074014,216.280858 279.728295,217.326371 C277.384487,218.360288 275.187763,219.521754 273.132394,220.772118 C269.023566,223.272845 265.501168,226.125297 262.590032,229.010603 C259.699908,231.880448 257.571951,234.968672 256.784951,238.035639 C255.929184,241.087144 256.662699,243.88935 257.762971,245.806445 C258.865153,247.758327 260.351284,248.790312 261.415262,249.26572 C262.498342,249.733399 263.155449,249.78751 263.143988,249.915059 C263.147808,249.974968 262.4716,250.121843 261.228063,249.793308 C260.009359,249.457043 258.232878,248.459845 256.857538,246.382347 C255.49366,244.378287 254.473616,241.181839 255.293089,237.672318 C256.030424,234.178257 258.267262,230.730578 261.20323,227.636556 C264.14493,224.542534 267.713173,221.502624 271.938523,218.810573 C274.049287,217.467447 276.324329,216.213218 278.740725,215.098134 C281.143749,213.983049 283.617451,212.991648 285.907774,211.681375 C288.196186,210.3769 290.232454,208.697509 291.617344,206.41516 C293.025158,204.15407 293.840811,201.431099 294.150262,198.588309 C294.746243,192.88727 293.485514,186.706956 290.843716,181.164386 C288.224839,175.569637 283.860045,171.188533 279.946057,166.513681 C276.007236,161.807907 272.903171,156.551356 270.914658,151.229097 C266.809651,140.542063 266.750435,129.936197 268.127685,121.546972 C269.587073,113.082378 272.683498,106.75519 275.183943,102.758665 C275.837229,101.767264 276.385455,100.868625 276.92795,100.138119 C277.491457,99.4501291 277.978557,98.858767 278.389249,98.3563025 C279.193441,97.4093502 279.646157,96.9436042 279.720654,97.005446" id="Fill-35" fill="#000105"></path>
                <path d="M186.041028,279.850717 C186.343267,279.528423 188.380939,284.224419 191.337025,292.212556 L192,294 L190.096873,293.673752 C184.328994,292.687098 177.229316,290.618883 169.846899,287.382106 C167.649334,286.425111 165.159279,285.092437 163.82358,282.616906 C163.156706,281.414731 162.817419,279.925853 163.100158,278.49827 C163.365348,277.072664 164.240864,275.82699 165.330873,275.07563 C166.420881,274.284726 167.690282,274.037568 168.834888,274 L169.687006,274.011864 L170.383129,274.075136 C170.851111,274.114681 171.315193,274.154226 171.773426,274.191794 C173.684352,274.33218 175.476334,274.864063 176.940727,275.399901 C179.902664,276.501236 182.168477,277.574889 183.732317,278.35393 C185.393653,279.186357 186.197023,279.734058 186.041028,279.850717 C185.886984,279.969352 184.908122,279.811172 183.342332,279.38606 C181.503552,278.842313 179.157792,278.148295 176.3499,277.317845 C174.867957,276.918438 173.354815,276.576372 171.623281,276.542758 C171.168949,276.528917 170.710716,276.515077 170.242734,276.501236 L169.521262,276.471577 L168.932384,276.497281 C168.166064,276.560554 167.389994,276.750371 166.820615,277.21305 C165.633111,278.085022 165.317223,279.755808 166.216139,281.250618 C167.074106,282.810677 168.875837,283.882353 170.958357,284.774098 C178.128232,287.923875 185.073866,290.170044 190.486858,291.469105 L189.244756,292.930302 C187.008191,285.365299 185.74074,280.174988 186.041028,279.850717" id="Fill-36" fill="#000105"></path>
                <path d="M319.958697,279.853475 C320.258972,280.177683 318.993529,285.366983 316.757067,292.932487 L315.515022,291.469599 C320.919966,290.172768 327.853582,287.930991 335.011428,284.789735 C335.563231,284.560417 336.074088,284.323192 336.518651,284.080036 C337.00416,283.860603 337.425324,283.573956 337.838689,283.287309 C338.651771,282.712038 339.357611,282.035946 339.769027,281.28078 C340.68155,279.790215 340.383225,278.115801 339.205524,277.232138 C338.021974,276.304983 336.333416,276.411734 334.555166,276.668728 C332.825662,276.913861 331.19365,277.277606 329.709825,277.623559 C323.764776,279.07854 320.101035,280.244897 319.958697,279.853475 C319.828058,279.511476 323.236371,277.678912 329.17947,275.688198 C330.673044,275.20584 332.322605,274.713598 334.174948,274.343922 C335.134267,274.183795 336.011693,273.968316 337.222541,274.003899 C338.367095,274.051344 339.626689,274.324153 340.716647,275.11095 C341.800755,275.874024 342.660633,277.12934 342.910212,278.556645 C343.177339,279.985926 342.826369,281.468583 342.149776,282.660639 C340.808289,285.125804 338.312499,286.438449 336.124784,287.395257 C328.752456,290.625473 321.664804,292.689331 315.903039,293.675792 L314,294 L314.662944,292.212904 C317.620845,284.226325 319.656473,279.531245 319.958697,279.853475" id="Fill-37" fill="#000105"></path>
                <path d="M298.295358,349 L210.704642,349 C197.613122,349 187,338.225229 187,324.932345 L187,267 L322,267 L322,324.932345 C322,338.225229 311.386878,349 298.295358,349" id="Fill-38" fill="#7BB0AC"></path>
                <polygon id="Fill-39" fill="#C7E5E2" points="186 269 323 269 323 266 186 266"></polygon>
                <polygon id="Fill-40" fill="#97D0C2" points="68 343 124 343 124 235 68 235"></polygon>
                <path d="M120,340 L72,340 L72,269 L91.7645928,269 L74.0326109,292.919879 C73.6191659,293.47656 73.7326229,294.265191 74.2883699,294.678836 C74.5114378,294.847 74.7748888,294.928183 75.0344938,294.928183 C75.4152478,294.928183 75.7921558,294.75422 76.0382997,294.421758 L94.8856216,269 L100.800769,269 L73.8826169,304.356964 C73.4634029,304.909779 73.5672449,305.69841 74.1152999,306.119787 C74.3422139,306.293749 74.6095108,306.378798 74.8748848,306.378798 C75.2517928,306.378798 75.6229318,306.208701 75.8690758,305.885903 L103.950643,269 L120,269 L120,340" id="Fill-41" fill="#A8D7C9"></path>
                <path d="M105.132448,269 L102,269 L116.767253,249.492896 C117.013948,249.170098 117.383034,249 117.755944,249 C118.01985,249 118.285668,249.083116 118.511327,249.259012 C119.058262,249.68039 119.16153,250.469025 118.742722,251.021842 L105.132448,269" id="Fill-42" fill="#A8D7C9"></path>
                <path d="M74.2361716,307 C73.9736446,307 73.7092153,306.913538 73.4847357,306.736684 C72.9425603,306.308305 72.8398324,305.506567 73.2545489,304.944565 L99.8839186,269 L103,269 L75.2196967,306.498914 C74.9761934,306.827076 74.6090361,307 74.2361716,307" id="Fill-43" fill="#AED9CD"></path>
                <path d="M96.1110127,269 L93,269 L111.752334,243.508662 C111.997688,243.176673 112.373386,243 112.754835,243 C113.013607,243 113.274295,243.081541 113.498564,243.250448 C114.050611,243.667861 114.163704,244.458035 113.753503,245.017174 L96.1110127,269" id="Fill-44" fill="#A8D7C9"></path>
                <path d="M74.2445379,295 C73.9861839,295 73.7240026,294.918593 73.5020096,294.749963 C72.9489408,294.335172 72.8360306,293.544357 73.2474831,292.986134 L90.8940119,269 L94,269 L75.2435063,294.492172 C74.9985485,294.825555 74.6234569,295 74.2445379,295" id="Fill-45" fill="#AED9CD"></path>
                <path d="M65,261.015715 C65,261.015715 57.6640407,246.275796 54.8229355,233.866814 C53.1614136,226.613498 45.6233511,194.400302 42.9532562,198.331206 C40.2831614,202.264054 45.8526605,220.703534 48.4800027,229.099961 C50.596257,235.865315 57.7281697,256.07584 57.7281697,256.07584 C57.7281697,256.07584 36.9387413,215.219319 30.6210715,214.371706 C24.3034017,213.526037 34.9934975,229.131066 37.1369579,232.307672 C44.2902469,242.918392 49.0552197,249.812055 55.3398534,257.899375 C55.3398534,257.899375 11.2424792,214.991864 6.64074374,221.345076 C2.03706493,227.698288 23.4114267,236.629334 33.3825014,244.001237 C41.0255022,249.650697 57.5435561,263.358316 57.5435561,263.358316 C57.5435561,263.358316 55.1843894,259.392419 46.6494137,253.801281 C33.8022543,245.385413 11.4232062,235.171283 10.1037052,239.502665 C8.31198214,245.379581 20.8384969,247.376138 31.5441392,251.493673 C55.3845493,260.659951 58.1401494,269 58.1401494,269 L65,261.015715" id="Fill-46" fill="#17493A"></path>
                <path d="M72.4691365,261.333137 C72.4691365,261.333137 66.4119481,252.675306 56.4100497,259.835757 C46.4062185,266.998162 52.7591151,279.802135 55.8379604,283.318829 C58.9168057,286.835523 86.8796012,316.075496 90.6213742,323.222263 C94.3631472,330.36903 106.918187,349.406875 110.988525,347.917314 C115.058863,346.427753 111.964556,341.470367 110.300472,329.047582 C108.638321,316.626751 102.934823,302.993941 95.5227876,293.796583 C88.1107527,284.599226 72.4691365,261.333137 72.4691365,261.333137" id="Fill-47" fill="#E77933"></path>
                <path d="M77.5261079,269.016213 C76.1898523,269.218927 74.8116601,270.056559 73.6755569,270.760323 C72.5184854,271.481298 71.4147878,272.286419 70.2977468,273.064767 C68.1970997,274.523929 65.9496741,275.948668 63.3572239,276.266127 C62.6290504,276.354097 62,276.828373 62,277.629669 C62,278.297098 62.625238,279.081182 63.3572239,278.993212 C66.3004174,278.63368 68.816619,277.363846 71.2279789,275.686669 C72.3431137,274.908322 73.4334678,274.093639 74.569571,273.34589 C75.1662157,272.95576 75.7800164,272.594316 76.3957234,272.236697 C77.0571794,271.852304 77.7891653,271.576918 78.4277468,271.161927 C79.6019743,270.404616 78.8032709,268.82306 77.5261079,269.016213" id="Fill-48" fill="#BD5D2E"></path>
                <path d="M87.084726,281.010095 C86.432342,280.935393 85.7565189,281.290685 85.1959374,281.567631 C84.6587948,281.833645 84.1372782,282.117878 83.6138084,282.407578 C82.6371855,282.950538 81.6586094,283.489853 80.693706,284.049211 C78.6799097,285.213476 76.6700198,286.375919 74.6581767,287.540185 C73.1307386,288.42386 74.5390287,290.690443 76.0684201,289.794013 C78.1037022,288.606061 80.137031,287.416288 82.1703598,286.226514 C83.1372164,285.661691 84.0904003,285.078647 85.0455375,284.497425 C86.0475525,283.888874 87.5495985,283.187399 87.9539204,282.075972 C88.1629177,281.502038 87.6238218,281.072044 87.084726,281.010095" id="Fill-49" fill="#BD5D2E"></path>
                <path d="M96.2299126,295.154255 C94.3524955,296.256697 92.6020077,297.584286 90.8136306,298.830356 C89.9118642,299.459213 89.0100978,300.088071 88.1102258,300.72081 C87.198987,301.365196 86.1683968,301.970762 85.3859818,302.778184 C84.3212912,303.874804 85.6625741,305.505175 86.9470229,304.849145 C87.867734,304.379443 88.6937217,303.643834 89.5348652,303.038268 C90.4555763,302.376414 91.3781819,301.720384 92.3007874,301.064353 C94.1118982,299.773642 95.9949986,298.539218 97.6393962,297.027242 C98.639675,296.109187 97.3590151,294.494343 96.2299126,295.154255" id="Fill-50" fill="#BD5D2E"></path>
                <path d="M106.709961,314.032234 C105.886973,314.235695 105.137499,314.875422 104.42747,315.352772 C103.771232,315.794908 103.127545,316.254651 102.482064,316.712438 C101.856307,317.15653 101.228756,317.600622 100.602999,318.044714 C99.8517316,318.576842 99.0359161,319.06593 98.3563687,319.701745 C97.8883955,320.141924 97.9081185,320.985112 98.2595467,321.482026 C98.6540069,322.039586 99.2976943,322.131535 99.8624896,321.832213 C100.586862,321.446811 101.255651,320.85208 101.926234,320.364948 C102.566335,319.899336 103.206437,319.433724 103.846538,318.968112 C104.470502,318.516195 105.094467,318.064277 105.707673,317.594753 C106.466113,317.015672 107.30703,316.485501 107.859275,315.663832 C108.095951,315.313645 108.009887,314.74239 107.780382,314.429374 C107.518604,314.071361 107.122351,313.930504 106.709961,314.032234" id="Fill-51" fill="#BD5D2E"></path>
                <path d="M129.918931,347.820866 C129.918931,347.820866 167.396387,310.208662 142.411416,307.073823 C117.426446,303.940939 104.933961,326.925197 104.933961,326.925197 C104.933961,326.925197 132.001986,290.359244 108.057569,286.18011 C84.1131518,281.999021 88.2773135,352 88.2773135,352 L129.918931,347.820866" id="Fill-52" fill="#8BA577"></path>
                <path d="M88.6963684,344.704124 C88.6963684,344.704124 100.122904,276.96367 72.0786037,279.047091 C44.0323589,281.130513 52.3422134,311.353777 52.3422134,311.353777 C52.3422134,311.353777 42.9941132,270.709505 25.3342143,281.130513 C7.67625966,291.553472 33.6440687,323.862108 33.6440687,323.862108 C33.6440687,323.862108 -1.67184052,307.184984 3.52133244,321.776736 C8.71644967,336.366537 38.839186,352 38.839186,352 L88.6963684,344.704124" id="Fill-53" fill="#135E3C"></path>
                <path d="M40.891275,362 L121.108725,362 C132.645987,362 142,352.598384 142,341 L20,341 C20,352.598384 29.3520719,362 40.891275,362" id="Fill-54" fill="#D8BDB1"></path>
                <path d="M60,345.63757 C60,337.70491 66.4913575,322 74.5,322 C82.5086425,322 89,337.70491 89,345.63757 C89,353.57023 82.5086425,360 74.5,360 C66.4913575,360 60,353.57023 60,345.63757" id="Fill-55" fill="#E8DACE"></path>
                <path d="M95,345.63757 C95,337.70491 101.491358,322 109.5,322 C117.506715,322 124,337.70491 124,345.63757 C124,353.57023 117.506715,360 109.5,360 C101.491358,360 95,353.57023 95,345.63757" id="Fill-56" fill="#E8DACE"></path>
                <path d="M129,345.63757 C129,337.70491 135.491358,322 143.5,322 C151.506715,322 158,337.70491 158,345.63757 C158,353.57023 151.506715,360 143.5,360 C135.491358,360 129,353.57023 129,345.63757" id="Fill-57" fill="#E8DACE"></path>
                <path d="M158.448236,341 L58.5792089,341 C56.0643686,341 54.0274444,343.013516 54.0274444,345.497551 C54.0274444,347.046263 54.0043194,348.59688 54,350.145591 C53.9985382,350.888516 54.0023923,351.633345 54.0158819,352.378175 C54.042861,353.98213 55.9140563,353.422079 56.9739507,353.422079 C58.2612405,353.422079 59.3770202,354.294539 59.6737906,355.530842 C60.5833727,359.323567 64.0097221,362 67.950602,362 L80.2395952,362 C84.1824021,362 87.6068244,359.323567 88.5164065,355.530842 C88.8131769,354.294539 89.9308837,353.422079 91.2162464,353.422079 L91.3916108,353.422079 C92.6789006,353.422079 93.7966074,354.294539 94.0914507,355.530842 C95.0010328,359.323567 98.4254551,362 102.368262,362 L114.657255,362 C118.600062,362 122.024485,359.323567 122.934067,355.530842 C123.230837,354.294539 124.348544,353.422079 125.633907,353.422079 L125.809271,353.422079 C127.094634,353.422079 128.21234,354.294539 128.509111,355.530842 C129.418693,359.323567 132.843115,362 136.785922,362 L149.074915,362 C153.017722,362 156.442145,359.323567 157.351727,355.530842 C157.648497,354.294539 158.766204,353.422079 160.051567,353.422079 C160.760732,353.422079 161.731981,353.435414 162.435365,353.423984 C162.761042,353.418269 163,353.439224 162.992292,353.056332 C162.980729,352.254354 163,350.517054 163,349.671263 C162.998073,348.28066 162.998073,346.888153 162.998073,345.497551 C162.998073,343.013516 160.961149,341 158.448236,341" id="Fill-58" fill="#3F487A"></path>
                <path d="M59.7370919,350.999628 C92.9076361,350.010888 126.091643,350.865121 159.262187,349.874022 C160.244976,349.845705 160.246899,347.969695 159.262187,348.000372 C126.091643,348.989112 92.9076361,348.134879 59.7370919,349.125978 C58.7562269,349.154295 58.7523804,351.030305 59.7370919,350.999628" id="Fill-59" fill="#FFFFFE"></path>
                <polygon id="Fill-210-Copy" fill="#D8B954" points="0 366 600 366 600 354 0 354"></polygon>
            </g>
        </g>
    </g>
</svg>