<svg width="600" height="386" xmlns="http://www.w3.org/2000/svg"><g fill="none" fill-rule="evenodd"><path d="M537.207 385H65.33a120.776 120.776 0 012.88-18.67c5.372-22.826 15.999-43.63 24.612-65.21 1.21-3.039 2.406-6.202 2.394-9.523-.026-9.705-9.441-15.385-16.744-20.772-29.357-21.65-37.747-67.698-26.961-104.829 10.788-37.132 36.807-66.465 64.791-90.23 28.644-24.328 61.431-44.838 97.357-49.069 3.959-.465 7.953-.697 11.966-.697 23.338 0 47.042 7.88 64.896 23.514-.778 21.955 8.718 32.073 12.562 35.484.543 21.94 1.322 43.453 1.322 43.453 1.474 16.54 14.95 26.625 27.985 27.265.33 1.147.668 2.289 1.018 3.424 3.278 10.612 7.911 21.233 15.957 28.064 6.087 5.168 13.7 7.758 21.319 8.77 2.89.383 5.771.552 8.653.552 16.349 0 32.602-5.49 48.84-8.758a183.894 183.894 0 0136.257-3.614c5.033 0 10.068.207 15.086.623 12.622 1.046 25.51 3.546 36.301 10.855 10.79 7.308 19.149 20.27 18.78 34.25-.57 21.743-21.09 40.185-16.703 61.389 4.463 21.574 31.68 29.314 37.16 50.598 4.155 16.145-6.082 31.748-17.851 43.131" fill="#E8DACE"/><path d="M303.001 91c.157-.466-22.58-13.434-10.423-57.3L318 33l-14.999 58" fill="#000105"/><path d="M373.427 46.819c-2.933-18.728-21.393-50.044-54.195-30.772-10.316 6.063-14.715 17.122-16.81 28.607-1.463 8.012 1.347 86.719 1.347 86.719 2.774 31.54 49.665 39.024 51.275.622l-1.93-26.294c23.763-7.712 23.606-37.855 20.313-58.882" fill="#F1C5B0"/><path d="M353.158 105.535S339.592 110.142 314 94c0 0 13.964 21.265 40 30l-.842-18.465" fill="#96615D"/><path d="M322.5 86c-7.456 0-13.5-6.044-13.5-13.5S315.044 59 322.5 59c7.457 0 13.5 6.044 13.5 13.5S329.957 86 322.5 86" fill="#ECB29B"/><path d="M375 77c.4-4.89.491-9.995.386-15 .105 5.005.014 10.11-.386 15" fill="#DCD3BD"/><path d="M373.03 77C365.28 77 359 70.956 359 63.5S365.281 50 373.03 50c.251 0 .502.007.748.02.54 3.713.955 7.66 1.13 11.678v.002c.003.034.003.069.005.104v.009c.002.027.003.056.003.083l.002.026.002.076.004.062v.007c.198 4.967.026 10.032-.729 14.884-.385.03-.772.049-1.165.049" fill="#ECB29B"/><path d="M287.285 55.642c-1.304 5.365 1.991 10.77 7.355 12.074 5.367 1.301 10.772-1.992 12.076-7.357 1.301-5.365-1.992-10.77-7.359-12.074-5.363-1.304-10.769 1.991-12.072 7.357" fill="#F1C5B0"/><path d="M301 61c-1.657-1.131-2.985-2.237-4.352-2.725-.665-.27-1.32-.3-2.081-.205-.777.076-1.574.44-2.567.743.374-.936 1.012-1.829 2.016-2.326.962-.552 2.27-.64 3.343-.238a5.646 5.646 0 012.517 1.95c.605.827 1.032 1.765 1.124 2.801M348.78 39c1.772 1.578 3.174 3.347 4.46 5.177.627.924 1.252 1.849 1.799 2.813a40.558 40.558 0 011.58 2.928l.381.77-.633.407c-2.699 1.742-5.441 3.43-8.367 4.905 2.242-2.277 4.666-4.339 7.133-6.35l-.25 1.175a41.474 41.474 0 01-1.908-2.758c-.615-.929-1.151-1.9-1.686-2.872-1.034-1.96-1.955-3.981-2.51-6.195M339.31 41.534c.504 1.831.775 3.678.666 5.649-.056.983-.224 1.998-.655 3.032-.413 1.018-1.304 2.11-2.55 2.557-1.26.486-2.657.124-3.588-.42-.962-.568-1.686-1.278-2.315-2.027-1.257-1.508-2.124-3.148-2.809-4.93a.87.87 0 01.474-1.118.826.826 0 01.996.309l.03.042c.951 1.403 2.008 2.817 3.124 3.976 1.113 1.166 2.46 1.974 3.228 1.62.876-.21 1.522-1.676 1.764-3.3.252-1.618.294-3.405.24-5.128v-.042a.723.723 0 01.688-.754c.333-.01.62.217.707.534M368.068 37.499c.546 1.627.89 3.262.928 5.01.021.873-.046 1.767-.33 2.731a4.332 4.332 0 01-.774 1.486 3.452 3.452 0 01-1.814 1.165c-.773.21-1.61.09-2.217-.139a5.758 5.758 0 01-1.52-.861 10.562 10.562 0 01-1.942-2.1c-1.054-1.463-1.79-2.988-2.356-4.615-.153-.436.113-.904.594-1.04.407-.119.838.037 1.052.352l.023.033c.904 1.325 1.87 2.668 2.873 3.857.513.582 1.041 1.15 1.59 1.54.55.432 1.028.534 1.14.477.17.007.491-.278.726-.9.238-.589.356-1.322.44-2.065.14-1.495.133-3.104.073-4.67l-.002-.032c-.013-.389.322-.714.749-.728.358-.01.668.202.767.499M356 67.238c-.405 1.211-1.09 2.327-2.134 3.19-.99.893-2.41 1.572-3.983 1.572-1.57.01-3.035-.686-4.01-1.632-1.003-.932-1.654-2.096-1.873-3.368 1.142.67 2.129 1.296 3.104 1.742.983.432 1.883.684 2.774.68.891.012 1.83-.258 2.844-.67 1.028-.394 2.035-1 3.278-1.514" fill="#000105"/><path d="M292 36.627s2.441 9.17 5.002 10.605C299.401 48.572 307.32 53 307.32 53s10.629-11.695 14.068-34.152c0 0 29.075 19.65 48.613 6.082 0 0-4.507-22.188-28.875-24.7-15.638-1.613-31.109 5.353-40.481 17.947-3.646 4.895-6.924 11.028-8.644 18.45M300.02 118.113c.129.181-.779 1.138-2.94 2.189-2.147 1.002-5.659 2.034-10.096 1.593-2.227-.268-4.543-.787-7.022-2.109-.63-.409-1.51-.944-1.887-2.259a2.795 2.795 0 01.248-1.946c.325-.604.804-.998 1.24-1.273.887-.532 1.726-.727 2.557-.841a29.246 29.246 0 012.167-.19c5.912-.32 12.053 1.421 18.03 3.322l-1.244 3.464-.414-.148c-6.356-2.236-11.746-6.5-14.265-11.844-.33-.653-.566-1.336-.81-2.004l-.285-1.02c-.086-.32-.202-.68-.236-1.226-.026-.488.01-1.324.706-2.053.676-.718 1.758-.84 2.303-.736.598.083 1.018.26 1.373.42l.877.43c2.307 1.158 4.24 2.572 5.84 3.995 3.199 2.878 4.98 5.853 5.904 7.96.92 2.13 1.067 3.406.84 3.48-.27.098-.893-.996-2.156-2.805-1.27-1.794-3.256-4.317-6.373-6.685-1.56-1.168-3.375-2.317-5.475-3.228l-.796-.339c-.214-.09-.39-.126-.423-.119l.008-.136.002-.218-.044-.299c-.06-.164-.021-.08-.038-.108-.025-.015.095.08.345.128l.473.06.006.038c.002.078.076.323.173.611l.265.816c.226.532.431 1.08.726 1.602 2.177 4.256 6.823 7.893 12.393 9.845l.36.132-1.245 3.462c-5.961-1.91-11.582-3.55-16.697-3.437-.638.002-1.26.051-1.876.096-.486.033-.95.167-1.17.286l-.098.056-.091-.061-.148-.09.017-.012.059.004-.08-.004.017-.003.217-.07.058.091.384.326c1.714 1.042 3.84 1.742 5.684 2.089 3.803.693 7.03.168 9.168-.367 2.145-.574 3.313-1.102 3.468-.865" fill="#000105"/><path fill="#333642" d="M263.013 319.82L254 378l187-1.12L418.066 303l-155.053 16.82"/><path d="M456.997 265.127c-7.452-19.54-15.016-39.265-24.003-58.157-1.18-3.198-11.395-19.288-20.101-32.747-13.226-20.445-30.234-38.176-50.218-52.02-3.62-2.51-9.19-3.425-9.19-3.425-8.706 9.731-51.551-1.778-51.551-1.778s-.951.653-1.501.965c-44.98 24.183-85.198 81.357-107.982 127.06-7.52 15.085-15.213 30.828-14.39 47.914.135 2.795.665 5.586 1.78 8.151 5.786 13.291 20.77 12.237 33.035 10.243 13.263-2.157 26.598-4.394 39.869-6.948 2.084 13.711 7.612 24.056 18.043 28.812 7.517 3.427 41.818 4.33 54.052 3.532 13.432-.879 66.033-8.69 82.467-12.685 9.85 2.651 19.837 4.79 29.92 6.338 5.458.84 11.313 1.46 16.273-.98 4.22-2.078 7.183-6.127 9.111-10.433 7.58-16.918.994-36.515-5.614-53.842" fill="#493A2A"/><path fill="#FBF7E8" d="M294.048 174.804l86.927-.804 28.173 163.063L441 376.875 254 378l22.34-37.724 17.708-165.472"/><path fill="#000" d="M294.048 174.804l86.927-.804 28.173 163.063L441 376.875 254 378l22.34-37.724 17.708-165.472"/><path d="M258 344.761c-.037-1.064 4.376-2.075 9.782-2.936 5.409-.842 9.917-1.238 10.205-.214.284.996-3.961 3.088-9.622 3.971-5.655.9-10.333.215-10.365-.82M430.996 341.214c-.16 1.005-5.215 1.052-11.288.107-6.072-.947-10.866-2.53-10.704-3.535.16-1.005 5.213-1.053 11.286-.106 6.074.946 10.866 2.528 10.706 3.534M299.927 116.02c.409.316-.974 3.363-2.43 8.534-1.472 5.163-2.798 12.545-3.174 20.892-.818 16.756 1.65 30.305.72 30.55-.407.122-1.562-3.128-2.567-8.679-1.004-5.537-1.774-13.392-1.363-22.092.386-8.706 2.164-16.514 4.276-21.685 2.102-5.202 4.214-7.796 4.538-7.52M354.021 119.066c.096-.197 1.1.023 2.515.986 1.46.92 3.264 2.559 5.314 4.722 4.086 4.342 8.99 10.87 13.6 18.618 1.137 1.957 2.214 3.874 3.134 5.855.964 2.001 1.635 4.036 2.143 5.948 1.032 3.863 1.391 7.493 1.24 10.52-.285 6.111-2.326 9.466-2.727 9.277-.578-.177.442-3.661.023-9.244-.195-2.782-.788-6.07-1.92-9.59-.573-1.777-1.24-3.568-2.141-5.323-.89-1.802-1.964-3.662-3.062-5.552-4.486-7.543-8.955-14.197-12.376-18.811-1.716-2.302-3.148-4.14-4.208-5.317-1.025-1.224-1.684-1.824-1.535-2.089" fill="#000105"/><path d="M303 275.333S384.619 320.667 421.677 326L423 258l-102.793-28L303 275.333" fill="#493A2A"/><path d="M405.219 253c-.564.019-1.2-3.31-2.088-8.69a602.52 602.52 0 01-2.99-21.104c-1.03-8.269-1.762-15.79-2.024-21.266-.272-5.478-.055-8.9.49-8.94.558-.041 1.342 3.27 2.334 8.645.98 5.378 2.157 12.831 3.187 21.113 1.025 8.277 1.686 15.817 1.831 21.308.167 5.493-.194 8.917-.74 8.934" fill="#000105"/><path d="M395.755 230.865c-13.175-8.877-24.61-8.801-28.755-6.685 0 0 7.267 16.055 9.165 21.9.135.417 30.96 6.401 30.835 5.889-1.21-4.939-1.73-14.693-11.245-21.104" fill="#F1C5B0"/><path d="M286 232.976c.066 1.193-7.748 2.665-17.31 4.49-9.572 1.793-17.383 3.28-17.682 2.129-.293-1.101 7.225-4.472 17.03-6.31 9.795-1.869 17.906-1.454 17.962-.309" fill="#000105"/><path d="M316.503 231.792l-.466-1.984a478.122 478.122 0 00-11.707-4.633c-8.673-3.3-18.079-6.314-27.131-4.75-.34 6.712-.7 13.42-1.199 20.114.514.162 1.077.24 1.62.257 6.68.232 13.368.266 20.049.102 6.187-.15 12.51-.5 18.229-2.8 1.785-.717 3.675-1.848 4.06-3.688.388-1.843-2.027-3.882-3.455-2.618" fill="#F1C5B0"/><path d="M275.705 235.24c.297-.004.604 1.05.905 2.962.15.954.297 2.125.442 3.484.066.687.139 1.413.211 2.175l.053.586.039.451.004.038c.628-.01-5.473.093-2.89.056v-.004l-.002-.017-.007-.076c-.034-.41-.066-.827-.102-1.253-.538-6.844-.984-16.303-1.208-26.753-.45-20.908.15-37.868 1.342-37.889 1.191-.019 2.526 16.908 2.976 37.818.224 10.45.188 19.919-.055 26.774-.018.427-.032.845-.05 1.254l-.002.077-.002.018v.006c2.583-.045-3.518.052-2.89.037l.002-.037.02-.452.025-.588c.045-.765.083-1.491.122-2.182a69.09 69.09 0 01.292-3.497c.216-1.919.476-2.983.775-2.988" fill="#000105"/><path d="M257 301c54.063-7.476 53.956-8.413 127-28.855-3.251-9.939-6.204-21.792-18.724-51.145 0 0-59.376 9.283-87.346 14.236-6.444 1.14-12.908 2.344-19.182 4.147-.754 17.83-.62 43.807-1.748 61.617" fill="#493A2A"/><path d="M430.985 259.787c-.192.426-2.103.19-5.032-.508-2.936-.69-6.866-1.862-11.183-3.04-8.622-2.314-15.931-3.757-15.767-4.726.118-.836 7.78-.864 16.858 1.562a72.132 72.132 0 0111.055 4.025c2.698 1.263 4.257 2.265 4.069 2.687" fill="#000105"/><path d="M353.82 282.903c-21.883 5.147-63.327 20.742-78.444 41.078-15.118 20.337-11.524 46.019 7.68 46.019h95.501c14.3 0 19.798-28.122 16.529-47.645-3.269-19.524-15.365-45.544-41.266-39.452" fill="#E99639"/><path d="M389.888 275.916s-30.619 16.052-44.093 32.515c-13.47 16.462 11.84 48.155 30.212 46.507 18.371-1.645 24.902-9.877 25.31-28.398.327-14.808-3.184-26.418-.713-32.8 4.386-11.33 9.023-11.51 6.837-17.412-2.04-5.517-3.907-8.361-17.553-.412" fill="#C4772F"/><path d="M396 270.695L405.449 281l7.197-5.72s13.72 2.49 15.13-4.774c1.784-9.206-7.645-8.094-7.645-8.094s5.229-9.546-2.816-12.038c-8.047-2.489-8.783 8.15-10.263 11.05-1.944 3.801-11.052 9.271-11.052 9.271" fill="#FFFFFE"/><path d="M251.463 373s-14.541-24.916 0-24.916c14.539 0 10.976 1.967 20.028-6.492 9.05-8.459 9.05 6.492 18.745 6.492 9.694 0 9.694-9.967 19.387-4.982 9.696 4.982 4.848 14.95 14.541 14.95 9.692 0 4.387 11.813 4.387 11.813L251.463 373M373.217 366s-4.868-24.164 4.869-19.332c9.736 4.833 10.993 12.395 20.102-1.05 9.107-13.449 23.712-3.782 18.843 5.883-4.867 9.666-4.867 14.499-4.867 14.499h-38.947" fill="#24AC7B"/><path d="M244 365c.774 6.716 6.564 12 13.619 12H406.38c7.055 0 12.845-5.284 13.619-12H244" fill="#000413"/><path d="M319.923 205.004c.175.076-.17 1.172-.77 3.116-.539 1.926-1.536 4.802-1.3 8.213.118 1.688.714 3.445 1.971 4.883 1.245 1.45 3.157 2.565 5.283 3.676 2.105 1.149 4.582 2.192 6.71 4.39 1.045 1.108 1.839 2.613 2.087 4.229.28 1.633-.078 3.332-.723 4.75-1.323 2.86-3.291 4.905-4.921 6.934-1.702 2.008-2.936 3.941-3.613 6.101-1.349 4.3-.719 8.66.668 11.83 1.307 3.266 3.348 5.399 4.805 6.737.365.318.7.608 1.01.875l.788.592c.424.335.632.555.591.635-.04.082-.326.02-.847-.178-.26-.098-.58-.23-.956-.396-.358-.192-.754-.444-1.209-.722a16.927 16.927 0 01-5.87-6.778c-1.744-3.397-2.72-8.238-1.294-13.293.69-2.51 2.228-4.972 3.926-7.006 1.656-2.085 3.494-4.115 4.518-6.377 1.077-2.223.66-4.56-.862-6.213-1.546-1.676-3.844-2.8-5.965-4.001-2.134-1.196-4.29-2.5-5.809-4.415-1.524-1.893-2.14-4.204-2.141-6.159.005-3.975 1.367-6.794 2.202-8.675.91-1.872 1.566-2.82 1.72-2.748M354.128 200.01c.144.12-.455 1.11-1.518 2.862-.997 1.752-2.679 4.31-3.362 7.72-.337 1.686-.256 3.569.544 5.31.798 1.745 2.319 3.325 4.065 4.95 1.708 1.658 3.809 3.313 5.255 6.054a8.24 8.24 0 01.824 4.733c-.2 1.674-1.002 3.207-1.963 4.426-1.973 2.439-4.327 3.956-6.372 5.539-2.103 1.545-3.769 3.126-4.97 5.064-2.41 3.857-2.966 8.29-2.504 11.77.372 3.552 1.738 6.186 2.785 7.87.268.405.51.778.735 1.12.221.285.42.542.605.778.315.44.46.707.403.776-.06.07-.314-.063-.76-.388a17.767 17.767 0 01-.806-.631c-.29-.285-.605-.632-.965-1.023-1.364-1.59-3.128-4.328-3.788-8.21-.742-3.807-.373-8.81 2.297-13.367 1.304-2.273 3.367-4.274 5.473-5.848 2.08-1.63 4.314-3.162 5.875-5.12 1.592-1.905 1.904-4.3.891-6.316-1.014-2.038-2.912-3.722-4.627-5.438-1.727-1.713-3.451-3.552-4.395-5.845-.94-2.284-.884-4.71-.369-6.623 1.058-3.881 3.059-6.284 4.325-7.912 1.334-1.599 2.193-2.36 2.322-2.25" fill="#000105"/><path fill="#E5755E" d="M99.932 267L83 284.628V377h39v-92.372L99.932 267"/><path fill="#EBA66C" d="M101 262v4.192l14.8 17.758V377H150v-93.05l-14.76-17.758V262H101"/><path d="M115.73 283.896c10.846.068 21.693-.068 32.541 0 .971.006.973-.785 0-.792-10.848-.067-21.695.068-32.541 0-.973-.006-.973.786 0 .792M103.718 266.913c10.189-.014 20.376-.02 30.563-.034.958 0 .96-.793 0-.792-10.187.014-20.374.022-30.563.035-.957 0-.957.791 0 .79" fill="#E26447"/><path d="M173.915 341.96c.57-5.4-1.745-10.793-6.383-14.18-1.851-1.351-4.188-2.503-7.134-3.178-11.782-2.693-17.377 4.446-18.112 5.658-.739 1.212-7.216 7.273-4.714 18.585 2.504 11.313 9.426 13.602 14.138 14.008 4.712.403 14.138.403 18.112-5.792 2.526-3.933 3.626-10.69 4.093-15.1" fill="#B2372B"/><path d="M158.505 327.236c1.01.12 1.8.594 2.583 1.056.894-1.98 2.067-4.022 3.7-5.552a.67.67 0 01.385-.441l.363-.175c.935-.483 1.81.549 1.327 1.274-1.272 1.913-2.374 3.856-3.413 5.858l.24.028.355-.21c.2-.197.567-.304.823-.197.519.216.59.5.64.974.036.333-.063.702-.455.855-.872.338-1.862.367-2.823.176a1.405 1.405 0 01-1.422-.249l-.31-.352c-1.155-.592-2.1-1.498-2.481-2.541-.09-.246.195-.539.488-.504" fill="#414F3C"/><path d="M136.75 333.514c-1.1-5.364-4.962-9.812-10.44-11.609-2.184-.716-4.776-1.09-7.804-.813-12.11 1.11-15.294 9.717-15.63 11.11-.334 1.396-4.696 9.244 1.153 19.319 5.85 10.074 13.18 10.1 17.818 9.01 4.64-1.09 13.67-4.045 15.59-11.24 1.218-4.568.213-11.398-.686-15.777" fill="#EA9439"/><path d="M116.352 325.907c1-.174 1.91.096 2.812.356.15-2.39.547-4.93 1.554-7.058-.017-.217.05-.447.207-.588l.286-.299c.712-.797 1.902.045 1.699.966-.534 2.431-.895 4.845-1.175 7.3l.237-.043.263-.33c.118-.27.429-.497.707-.46.566.074.733.36.947.851.15.345.184.77-.133 1.051-.705.625-1.63.955-2.604 1.04-.362.32-.893.418-1.43.16a1.585 1.585 0 01-.417-.284c-1.301-.285-2.512-.973-3.237-1.974-.17-.236-.002-.638.284-.688" fill="#5F7057"/><path d="M207.514 327.245c-3.542-4.103-9.057-6.059-14.707-4.928-2.254.452-4.7 1.4-7.212 3.123-10.05 6.898-8.697 15.91-8.32 17.281.377 1.372.34 10.302 10.294 16.152 9.954 5.852 16.375 2.28 19.905-.938 3.53-3.218 10.002-10.204 8.222-17.371-1.13-4.55-5.294-9.969-8.182-13.319" fill="#EA9439"/><path d="M186.151 330.82c.84-.642 1.828-.847 2.801-1.057-1.117-2.19-2.086-4.633-2.268-7.011-.128-.186-.188-.421-.114-.623l.104-.402c.244-1.054 1.794-.888 2.09.026.783 2.414 1.718 4.728 2.75 7.04l.197-.152.07-.421c-.032-.298.139-.651.417-.753.567-.21.873-.04 1.327.292.323.233.58.592.433.999-.326.895-1.015 1.639-1.876 2.19-.168.46-.61.805-1.248.839a1.784 1.784 0 01-.536-.049c-1.36.382-2.845.363-4.05-.17-.28-.125-.337-.562-.097-.748" fill="#5F7057"/><path d="M116.403 378h82.194c11.821 0 21.403-9.401 21.403-21H95c0 11.599 9.582 21 21.403 21" fill="#4E321D"/><path d="M515.547 360.221c.1-.29.24-.565.345-.853a8.684 8.684 0 00.438-1.88c.086-.717.245-1.436.218-2.16-.015-.351-.004-.706-.024-1.056l-.07-.637c-.239.021-.441.19-.64.304-.18.101-.365.163-.539.273l-.286.183c.066-.268.122-.536.15-.811.578-.846.98-1.74 1.368-2.691.316-.775.528-1.7.674-2.528.084-.482.157-.97.206-1.458.059-.574.22-1.103.334-1.664.402-1.97.455-4.144-.418-5.996-.222-.473-.389-.97-.613-1.442-.18-.377-.434-.742-.688-1.077-.52-.689-.957-1.455-1.524-2.107-.236-.268-.568-.447-.849-.362a17.376 17.376 0 00-.398-1.746c-.146-.55-.447-1.063-.68-1.582-.291-.647-.818-1.132-1.21-1.712-.202-.297-.444-.568-.665-.85-.254-.325-.511-.664-.794-.964-1.015-1.076-2.24-1.949-3.488-2.733-.404-.252-.824-.47-1.223-.728-.17-.11-.404-.395-.626-.384-.228.01-.207.237-.25.413-.123.496-.161 1-.232 1.507-.037.271-.08.543-.119.813-.171-.754-.473-1.505-.8-2.173-.394-.815-.658-1.672-1.303-2.342-.401-.418-.735-.837-1.266-1.097l-.415-.247-.293.254c-.243.21-.506.37-.727.607-.212.228-.42.449-.615.688-.036-.34-.084-.681-.157-1.03-.06-.285-.086-.57-.204-.837a25.705 25.705 0 01-.345-.799c-.086-.212-.114-.319-.34-.317l-.343.04c-.292.027-.624.132-.896.235-.45.172-.882.337-1.318.547-.67.32-1.34.64-2.011.953-.448.208-.926.344-1.368.563a5.464 5.464 0 00-.7.424c.138-.41.202-.831.25-1.266.023-.214-.017-.866-.27-.965l-.397.06c-.297.085-.596.173-.898.251-.81.207-1.608.379-2.396.677-.661.25-1.296.622-1.886 1.006-.648.42-1.234.983-1.829 1.474-.732.6-1.398 1.296-2.04 1.986l-.329.38c-.252.09-.502.18-.752.267-.469.161-.947.299-1.385.536-.252.136-.453.322-.69.478-.283.185-.591.315-.887.476-.276.152-.515.35-.778.52-.412.27-.766.605-1.155.904-.436.33-.816.722-1.181 1.124-.288.314-.633.565-.907.891-.18.214-.336.45-.517.663-.312.37-.551.788-.81 1.195l-.095.16-.044-.067.04-.093-.065.058-.258-.36c-.093-.127-.544-.72-.76-.725-.185-.003-.291.241-.386.363-.163.21-.35.365-.493.594-.268.423-.633.771-.918 1.184-.294.431-.498.916-.8 1.347-.587.844-1.22 1.592-1.46 2.617-.244 1.036-.503 2.07-.763 3.104-.303 1.21-.405 2.44-.441 3.686-.026.85.113 1.7.226 2.551l-.095-.096c-.2-.21-.4-.422-.611-.621l-.26-.214-.197.27c-.199.63-.354 1.326-.476 1.974-.166.91-.164 1.798-.044 2.713.084.623.188 1.242.263 1.867.058.473.088.947.245 1.4.175.505.31 1.074.549 1.554.097.192.212.367.338.54-.046.26-.064.523-.12.782-.054.244-.138.478-.167.73-.07.615.007 1.173.062 1.785.059.672.104 1.322.376 1.943.217.504.5.953.763 1.431.252.464.524.922.823 1.358.228.332.435.634.765.873.354.255.714.657.978 1.002.384.505.898.787 1.431 1.108.858.51 1.784 1.034 2.742 1.325.407.125.767.297 1 .667.2.317.394.64.588.962.11.18.166.378.274.557.09.152.162.265.191.439.064.37.115.764.115 1.146 0 .411-.098.799-.195 1.193-.099.393-.168.808-.29 1.194-.122.387-2.32 6.613-.92 8.656 1.312 1.918 5.802 2.39 7.881 2.575 3.324.296 4.164-.735 5.266-3.564.65-1.66.973-3.603 1.796-5.16.761-1.439 1.689-1.703 2.773-2.36.199.043.4.083.591.13.285.07.544.092.836.101.261.007.511.06.772.053.519-.018 1.028-.123 1.546-.118.548.007 1.079-.19 1.605-.304.304-.067.617-.122.916-.216.272-.085.526-.226.8-.315.549-.174 1.08-.351 1.582-.635.28-.158.567-.265.827-.46.22-.165.414-.388.615-.58.368-.357.686-.735 1-1.14.199-.256.433-.477.624-.74.163-.222.32-.452.484-.675.314-.43.648-.846.967-1.275l.418-.078c.46-.152.938-.205 1.408-.328.697-.18 1.389-.4 2.068-.644.29-.104.576-.212.86-.341.299-.136.525-.342.813-.496.568-.308 1.101-.77 1.572-1.214.43-.405.86-.829 1.248-1.276.395-.455.802-.942 1.077-1.482.292-.572.656-1.106.94-1.68.152-.3.256-.614.365-.933z" fill="#196654"/><path fill="#17493A" d="M484.491 375.497l.009-.006.009.018-.018-.012M505.962 368.1c.002-.012.038-.496.038-1.149-.002-.575-.027-1.276-.143-1.93a4.252 4.252 0 00-.264-.942c-.132-.293-.309-.595-.655-.82l-.084-.054-.095-.03c-.06-.02-.87-.274-2.2-.274-2.47-.01-6.737.922-11.035 5.762l.348.29v-.44l-.348.149.348.29v-.44.448l.31-.332-.31-.116v.448l.31-.332-.327.349h.487l-.16-.349-.327.349h.487-.466l.457.088.01-.088h-.467l.457.088.002-.013c.24-1.272.573-3.43.573-5.732-.014-2.79-.452-5.833-2.405-7.775l-.333-.327-.451.142c-.078.03-6.014 1.899-10.585 7.726l.144.107v-.172l-.144.065.144.107v-.172.168l.116-.126-.116-.042v.168l.116-.126-.129.14.198-.005-.069-.135-.129.14.198-.005c-.069-1.812-.276-4.715-.931-7.338-.33-1.313-.767-2.557-1.392-3.582-.618-1.013-1.462-1.852-2.621-2.149l-.508-.129-.309.411c-.019.037-3.842 5.095-5.153 9.335l.001-.004.518.151v-.516a.542.542 0 00-.518.365l.518.151v-.516.527l.491-.238a.563.563 0 00-.49-.29v.528l.49-.238c-.354-.684-1.02-1.89-1.871-2.962-.428-.538-.902-1.045-1.437-1.443-.533-.393-1.15-.697-1.866-.7-.31 0-.632.064-.931.195a.736.736 0 00-.386.984.78.78 0 001.018.372l.299-.062c.225-.004.554.112.933.394 1.153.833 2.39 2.938 2.865 3.888.16.328.537.543.885.534a.998.998 0 00.952-.691l.002-.005c.58-1.906 1.816-4.153 2.905-5.895a48.468 48.468 0 012.018-2.988l-.62-.44-.196.722c.609.15 1.18.637 1.688 1.469.764 1.237 1.291 3.146 1.609 5.06.322 1.915.451 3.837.5 5.154.01.366.19.71.446.925.255.22.575.332.906.332.389.005.815-.177 1.082-.524 2.132-2.724 4.605-4.534 6.543-5.659a21.7 21.7 0 012.387-1.202c.294-.125.526-.213.682-.27l.173-.061.052-.017-.24-.708-.547.524c1.451 1.382 1.973 4.092 1.96 6.728 0 2.164-.317 4.25-.547 5.465l.756.135-.754-.146-.021.203c-.002.295.14.579.343.752.201.177.453.271.725.271.287.005.61-.127.815-.363 4.053-4.533 7.78-5.237 9.873-5.246.561 0 1.005.053 1.3.105l.33.07.074.018.013.004.063-.19-.067.19h.004l.063-.19-.067.19.244-.706-.42.623.05-.076-.066.065.015.01.052-.075-.067.065c.029-.004.215.383.278.875.078.496.103 1.09.103 1.582 0 .3-.008.564-.017.75-.008.186-.018.29-.016.291a.75.75 0 00.71.797.762.762 0 00.823-.69"/><path d="M465.683 345.437l.038.003c.262.029 1.703.238 3.273 1.424 1.568 1.19 3.307 3.34 4.197 7.442l1.432-.19v-.062c-.002-.454.057-3.203 1.249-6.243 1.2-3.048 3.475-6.366 8.003-8.179l-.259-.711-.592.438.032.05c.365.558 3.503 5.685 3.496 12.406 0 1.949-.26 4.03-.92 6.192-.124.4.086.827.468.957.38.128.787-.093.911-.492.71-2.321.989-4.567.989-6.657-.009-7.702-3.752-13.263-3.79-13.331l-.325-.484-.525.21c-4.955 1.972-7.539 5.705-8.829 9.023-1.297 3.32-1.356 6.244-1.358 6.82v.106l.725-.023.707-.167c-1.01-4.709-3.183-7.28-5.132-8.604-1.949-1.33-3.625-1.44-3.706-1.446-.4-.024-.742.296-.766.716-.023.417.282.777.682.802" fill="#17493A"/><path d="M488.342 354.729l.06-.072c.33-.384 1.963-2.2 4.463-3.91 2.501-1.712 5.854-3.298 9.625-3.324l-.006-.71-.686.291.067.15c.32.724 1.638 3.995 1.634 7.68-.001 2.708-.693 5.599-2.92 7.985a.687.687 0 00.066 1.004c.31.259.785.23 1.06-.063 2.536-2.717 3.299-6.002 3.295-8.926-.006-4.568-1.811-8.361-1.83-8.412l-.2-.422-.491.004c-4.5.036-8.32 2.02-11.012 3.958-2.694 1.941-4.282 3.861-4.308 3.891a.686.686 0 00.128.997c.328.243.8.188 1.055-.121" fill="#17493A"/><path d="M517.443 352.128c-.046-.01-.559-.128-1.43-.128-2.692-.014-8.805 1.173-14.876 9.83a.748.748 0 00.162 1.03.707.707 0 001.005-.166c5.866-8.312 11.409-9.203 13.709-9.217.372 0 .659.024.848.05l.208.03.045.01h.003a.721.721 0 00.864-.553.741.741 0 00-.538-.886M471.234 330.304l.251.249a27.21 27.21 0 013.355 4.243c1.315 2.065 2.448 4.607 2.443 7.057 0 .73-.1 1.456-.318 2.168-.126.41.142.836.599.951.457.113.928-.128 1.056-.538.263-.859.38-1.724.38-2.582-.008-3.286-1.661-6.405-3.274-8.733-1.617-2.323-3.219-3.852-3.245-3.877a.927.927 0 00-1.213-.03.72.72 0 00-.034 1.092M482.107 324.124l.144.26c.678 1.208 3.402 6.55 3.389 11.518 0 1.42-.218 2.804-.742 4.065-.153.37 0 .804.342.969.344.165.747 0 .9-.37.62-1.49.86-3.085.86-4.664-.019-6.294-3.725-12.505-3.744-12.562-.2-.34-.622-.443-.939-.227-.318.216-.413.67-.21 1.011" fill="#17493A"/><path d="M518.957 343.935c-.185.07-4.134 1.789-8.363 10.402l.68.33.705.275c.004-.01.91-2.321 1.82-5.216.91-2.906 1.833-6.353 1.84-8.809-.001-.691-.07-1.313-.279-1.864l-.181-.474-.508-.011-.079-.002c-.912.002-9.774.207-16.896 8.355l.57.495.638.405c.03-.061 3.543-5.528 3.554-12.337.002-3.203-.798-6.715-3.138-10.01l-.337-.474-.547.204c-.092.037-10.025 3.759-14.39 15.689a.756.756 0 001.422.515c2.064-5.653 5.45-9.349 8.323-11.644a24.443 24.443 0 013.685-2.44c.47-.253.851-.432 1.11-.546l.292-.127.09-.036-.266-.706-.619.437c2.138 3.013 2.86 6.178 2.861 9.138.002 3.14-.828 6.038-1.663 8.143a25.199 25.199 0 01-1.147 2.493c-.156.293-.285.52-.373.67l-.103.17-.03.05 1.209.9c6.682-7.663 15.049-7.835 15.755-7.835h.043l.02-.753-.709.267c.11.282.182.749.18 1.328.007 2.095-.873 5.524-1.77 8.357a88.63 88.63 0 01-1.23 3.629c-.335.926-.556 1.488-.556 1.49l1.383.607c2.053-4.178 3.998-6.613 5.4-7.995.703-.69 1.27-1.119 1.65-1.369.189-.125.333-.205.423-.254l.094-.046.016-.008-.105-.237.1.239.005-.002-.105-.237.1.239a.754.754 0 10-.573-1.395M490.398 317.936v.003c.01.051.039.24.039.57-.002 1.474-.578 5.822-6.281 13.27a.751.751 0 00.159 1.07.794.794 0 001.092-.155c5.844-7.63 6.593-12.309 6.593-14.184 0-.56-.066-.865-.08-.92a.784.784 0 00-.938-.57.764.764 0 00-.584.916" fill="#17493A"/><path d="M498.277 319.06l.184-.14-.196.128.012.011.184-.14-.196.129c.018.026.322.411.323 1.311.002 1.065-.442 2.887-2.467 5.631-.218.297-.134.699.19.899.322.2.76.123.98-.173 2.13-2.887 2.709-4.956 2.709-6.357.003-1.35-.552-2.038-.638-2.126a.751.751 0 00-.994-.083.609.609 0 00-.09.91M514.144 333.005c-.192.009-5.016.644-10.018 7.87a.704.704 0 00.22 1.006.8.8 0 001.066-.208c2.394-3.45 4.674-5.252 6.323-6.198a9.828 9.828 0 011.945-.873 5.64 5.64 0 01.506-.131l.116-.022.021-.002-.03-.197.025.197h.005l-.03-.197.025.197c.422-.044.725-.404.677-.803-.047-.398-.428-.686-.85-.639" fill="#17493A"/><path d="M502.122 331.118l4.888-4.638-.447-.546-.4.588.176-.26-.18.254.004.006.176-.26-.18.254c.006.022 2.415 1.973 2.489 8.763.003.402.31.725.683.721.373-.004.672-.334.669-.736-.055-7.4-2.883-9.811-3.037-9.916l-.438-.348-5.296 5.023a.77.77 0 00-.06 1.028.642.642 0 00.953.067" fill="#17493A"/><path d="M504.083 321.439c-.028.054-1.076 1.727-1.083 3.864 0 .335.025.683.09 1.039.074.416.58.707 1.13.651.55-.056.935-.44.86-.856a4.744 4.744 0 01-.071-.834c0-.873.226-1.695.455-2.287.115-.298.23-.539.311-.7l.1-.183.03-.05c.236-.38.017-.834-.486-1.011-.502-.179-1.1-.013-1.336.367" fill="#17493A"/><path d="M469.864 378h38.272c8.76 0 15.864-7.103 15.864-15.867V357h-70v5.133c0 8.764 7.102 15.867 15.864 15.867" fill="#4E321D"/><path d="M211 312c.108 2.832.476 5.337 1.053 7.534 4.359 16.541 26.836 19.797 35.49 5.065 2.232-3.799 3.224-8.169 3.457-12.599h-40" fill="#AB4735"/><path d="M215.34 283.921l-.008.917 29.716.235.007-.916-.847.383c0 .002.088.188.248.555 1.132 2.566 5.689 13.722 5.679 24.83 0 5.049-.933 10.063-3.476 14.283-3.682 6.106-9.863 8.952-16.096 8.96-4.058 0-8.117-1.224-11.448-3.557-3.333-2.336-5.944-5.767-7.156-10.244-.687-2.546-1.094-5.525-1.094-9.012 0-6.681 1.497-15.233 5.356-26.132l-.882-.302-.007.917.007-.917-.88-.3c-3.909 11.04-5.457 19.782-5.459 26.734 0 3.628.424 6.766 1.157 9.483 1.319 4.892 4.21 8.703 7.876 11.266 3.665 2.564 8.094 3.896 12.53 3.896 6.803.007 13.675-3.163 17.701-9.86 2.77-4.605 3.736-9.95 3.736-15.214-.011-13.234-6.078-26.091-6.099-26.153l-.248-.527-30.974-.246-.22.62.88.301" fill="#000105"/><path fill="#000105" d="M230.012 378h.976v-44h-.976z"/><path fill="#000105" d="M217 376.988h25v-.976h-25z"/><path fill="#B4706A" d="M0 386h600v-12H0z"/></g></svg>