<svg width="600" height="392" xmlns="http://www.w3.org/2000/svg"><g fill="none" fill-rule="evenodd"><path d="M522.286 380H66.17c-11.38-11.1-21.274-26.31-17.258-42.05 5.296-20.752 31.604-28.298 35.919-49.329 4.24-20.674-15.594-38.653-16.145-59.852-.355-13.628 7.723-26.264 18.152-33.39 10.431-7.126 22.888-9.564 35.09-10.582 4.852-.405 9.72-.607 14.585-.607 11.745 0 23.489 1.178 35.042 3.522 15.697 3.186 31.408 8.538 47.21 8.538 2.786 0 5.572-.165 8.363-.539 7.366-.984 14.725-3.51 20.607-8.549 7.777-6.66 12.256-17.014 15.424-27.36 8.72-28.48 9.836-60.296 24.27-85.732 16.61-29.268 48.6-44.07 79.913-44.07 3.878 0 7.744.227 11.568.682 34.724 4.124 66.417 24.12 94.103 47.838 27.05 23.167 52.202 51.765 62.628 87.964 10.425 36.203 2.316 81.095-26.059 102.202-7.06 5.252-16.157 10.791-16.187 20.253-.011 3.236 1.144 6.322 2.316 9.285 8.326 21.036 18.596 41.319 23.789 63.572A118.944 118.944 0 01522.286 380" fill="#E8FAF8"/><path d="M339.582 143l58.724-2.266s9.471-40.769-7.103-49.829c-16.577-9.06-1.896-52.095-44.99-62.514-.77-.186-1.535-.36-2.294-.518-35.566-7.405-61.391 33.867-40.339 63.854L339.582 143" fill="#D69B60"/><path d="M289.573 67.57c2.936-18.6 21.395-49.707 54.195-30.563 10.315 6.022 14.715 17.006 16.81 28.413 1.463 7.958-1.35 86.133-1.35 86.133-2.772 31.328-49.662 38.76-51.272.618l1.928-26.115c-23.759-7.66-23.604-37.6-20.311-58.485" fill="#E1C0AC"/><path d="M310.324 125.113S323.725 129.548 349 114c0 0-14.287 20.587-40 29l1.324-17.887" fill="#A16E68"/><path d="M352 91.5c0 7.454-6.044 13.5-13.5 13.5S325 98.954 325 91.5c0-7.456 6.044-13.5 13.5-13.5S352 84.044 352 91.5M304 83.5c0-7.456-6.28-13.5-14.029-13.5-.251 0-.5.007-.75.018-1.222 8.414-1.803 18.03-.415 26.933.383.029.772.049 1.165.049C297.721 97 304 90.956 304 83.5" fill="#E0B69E"/><path d="M375.702 76.023c1.365 5.634-2.091 11.31-7.727 12.679-5.633 1.366-11.31-2.092-12.676-7.726-1.369-5.636 2.09-11.312 7.723-12.677 5.636-1.368 11.312 2.088 12.68 7.724" fill="#E1C0AC"/><path d="M361 81c.106-1.036.579-1.974 1.25-2.799a6.224 6.224 0 012.797-1.952c1.191-.402 2.647-.314 3.714.238 1.115.497 1.823 1.39 2.239 2.326-1.103-.305-1.987-.669-2.852-.744-.844-.092-1.573-.065-2.313.206-1.515.488-2.992 1.594-4.835 2.725M314.867 56c.305 1.463.04 3.003-.34 4.423a21.448 21.448 0 01-1.617 4.087c-.67 1.29-1.391 2.546-2.222 3.716a33.523 33.523 0 01-2.658 3.387l-.147-1.395c2.337 2.148 4.633 4.349 6.754 6.782-2.77-1.576-5.365-3.381-7.922-5.238l-.715-.52.57-.876c1.504-2.314 3.058-4.634 4.51-6.972a62.424 62.424 0 002.104-3.55c.65-1.215 1.297-2.43 1.683-3.844M325.258 61.862c-.059 1.867-.011 3.8.258 5.556.264 1.759.964 3.348 1.913 3.575.834.382 2.293-.492 3.496-1.755 1.208-1.256 2.357-2.786 3.388-4.308l.029-.045a.896.896 0 011.268-.233c.353.252.479.715.326 1.108-.74 1.932-1.682 3.71-3.041 5.343-.684.813-1.47 1.58-2.51 2.196-1.007.59-2.523.981-3.89.452-1.345-.482-2.313-1.665-2.76-2.768-.468-1.12-.65-2.22-.708-3.285-.12-2.135.175-4.136.72-6.122a.772.772 0 01.952-.547.795.795 0 01.561.788l-.002.045M296.445 58.827c-.059 1.71-.068 3.465.073 5.096.086.81.203 1.61.438 2.254.238.678.56.989.73.981.11.063.591-.05 1.138-.52.551-.423 1.076-1.045 1.59-1.68 1.003-1.298 1.97-2.763 2.875-4.209l.02-.034a.921.921 0 011.259-.294.904.904 0 01.39 1.044c-.568 1.774-1.303 3.438-2.358 5.034a11.151 11.151 0 01-1.942 2.291c-.42.349-.896.688-1.518.94-.609.25-1.443.38-2.218.15-.764-.207-1.424-.728-1.814-1.27a4.82 4.82 0 01-.773-1.62c-.284-1.052-.353-2.028-.331-2.981.04-1.907.382-3.692.928-5.466a.777.777 0 01.966-.51c.343.103.559.421.547.76v.034" fill="#000105"/><path d="M309 90.178s1.703-3.877 3.834-1.55c0 0 2.344-3.957 5.112.466 0 0 .851 5.894-4.19 6.827-4.732.873-4.756-5.743-4.756-5.743" fill="#E67E71"/><path d="M306 88.234c1.343.516 2.436 1.122 3.55 1.517 1.1.412 2.116.683 3.083.67.964.004 1.94-.248 3.004-.682 1.059-.443 2.127-1.07 3.363-1.739-.239 1.27-.942 2.435-2.03 3.37-1.053.944-2.645 1.64-4.345 1.63-1.704 0-3.242-.68-4.315-1.572-1.13-.863-1.87-1.982-2.31-3.194" fill="#000105"/><path d="M299 45.595s23.533-2.904 36.722-13.663c0 0 8.512 47.312 23.535 39.114 15.022-8.2-4.173-35.87-4.173-35.87S324.037 11.091 299 45.595" fill="#D69B60"/><path d="M335.407 26s-.153-.033-.408-.084c.48-.031.96-.053 1.443-.1a36.911 36.911 0 00-.99-.305S357.505 15.072 354.82 0c0 0-15.025 1.955-24.181 25.352 0 0-6.398-22.145-21.43-23.75 0 0 .456 7.577 3.77 15.073 3.312 7.498 13.829 8.767 13.829 8.767s-.468.038-1.274.2c.443.055.88.088 1.318.13-8.416.992-21.473 5.846-31.851 24.563 0 0 16.875-26.487 38.24-22.18C354.603 32.462 357.7 70 357.7 70l3.714-1.539S368.226 33.078 335.407 26" fill="#FBF7E8"/><path d="M335.407 26s-.153-.033-.408-.084c.48-.031.96-.053 1.443-.1a36.911 36.911 0 00-.99-.305S357.505 15.072 354.82 0c0 0-15.025 1.955-24.181 25.352 0 0-6.398-22.145-21.43-23.75 0 0 .456 7.577 3.77 15.073 3.312 7.498 13.829 8.767 13.829 8.767s-.468.038-1.274.2c.443.055.88.088 1.318.13-8.416.992-21.473 5.846-31.851 24.563 0 0 16.875-26.487 38.24-22.18C354.603 32.462 357.7 70 357.7 70l3.714-1.539S368.226 33.078 335.407 26" fill="#000"/><path fill="#000413" d="M278.303 312L270 381h163l-45.17-65.294L278.302 312"/><path d="M449.343 189a472.411 472.411 0 00-.194-27.02c-.038-.66-.071-1.314-.107-1.969l-.044.008s-1.898-12.487-2.25-14.332c-.89-4.637-4.748-15.193-4.748-15.193s2.364-2.533 6.563 3.733c4.202 6.267 4.245 3.694 4.245 3.694s1.924-24.45 5.797-25.594c1.45-.425 2.451 4.373 1.728 7.84-.723 3.466-.764 8.293-.764 8.293s4.49-19.234 8.5-19.46c0 0 2.125.125.52 5.987-2.224 8.123-2.921 14.8-2.921 14.8s6.122-16.737 8.131-16.774c3.337-.062-2.83 16.959-2.587 21.548 0 0 4.216-13.175 6.036-11.134 1.742 1.952-3.488 16.275-1.473 30.499.31 1.331.624 2.883.936 4.633l.007-.011s3.795 12.177 6.282 29.893a4479.14 4479.14 0 00-33.657.559M167 241.963L179.404 271 203 256.78 190.02 237 167 241.963" fill="#E1C0AC"/><path d="M485.883 166.196l-48.16.736 3.647 35.323s-56.429-55.17-80.743-46.977l-.988-.018c-4.047 6.544-18.688 10.876-29.284 9.887-15.127-1.413-20.278-7.9-21.742-13.147-.55-.005-1.09.064-1.63.11-4.057.002-28.29 1.539-45.972 36.864-9.021 18.023-29.1 50.683-42.343 71.8-7.373-6.522-14.812-13.108-14.812-13.108L172 268.071c13.607 42.552 47.419 65.552 57.003 69.418 10.378 4.187 33.912-18.218 48.272-36.044l1.389 15.127 108.938 3.753-8.661-83.957c29.406 23.782 96.311 74.251 109.315 52.338 14.752-24.859 11.777-82.202-2.373-122.51" fill="#591431"/><path d="M235.874 274.929c-.821.62-5.002-2.908-10.11-7.17-5.087-4.285-9.296-7.786-8.71-8.606.552-.793 5.907 1.53 11.238 6.016 5.345 4.466 8.379 9.171 7.582 9.76" fill="#000105"/><path fill="#FBF7E8" d="M289.6 199.19l60.753-1.19 5.955 103.602L398 379.008 270 380l8.298-64.452L289.6 199.19"/><path fill="#000" d="M289.6 199.19l60.753-1.19 5.955 103.602L398 379.008 270 380l8.298-64.452L289.6 199.19"/><path d="M349.456 200.999c-1.059-.13-.336-11.237 2.823-24.582 3.13-13.356 7.46-23.712 8.477-23.41 1.067.306-1.526 11.02-4.617 24.21-3.12 13.182-5.58 23.925-6.683 23.782M308.948 146.043c.43.422-1.891 2.899-4.06 7.684-2.25 4.72-4.122 11.885-6.457 19.786-4.598 15.775-8.014 28.681-9.121 28.485-1.068-.184.608-13.548 5.26-29.506 2.34-7.91 4.689-15.188 7.806-20.015 3.041-4.86 6.273-6.8 6.572-6.434M388.823 316.881c-.157-.545 5.024-2.135 12.698-5.946 1.87-.965 3.872-2.108 5.42-3.745a8.676 8.676 0 001.043-1.312c.302-.46.606-1.011.697-1.366.11-.398.002-.432-.01-.454.025-.004-.239-.149-.687-.167a3.969 3.969 0 00-1.46.256c-.48.194-1.155.533-1.72.87-1.181.694-2.352 1.571-3.574 2.521l-7.683 5.923c-.385.297-.769.59-1.124.86l-2.475-2.724a51.385 51.385 0 009.424-14.81l.379-.937c.122-.317.262-.643.304-.804.06-.19.068-.368.071-.335-.024.018.18.392.417.449.29.102.388 0 .268.045-.11.039-.268.114-.5.29-.476.36-.962.694-1.398 1.08-1.795 1.481-3.254 3.156-4.476 4.79-2.435 3.28-4.033 6.294-5.223 8.319-1.178 2.041-1.91 3.145-2.141 3.041-.224-.102.07-1.391.863-3.638.81-2.234 2.067-5.478 4.39-9.196 1.17-1.848 2.648-3.803 4.597-5.6.473-.464 1.009-.878 1.539-1.316a4.916 4.916 0 011.156-.716c.474-.2 1.271-.433 2.18-.065.861.31 1.473 1.316 1.537 2.003.107.703.009 1.208-.097 1.68-.125.502-.258.811-.371 1.146l-.37 1.017a50.467 50.467 0 01-9.833 16.06l-2.473-2.724c.355-.275.739-.568 1.123-.863l7.732-5.87c1.27-.948 2.583-1.904 4.02-2.702.746-.41 1.405-.743 2.303-1.075a7.216 7.216 0 012.83-.38c.958.088 2.196.368 3.09 1.514.869 1.102.827 2.622.48 3.506-.336.946-.758 1.554-1.203 2.186-.446.624-.947 1.18-1.47 1.677-2.11 1.987-4.437 3.07-6.488 3.944-8.233 3.325-13.681 4.006-13.785 3.568" fill="#000105"/><path d="M433.56 341.991c-.303-.12.432-1.542-.006-3.989-.438-2.388-2.491-5.742-6.344-7.975-1.86-1.07-4.327-1.829-6.96-2.333-2.665-.516-5.61-.764-8.784-1.044-3.152-.296-6.617-.588-10.154-1.621-3.49-1.028-7.123-2.653-10.067-5.587-1.527-1.527-2.748-3.399-3.446-5.34l-.186-.523.146-.637c.21-.914 1.135-1.879 2.033-2.112.886-.278 1.645-.193 2.314-.01a4.42 4.42 0 011.823 1.047c.535.503 1.01 1.277 1.11 2.171.168 1.657-.67 2.944-1.614 3.725-.955.785-2.036 1.16-3.15 1.273-2.415.156-4.086-.973-5.41-1.914-1.308-.996-2.348-1.9-3.478-2.802-4.4-3.603-8.4-6.628-12.004-8.72-7.207-4.237-12.492-4.787-12.381-5.39.022-.204 1.36-.348 3.758.003 2.393.334 5.847 1.25 9.801 3.168 3.958 1.903 8.305 4.84 12.872 8.314 2.27 1.642 4.782 4.046 6.494 3.77.436-.048.905-.242 1.172-.488l.263-.328.04-.131.004-.067.002-.01.002-.003c-.052-.004.44.015.232.007l.006.002h.024l-.176.074-.103.019-.3-.16-.145-.02-.024-.018-.07-.313c-.139-.42-.314-.293.175-.14l.259-1.074c.53 1.425 1.424 2.797 2.607 3.985 2.274 2.283 5.36 3.76 8.457 4.71 3.1.96 6.32 1.32 9.472 1.708 6.272.69 12.352 1.64 16.786 4.562 4.336 2.94 6.336 7.116 6.39 10.068.006 3.027-1.32 4.27-1.44 4.143M448.839 239.99c-.791.364-5.332-8.877-7.51-21.324-2.239-12.442-1.16-22.723-.294-22.666.964.015 1.381 10.018 3.554 22.061 2.102 12.05 5.147 21.566 4.25 21.929" fill="#000105"/><path d="M325.667 249.933c-3.097 8.192-2.244 20.134-6.952 22.162-4.706 2.028-5.132-9.468-6.843-13.675-1.713-4.208-8.451-9.945-15.724-9.472-7.274.474-11.23 9.472-12.515 18.93-.475 3.495-7.699 6.676-8.128-4.733-.18-4.81-6.682-12.572-10.267-8.055-5.027 6.333-.394 17.742-6.952 20.927-5.776 2.805-5.884-13.39-5.884-20.927 0-3.612-2.643-6.22-5.402-8.024V300h83v-56c-1.748 1.272-3.29 3.178-4.333 5.933" fill="#EAC5C3"/><path d="M247 228v18.476c2.76 1.757 5.402 4.299 5.402 7.818 0 7.344.108 23.124 5.884 20.392 6.558-3.105 1.925-14.221 6.952-20.392 3.585-4.402 10.087 3.161 10.267 7.849.43 11.116 7.653 8.018 8.128 4.612 1.285-9.217 5.24-17.984 12.515-18.446 7.273-.46 14.01 5.13 15.724 9.23 1.71 4.099 2.137 15.3 6.843 13.325 4.708-1.976 3.855-13.612 6.952-21.595 1.043-2.684 2.585-4.542 4.333-5.781V228h-83" fill="#FBF7E8"/><path fill="#C5B397" d="M284 361h8v-62h-8z"/><path fill="#C5B397" d="M260 367h57v-9h-57z"/><path fill="#000105" d="M242 299.919h93v-1.838h-93z"/><path fill="#967647" d="M191 380h194v-13H191z"/><path d="M95.663 224.837a2.513 2.513 0 014.153.622c3.555 7.577 11.02 26.167 13.961 38.065 4.166 16.873 6.96 27.951 6.96 27.951L139 321.786s-12.574 2.447-19.33-9.225c-5.113-8.831-4.802-21.418-4.802-21.418s-9.293-47.125-19.474-63.23a2.55 2.55 0 01.27-3.076" fill="#493A2A"/><path d="M146 380l-4.535-76.823h1.78V297H85.572a26.04 26.04 0 012.223 12.87L82 380h64" fill="#937F7C"/><path d="M107 381l4.09-69.642A26.313 26.313 0 01116.368 297H171a22.125 22.125 0 00-4.1 14.206L171 381h-64" fill="#C2C0B1"/><path d="M409 361.88c0-8.35 6.716-24.88 15-24.88 8.284 0 15 16.53 15 24.88 0 8.351-6.716 15.12-15 15.12-8.284 0-15-6.769-15-15.12M445 361.88c0-8.35 6.716-24.88 15-24.88 8.284 0 15 16.53 15 24.88 0 8.351-6.716 15.12-15 15.12-8.284 0-15-6.769-15-15.12M482 361.88c0-8.35 6.716-24.88 15-24.88 8.283 0 15 16.53 15 24.88 0 8.351-6.717 15.12-15 15.12-8.284 0-15-6.769-15-15.12" fill="#B97C4A"/><path d="M512.28 358H408.748a4.714 4.714 0 00-4.72 4.712c0 1.624-.023 3.247-.027 4.867-.001.781.002 1.562.015 2.34.028 1.681 1.968 1.092 3.066 1.092 1.335 0 2.493.916 2.8 2.21a8.815 8.815 0 008.58 6.779h12.74a8.817 8.817 0 008.582-6.778 2.877 2.877 0 012.8-2.21h.182c1.331 0 2.492.915 2.797 2.21a8.818 8.818 0 008.582 6.778h12.738a8.815 8.815 0 008.582-6.778 2.877 2.877 0 012.799-2.21h.183c1.332 0 2.491.915 2.799 2.21a8.817 8.817 0 008.581 6.778h12.74a8.818 8.818 0 008.58-6.778 2.877 2.877 0 012.797-2.21c.738 0 1.745.016 2.475.003.337-.007.582.016.575-.386-.011-.84.007-2.658.007-3.545v-4.372a4.714 4.714 0 00-4.72-4.712" fill="#CE8269"/><path d="M408.765 368c34.485-.989 68.985-.134 103.468-1.125 1.02-.028 1.024-1.905 0-1.875-34.483.99-68.983.137-103.468 1.125-1.018.03-1.022 1.905 0 1.875" fill="#FFFFFE"/><path d="M198 239.862s44.236 27.93 61.186 38.045a20.682 20.682 0 003.233 1.592c8.103 3.09 13.438-8.925 6.1-13.623L206.222 226 198 239.862" fill="#FBF7E8"/><path d="M206 226.536L197.768 240s-23.528-15.94-36.51-29.523c-3.546-3.71 1.084-10.539 5.474-7.876 12.917 7.838 27.874 17.35 39.268 23.935" fill="#12152C"/><path d="M169.621 246.905c-2.842-2.987-9.647-14.64-9.621-19.446.013-2.129.6-4.252 1.872-5.951.387-.513.824-.97 1.31-1.274l15.937-9.974c1.014-.635 2.382-.05 2.566 1.14.205 1.318-.604 3.75-1.759 4.945-2.316 2.391-8.83 5.553-8.83 5.553l17.681-3.28c.48-.095.81.483.886.972.18 1.188-4.335 3.819-12.531 7.154l15.604-3.563a1.05 1.05 0 011.256 1.164c-.117.978-2.193 2.46-3.777 3.56-2.93 2.038-7.683 3.491-7.683 3.491s7.052 3.986 6.857 6.763c-.196 2.774-1.34 9.796-1.34 9.796L172.02 251l-2.398-4.095" fill="#E1C0AC"/><path d="M174 230.621c-.055-.433 2.808-1.063 6.397-1.405 3.59-.343 6.546-.27 6.602.164.058.432-2.805 1.062-6.396 1.404-3.588.343-6.546.269-6.602-.163" fill="#000105"/><path fill="#7BB0AC" d="M0 392h600v-12H0z"/></g></svg>