<svg width="600" height="366" xmlns="http://www.w3.org/2000/svg"><g fill="none" fill-rule="evenodd"><path d="M500.42 366H22.053c-11.93-11.574-22.31-27.437-18.097-43.852 5.554-21.64 33.147-29.51 37.672-51.444 4.447-21.558-16.357-40.308-16.934-62.415-.373-14.214 8.1-27.392 19.037-34.821 10.94-7.432 24.005-9.974 36.8-11.038a184.971 184.971 0 0115.296-.633c12.319 0 24.635 1.23 36.756 3.675 16.46 3.323 32.938 8.904 49.511 8.904 2.922 0 5.843-.172 8.773-.562 7.723-1.028 15.441-3.661 21.61-8.915 8.158-6.946 12.854-17.744 16.176-28.533 9.147-29.704 10.318-62.882 25.455-89.407C271.528 16.435 305.08 1 337.921 1c4.065 0 8.117.236 12.13.71 36.42 4.3 69.656 25.153 98.696 49.887 28.366 24.163 54.746 53.986 65.68 91.74 10.934 37.75 2.43 84.568-27.33 106.58-7.405 5.477-16.947 11.252-16.976 21.119-.012 3.376 1.2 6.592 2.429 9.682 8.731 21.94 19.505 43.093 24.948 66.3A123.13 123.13 0 01500.42 366zM67.556 342.771h55.903v-108.07H67.556v108.07z" fill="#F3DFAA"/><path d="M510.753 175.282c-13.51 10.621-31.24 18.755-47.737 24.718-4.745-18.076-8.914-36.263-12.016-54.633 12.893-2.68 26.974-7.541 40.245-16.642 20.164-13.83 47.001-64.91 53.717-78.12.34-.693.675-1.385 1.013-2.074l-.05-.02s5.204-13.87 5.9-15.962c1.75-5.254 3.888-18.251 3.888-18.251s3.81-1.265 4.457 7.525c.643 8.794 2.149 6.18 2.149 6.18S578.16 4.018 582.695 5.03c1.693.38-.035 5.864-2.731 9.01-2.697 3.148-5.486 8.074-5.486 8.074s15.446-17.19 19.594-15.16c0 0 2.058 1.323-2.885 6.43-6.853 7.076-11.349 13.527-11.349 13.527s15.659-13.708 17.692-12.614c3.38 1.816-12.484 15.79-14.854 20.631 0 0 11.723-11.13 12.387-8.01.633 2.981-12.758 14.721-18.832 30.439a111.118 111.118 0 01-1.701 5.277l.015-.008s-16.029 75.113-63.792 112.655" fill="#F1B18F"/><path d="M561 29c1.868 1.45 3.485 3.16 4.92 5.034a22.943 22.943 0 011.955 3.005c.543 1.087 1.115 2.205 1.234 3.656l-1.845-.702c.946-.8 1.858-1.315 2.933-1.668 1.047-.356 2.166-.529 3.26-.427 1.09.088 2.157.359 3.085.86.944.465 1.757 1.12 2.458 1.845-.955-.356-1.86-.713-2.799-.884-.918-.236-1.851-.218-2.732-.17a8.277 8.277 0 00-2.545.67c-.775.352-1.601.853-2.148 1.354L567.226 43l-.295-2.127c-.12-.86-.482-1.907-.968-2.878a40.484 40.484 0 00-1.548-2.968c-1.113-1.978-2.3-3.95-3.415-6.027M392 90.501c0 11.873-8.505 21.499-18.999 21.499C362.507 112 354 102.374 354 90.501S362.507 69 373.001 69C383.495 69 392 78.628 392 90.501" fill="#000105"/><path d="M358.236 98s27.39-22.881 9.962-73.085C356.858-7.748 290.074 85.203 358.236 98" fill="#000105"/><path d="M287.682 42.561c3.133-19.615 22.857-52.413 57.906-32.227 11.02 6.35 15.723 17.932 17.962 29.958 1.561 8.393-1.442 90.822-1.442 90.822-2.963 33.031-53.065 40.87-54.785.65l2.062-27.536c-25.39-8.076-25.224-39.645-21.703-61.667" fill="#F1B18F"/><path d="M309.312 103.878S323.408 108.62 350 92c0 0-14.946 22.004-42 31l1.312-19.122" fill="#96615D"/><path d="M357 70.501C357 78.508 350.508 85 342.5 85S328 78.508 328 70.501C328 62.491 334.492 56 342.5 56S357 62.49 357 70.501M303 58.5c0-8.006-6.674-14.5-14.906-14.5a15.3 15.3 0 00-.795.021c-1.3 9.037-1.918 19.364-.443 28.924.41.034.82.055 1.238.055C296.326 73 303 66.508 303 58.5" fill="#EEA182"/><path d="M379.7 51.024c1.37 5.634-2.089 11.31-7.724 12.677-5.634 1.369-11.31-2.09-12.677-7.723-1.369-5.634 2.09-11.312 7.723-12.679 5.636-1.369 11.312 2.09 12.679 7.725" fill="#F1B18F"/><path d="M366 57c.092-1.038.52-1.976 1.124-2.8a5.62 5.62 0 012.517-1.951c1.073-.402 2.38-.314 3.343.237 1.004.496 1.642 1.39 2.016 2.327-.993-.305-1.79-.669-2.567-.744-.76-.093-1.416-.065-2.083.204-1.363.49-2.693 1.594-4.35 2.727M309 69.238c1.344.513 2.436 1.12 3.55 1.515 1.1.412 2.116.68 3.081.67.966.002 1.94-.248 3.006-.68 1.059-.447 2.125-1.073 3.363-1.743-.237 1.272-.942 2.435-2.03 3.37-1.055.946-2.645 1.642-4.347 1.63-1.704.002-3.242-.68-4.313-1.572-1.13-.862-1.873-1.98-2.31-3.19M311.824 38c.32 1.213.168 2.527-.165 3.74-.329 1.23-.883 2.37-1.518 3.45a22.504 22.504 0 01-4.894 5.665l-.189-1.497c2.12 1.428 4.206 2.914 6.139 4.642-2.497-.822-4.842-1.883-7.151-3.005L303 50.49l.857-.991c.753-.87 1.504-1.81 2.251-2.707.727-.923 1.48-1.82 2.164-2.759 1.393-1.881 2.718-3.705 3.552-6.032M324.258 39.86c-.059 1.868-.011 3.803.26 5.557.262 1.759.962 3.348 1.911 3.577.834.382 2.291-.492 3.498-1.755 1.208-1.258 2.355-2.788 3.386-4.31l.029-.043a.896.896 0 011.268-.234c.353.251.479.716.326 1.11-.74 1.929-1.682 3.708-3.041 5.342-.684.81-1.47 1.579-2.51 2.194-1.007.591-2.523.981-3.89.454-1.345-.482-2.313-1.667-2.76-2.768-.468-1.122-.65-2.221-.708-3.285-.12-2.136.173-4.136.72-6.122a.769.769 0 01.952-.547c.348.1.57.431.56.786v.045M295.223 36.83c-.054 1.708-.06 3.461.066 5.093.077.81.185 1.61.399 2.255.216.676.508.989.663.98.1.062.536-.05 1.035-.52.5-.424.978-1.046 1.446-1.68.911-1.297 1.79-2.764 2.611-4.21l.02-.033c.241-.425.753-.556 1.144-.292.329.221.466.655.355 1.042-.517 1.775-1.185 3.437-2.143 5.035-.475.8-1.029 1.567-1.766 2.289-.381.348-.815.69-1.38.941-.553.249-1.312.381-2.018.15-.694-.208-1.293-.727-1.648-1.27a5.093 5.093 0 01-.703-1.621c-.259-1.05-.32-2.028-.3-2.981.034-1.906.347-3.69.843-5.463.113-.406.506-.635.879-.512.311.105.51.421.499.76l-.002.036M335.983 33.174c-.215 1.327-2.395 2.103-4.87 1.734-2.477-.375-4.307-1.753-4.096-3.08.217-1.33 2.396-2.106 4.873-1.735 2.477.373 4.308 1.75 4.093 3.08M302.907 27.19c.5 1.177-1.065 2.717-3.5 3.439-2.435.723-4.813.357-5.314-.82-.5-1.174 1.068-2.714 3.5-3.438 2.433-.723 4.813-.357 5.314.818" fill="#000105"/><path d="M297 21.432s21.348 4.469 50.239-11.535c0 0-10.44 54.419 17.583 34.861 0 0 3.89-2.886 8.073-1.685l1.105.346s-.636-31.77-24.117-39.621C326.4-4.053 309.81-.457 297 21.432" fill="#000105"/><path fill="#F1B18F" d="M155 182.182L165.557 150 190 158.18 188.89 186 155 182.182"/><path d="M538.05 58s-29.562 59.801-54.914 71.637c-25.291 11.807-90.793-6.044-108.688-5.268l-.002-.03-11.515-.251c-4.253 6.818-19.63 11.33-30.761 10.3-15.888-1.473-21.3-8.229-22.84-13.695l-19.675-1.468-.002.006c-9.61-.838-25.766 1.018-40.68 16.633-5.685 5.953-32.363 36.786-63.45 77.117l7.773-27.56-42.354-5.165c-33.648 64.119-18.78 113.946 1.236 113.946 34.516 0 88.565-51.422 118.231-82.678l7.461 80.566L392.303 296l-10.031-96.446c16.37 2.106 99.55 11.718 128.553-6.225C543.055 173.387 572 87.191 572 87.191L538.05 58" fill="#DE4C2E"/><path d="M176.121 243.998c-.728-.184 1.87-12.843 6.526-28.063 4.638-15.233 9.55-27.184 10.26-26.931.736.26-2.987 12.574-7.606 27.739-4.634 15.153-8.422 27.45-9.18 27.255" fill="#000105"/><path d="M185.317 123c1.949-2.123 7.664-8.597 7.683-11.49.03-5.119-8.356 4.077-12 8.313 1.533 1.015 3.005 2.056 4.317 3.177" fill="#E38D6C"/><path d="M148.378 83.397c1.224-2.647 4.769-3.228 6.785-1.107 9.299 9.786 30.153 34.41 40.633 51.083a10748.987 10748.987 0 0024.704 39.143l43.5 37.138s-18.395 9.956-34.717-4.479c-12.35-10.923-18.1-30.26-18.1-30.26s-37.842-67.2-61.702-86.696a4.019 4.019 0 01-1.103-4.822" fill="#493A2A"/><path d="M165.994 166.428c-2.67-10.578-2.863-27.725-2.991-34.125-.114-5.658 3.61-8.107 6.01-9.47 9.92-5.636 30.073-9.714 30.825-6.941.62 2.282-16.784 7.834-16.784 7.834s21.653-3.51 17.39 1.348c-2.27 2.59-14.442 3.6-14.442 3.6s13.215 1.378 12.205 3.288c-1.79 3.388-12.664 2.918-12.664 2.918s5.23 4.335 6.751 15.296C193.398 158.14 176.813 174 176.813 174l-10.819-7.572" fill="#F1B18F"/><path d="M175.005 137.577c-.121-.587 2.117-1.78 5.014-2.066 1.432-.167 2.725-.099 3.514-.183.782-.024 1.11-.42 1.369-.308.102.061.15.312.015.712-.136.41-.533.838-1.033 1.122-1.012.57-2.312.726-3.709.9-2.782.272-5.048.443-5.17-.177M472.376 160c-.827.024-1.325-6.236-4.471-13.033-3.05-6.849-7.408-11.282-6.858-11.911.238-.279 1.684.481 3.576 2.295 1.89 1.8 4.144 4.73 5.824 8.415 1.67 3.687 2.401 7.336 2.526 9.97.13 2.643-.234 4.26-.597 4.264M486.936 146.942c-.586.544-4.469-2.855-9.876-5.988-5.377-3.186-10.245-4.913-10.055-5.688.13-.715 5.66-.111 11.458 3.307 5.816 3.384 9.038 7.91 8.473 8.37M395.29 299.274c.203-.182 1.66 1.183 4.456 3.441 2.8 2.237 7.01 5.36 12.819 8.159 2.832 1.35 6.235 2.643 9.428 1.906 1.473-.355 2.983-1.358 3.809-2.699.867-1.337.859-2.844-.049-4.09-.903-1.236-2.744-2.14-4.777-2.67-2.003-.533-4.404-.792-6.742-1.054a79.437 79.437 0 00-14.73-.11l-.046-3.9a134.252 134.252 0 0019.99-.381c2.8-.286 5.621-.571 8.15-1.098 2.524-.546 4.831-1.413 6.458-2.878 1.531-1.308 2.38-3.503 2.23-5.38-.154-1.921-1.243-3.14-3.176-3.66-.95-.266-2.035-.4-3.164-.452-1.122-.061-2.226-.126-3.316-.086-4.36.036-8.41.796-11.97 1.892-7.148 2.214-12.32 5.654-15.556 8.316-3.26 2.673-4.83 4.468-5.086 4.265-.18-.128.974-2.262 4.031-5.397 3.028-3.112 8.203-7.117 15.707-9.829 3.738-1.344 8.052-2.33 12.775-2.52 1.18-.079 2.38-.046 3.605-.014 1.209.029 2.513.129 3.899.473 1.368.349 2.886 1.023 4.019 2.28 1.129 1.229 1.78 2.842 1.906 4.402.276 3.12-.894 6.263-3.327 8.498-2.328 2.137-5.323 3.218-8.18 3.865-2.904.628-5.716.92-8.616 1.231a128.978 128.978 0 01-20.618.378l-.047-3.902a79.688 79.688 0 0115.478.28c2.482.324 4.841.594 7.33 1.295 2.394.712 4.945 1.796 6.661 4.167a6.893 6.893 0 011.238 4.05c-.019 1.443-.565 2.751-1.273 3.814-1.455 2.128-3.62 3.434-5.943 3.926-2.28.443-4.437.123-6.31-.435-1.88-.565-3.518-1.363-5.007-2.171-5.92-3.249-10.009-6.81-12.572-9.429-2.562-2.641-3.658-4.334-3.485-4.483" fill="#000105"/><path fill="#967647" d="M276.66 288L268 361h170l-47.113-69.079L276.66 288"/><path fill="#FBF7E8" d="M278.607 288l113.86 3.567 4.533 8.46-44.978.704L374.337 361 270 360.969 278.607 288"/><path fill="#000" d="M278.607 288l113.86 3.567 4.533 8.46-44.978.704L374.337 361 270 360.969 278.607 288"/><path fill="#000105" d="M167 361h204v-13H167zM279.72 97.005c.073.06-.236.642-.888 1.688-.345.539-.754 1.173-1.23 1.907-.462.767-.928 1.695-1.497 2.706a56.112 56.112 0 00-6.06 18.548c-1.088 8.14-.817 18.32 3.227 28.444 1.973 5.065 4.905 9.94 8.724 14.455 3.803 4.509 8.443 9.095 11.316 15.196 2.848 6.006 4.2 12.588 3.51 18.949-.364 3.161-1.302 6.276-2.993 8.941-1.665 2.7-4.18 4.702-6.685 6.074-2.524 1.4-5.07 2.368-7.416 3.413a56.776 56.776 0 00-6.596 3.446 57.454 57.454 0 00-10.542 8.239c-2.89 2.87-5.018 5.958-5.805 9.025-.856 3.051-.122 5.853.978 7.77 1.102 1.952 2.588 2.984 3.652 3.46 1.083.467 1.74.522 1.729.65.004.059-.672.206-1.916-.123-1.219-.336-2.995-1.333-4.37-3.41-1.364-2.005-2.384-5.201-1.565-8.71.737-3.495 2.974-6.942 5.91-10.036a57.313 57.313 0 0110.736-8.826 57.807 57.807 0 016.802-3.713c2.403-1.115 4.876-2.106 7.167-3.417 2.288-1.304 4.324-2.983 5.71-5.266 1.407-2.26 2.223-4.984 2.532-7.827.596-5.7-.664-11.881-3.306-17.424-2.62-5.594-6.984-9.975-10.898-14.65-3.939-4.706-7.043-9.963-9.031-15.285-4.105-10.687-4.165-21.293-2.787-29.682 1.46-8.465 4.555-14.792 7.056-18.788.653-.992 1.201-1.89 1.744-2.62.563-.689 1.05-1.28 1.461-1.783.804-.947 1.257-1.412 1.332-1.35M186.041 279.85c.302-.322 2.34 4.374 5.296 12.363L192 294l-1.903-.326c-5.768-.987-12.868-3.055-20.25-6.292-2.198-.957-4.688-2.29-6.023-4.765-.667-1.202-1.007-2.691-.724-4.119.265-1.425 1.14-2.671 2.23-3.422 1.09-.791 2.36-1.038 3.505-1.076l.852.012.696.063c.468.04.932.08 1.39.117 1.911.14 3.703.672 5.168 1.208a68.389 68.389 0 016.791 2.954c1.662.832 2.465 1.38 2.309 1.497-.154.118-1.133-.04-2.699-.465l-6.992-2.068c-1.482-.4-2.995-.742-4.727-.775l-1.38-.042-.722-.03-.589.026c-.766.064-1.542.253-2.111.716-1.188.872-1.504 2.543-.605 4.038.858 1.56 2.66 2.631 4.742 3.523 7.17 3.15 14.116 5.396 19.529 6.695l-1.242 1.461c-2.237-7.565-3.504-12.755-3.204-13.08M319.959 279.853c.3.325-.965 5.514-3.202 13.08l-1.242-1.463c5.405-1.297 12.339-3.539 19.496-6.68.552-.23 1.063-.467 1.508-.71.485-.22.906-.506 1.32-.793.813-.575 1.519-1.251 1.93-2.006.913-1.49.614-3.165-.563-4.049-1.184-.927-2.873-.82-4.65-.563-1.73.245-3.362.609-4.846.955-5.945 1.455-9.609 2.62-9.751 2.23-.13-.343 3.277-2.175 9.22-4.166 1.494-.482 3.144-.974 4.996-1.344.96-.16 1.837-.376 3.048-.34 1.144.047 2.404.32 3.494 1.107 1.084.763 1.944 2.018 2.193 3.446.267 1.429-.084 2.912-.76 4.104-1.342 2.465-3.838 3.777-6.025 4.734-7.373 3.23-14.46 5.294-20.222 6.28L314 294l.663-1.787c2.958-7.987 4.993-12.682 5.296-12.36"/><path d="M298.295 349h-87.59C197.613 349 187 338.225 187 324.932V267h135v57.932C322 338.225 311.387 349 298.295 349" fill="#7BB0AC"/><path fill="#C7E5E2" d="M186 269h137v-3H186z"/><path fill="#97D0C2" d="M68 343h56V235H68z"/><path d="M120 340H72v-71h19.765l-17.732 23.92a1.259 1.259 0 001.001 2.008c.381 0 .758-.174 1.004-.506L94.886 269h5.915l-26.918 35.357a1.263 1.263 0 00.232 1.763 1.245 1.245 0 001.754-.234L103.951 269H120v71M105.132 269H102l14.767-19.507c.247-.323.616-.493.989-.493.264 0 .53.083.755.259.547.421.65 1.21.232 1.763L105.133 269" fill="#A8D7C9"/><path d="M74.236 307a1.21 1.21 0 01-.751-.263 1.308 1.308 0 01-.23-1.792L99.884 269H103l-27.78 37.499c-.244.328-.611.501-.984.501" fill="#AED9CD"/><path d="M96.111 269H93l18.752-25.491a1.245 1.245 0 011.003-.509c.259 0 .52.082.744.25.552.418.665 1.208.255 1.767L96.11 269" fill="#A8D7C9"/><path d="M74.245 295c-.259 0-.521-.081-.743-.25a1.268 1.268 0 01-.255-1.764L90.894 269H94l-18.756 25.492c-.245.334-.62.508-1 .508" fill="#AED9CD"/><path d="M65 261.016s-7.336-14.74-10.177-27.15c-1.662-7.253-9.2-39.466-11.87-35.535-2.67 3.933 2.9 22.373 5.527 30.769 2.116 6.765 9.248 26.976 9.248 26.976s-20.79-40.857-27.107-41.704c-6.318-.846 4.372 14.76 6.516 17.936 7.153 10.61 11.918 17.504 18.203 25.591 0 0-44.098-42.907-48.7-36.554-4.603 6.353 16.771 15.284 26.743 22.656 7.643 5.65 24.16 19.357 24.16 19.357s-2.359-3.966-10.894-9.557c-12.847-8.416-35.226-18.63-36.545-14.298-1.792 5.877 10.734 7.873 21.44 11.99C55.384 260.66 58.14 269 58.14 269l6.86-7.984" fill="#17493A"/><path d="M72.47 261.333s-6.058-8.658-16.06-1.497c-10.004 7.162-3.65 19.966-.572 23.483 3.079 3.517 31.042 32.756 34.783 39.903 3.742 7.147 16.297 26.185 20.368 24.695 4.07-1.49.976-6.447-.689-18.87-1.662-12.42-7.365-26.053-14.777-35.25-7.412-9.198-23.054-32.464-23.054-32.464" fill="#E77933"/><path d="M77.526 269.016c-1.336.203-2.714 1.04-3.85 1.744-1.158.721-2.261 1.526-3.378 2.305-2.1 1.459-4.348 2.884-6.94 3.201-.729.088-1.358.562-1.358 1.364 0 .667.625 1.451 1.357 1.363 2.943-.36 5.46-1.63 7.871-3.306 1.115-.779 2.205-1.593 3.342-2.341a40.39 40.39 0 011.826-1.11c.661-.384 1.393-.66 2.032-1.074 1.174-.757.375-2.339-.902-2.146M87.085 281.01c-.653-.075-1.328.28-1.89.558-.536.266-1.058.55-1.581.84-.977.543-1.955 1.082-2.92 1.641l-6.036 3.491c-1.527.884-.119 3.15 1.41 2.254 2.036-1.188 4.069-2.378 6.102-3.567.967-.565 1.92-1.148 2.876-1.73 1.002-.608 2.504-1.31 2.908-2.421.209-.574-.33-1.004-.87-1.066M96.23 295.154c-1.878 1.103-3.628 2.43-5.416 3.676-.902.63-1.804 1.258-2.704 1.89-.911.645-1.942 1.25-2.724 2.058-1.065 1.097.277 2.727 1.561 2.071.92-.47 1.747-1.205 2.588-1.81.92-.663 1.843-1.319 2.766-1.975 1.81-1.29 3.694-2.525 5.338-4.037 1-.918-.28-2.533-1.41-1.873M106.71 314.032c-.823.204-1.573.843-2.283 1.32-.656.443-1.3.903-1.945 1.36l-1.879 1.333c-.751.532-1.567 1.02-2.247 1.657-.468.44-.448 1.283-.096 1.78.394.558 1.038.65 1.602.35.725-.385 1.394-.98 2.064-1.467l1.92-1.397a86.762 86.762 0 001.862-1.373c.758-.58 1.599-1.11 2.151-1.931.237-.35.15-.922-.079-1.235a.99.99 0 00-1.07-.397" fill="#BD5D2E"/><path d="M129.919 347.82s37.477-37.611 12.492-40.746c-24.985-3.133-37.477 19.851-37.477 19.851s27.068-36.566 3.124-40.745C84.113 282 88.278 352 88.278 352l41.64-4.18" fill="#8BA577"/><path d="M88.696 344.704s11.427-67.74-16.617-65.657c-28.047 2.084-19.737 32.307-19.737 32.307s-9.348-40.644-27.008-30.223c-17.658 10.422 8.31 42.731 8.31 42.731s-35.316-16.677-30.123-2.085C8.716 336.367 38.84 352 38.84 352l49.857-7.296" fill="#135E3C"/><path d="M40.891 362h80.218c11.537 0 20.891-9.402 20.891-21H20c0 11.598 9.352 21 20.891 21" fill="#D8BDB1"/><path d="M60 345.638C60 337.705 66.491 322 74.5 322S89 337.705 89 345.638C89 353.57 82.509 360 74.5 360S60 353.57 60 345.638M95 345.638c0-7.933 6.491-23.638 14.5-23.638 8.007 0 14.5 15.705 14.5 23.638 0 7.932-6.493 14.362-14.5 14.362-8.009 0-14.5-6.43-14.5-14.362M129 345.638c0-7.933 6.491-23.638 14.5-23.638 8.007 0 14.5 15.705 14.5 23.638 0 7.932-6.493 14.362-14.5 14.362-8.009 0-14.5-6.43-14.5-14.362" fill="#E8DACE"/><path d="M158.448 341H58.58c-2.515 0-4.552 2.014-4.552 4.498 0 1.548-.023 3.099-.027 4.648-.001.743.002 1.487.016 2.232.027 1.604 1.898 1.044 2.958 1.044 1.287 0 2.403.873 2.7 2.109.91 3.793 4.336 6.469 8.277 6.469H80.24c3.942 0 7.367-2.676 8.276-6.47a2.768 2.768 0 012.7-2.108h.176c1.287 0 2.405.873 2.7 2.109.909 3.793 4.333 6.469 8.276 6.469h12.29c3.942 0 7.366-2.676 8.276-6.47a2.768 2.768 0 012.7-2.108h.175c1.286 0 2.403.873 2.7 2.109.91 3.793 4.334 6.469 8.277 6.469h12.289c3.943 0 7.367-2.676 8.277-6.47a2.768 2.768 0 012.7-2.108c.709 0 1.68.013 2.383.002.326-.006.565.015.557-.368-.011-.802.008-2.539.008-3.385-.002-1.39-.002-2.783-.002-4.173 0-2.484-2.037-4.498-4.55-4.498" fill="#3F487A"/><path d="M59.737 351c33.17-.99 66.355-.135 99.525-1.126.983-.028.985-1.904 0-1.874-33.17.99-66.354.135-99.525 1.126-.98.028-.985 1.904 0 1.874" fill="#FFFFFE"/><path fill="#D8B954" d="M0 366h600v-12H0z"/></g></svg>