<svg width="267" height="189" xmlns="http://www.w3.org/2000/svg" xmlns:xlink="http://www.w3.org/1999/xlink"><defs><path id="a" d="M-.105.066h58v50h-58z"/></defs><g fill="none" fill-rule="evenodd"><path d="M256.579 188.404H9.829C3.673 182.429-1.68 174.241.493 165.769c2.865-11.171 17.097-15.233 19.431-26.554 2.294-11.129-8.436-20.807-8.734-32.218-.192-7.336 4.178-14.138 9.82-17.974 5.643-3.836 12.382-5.148 18.983-5.696a95.798 95.798 0 0126.847 1.569c8.492 1.715 16.991 4.596 25.54 4.596a34.22 34.22 0 004.524-.29c3.985-.53 7.966-1.89 11.148-4.602 4.207-3.585 6.63-9.159 8.344-14.728 4.717-15.331 5.321-32.457 13.13-46.149C138.511 7.968 155.817 0 172.757 0c2.098 0 4.189.122 6.258.367 18.785 2.22 35.93 12.984 50.908 25.751 14.633 12.471 28.24 27.865 33.88 47.351 5.64 19.488 1.253 43.653-14.097 55.015-3.82 2.827-8.741 5.809-8.757 10.902-.006 1.742.619 3.403 1.253 4.998 4.504 11.324 10.06 22.242 12.869 34.221a63.733 63.733 0 011.508 9.799" fill="#E2D0C8"/><path d="M117.256 110.739c-17.506 4.21-50.662 16.97-62.755 33.609C42.407 160.988 45.281 182 60.644 182h76.402c11.44 0 15.838-23.009 13.223-38.983-2.615-15.973-12.292-37.263-33.013-32.278" fill="#E99639"/><path d="M145.181 104.98s-25.052 12.994-36.076 26.321c-11.02 13.326 9.687 38.983 24.72 37.649 15.03-1.332 20.373-7.996 20.707-22.99.268-11.987-2.605-21.385-.583-26.551 3.589-9.172 7.382-9.318 5.594-14.096-1.67-4.466-3.197-6.768-14.362-.333" fill="#C4772F"/><path d="M151 102.022l7.677 7.978 5.848-4.429s11.148 1.928 12.292-3.695c1.45-7.128-6.21-6.267-6.21-6.267s4.248-7.39-2.289-9.32c-6.538-1.926-7.136 6.31-8.338 8.556-1.58 2.942-8.98 7.177-8.98 7.177" fill="#FFFFFE"/><path d="M35.17 183s-11.633-19.054 0-19.054c11.632 0 8.781 1.505 16.023-4.964 7.24-6.468 7.24 4.964 14.996 4.964 7.755 0 7.755-7.62 15.51-3.81 7.756 3.81 3.878 11.433 11.632 11.433s3.51 9.033 3.51 9.033L35.171 183M131.952 179s-3.809-19.689 3.81-15.752c7.62 3.938 8.604 10.1 15.733-.856 7.127-10.958 18.557-3.08 14.747 4.794-3.81 7.876-3.81 11.814-3.81 11.814h-30.48" fill="#24AC7B"/><path d="M29 178c.625 5.596 5.296 10 10.988 10h120.024c5.692 0 10.363-4.404 10.988-10H29" fill="#000413"/><g transform="translate(162 138)"><mask id="b" fill="#fff"><use xlink:href="#a"/></mask><g mask="url(#b)"><path d="M50.71 36.157c.083-.244.197-.476.284-.719a7.476 7.476 0 00.36-1.584c.07-.605.2-1.21.178-1.821-.012-.296-.003-.595-.02-.89l-.056-.537c-.197.018-.364.16-.527.256-.148.086-.3.138-.442.23l-.236.155c.054-.226.1-.452.123-.684.476-.713.806-1.467 1.125-2.268.26-.653.434-1.433.553-2.13.07-.407.13-.819.17-1.23.048-.483.18-.929.275-1.402.33-1.66.373-3.492-.344-5.054-.183-.398-.32-.816-.504-1.215a5.503 5.503 0 00-.566-.908c-.427-.58-.785-1.226-1.252-1.775-.194-.226-.467-.377-.697-.305-.078-.5-.2-.982-.328-1.472-.12-.464-.367-.896-.559-1.334-.238-.545-.672-.954-.993-1.442-.166-.25-.366-.48-.547-.717-.209-.274-.42-.559-.653-.812-.834-.907-1.84-1.643-2.867-2.304-.331-.212-.676-.396-1.004-.613-.14-.093-.332-.333-.515-.324-.187.01-.17.2-.205.348-.101.418-.133.843-.191 1.27-.03.23-.066.458-.097.685-.141-.634-.389-1.268-.657-1.831-.325-.687-.542-1.409-1.072-1.974-.33-.352-.604-.705-1.04-.925l-.341-.207-.241.214c-.2.177-.416.31-.597.51-.174.193-.345.38-.506.58a9.004 9.004 0 00-.129-.868c-.05-.24-.07-.479-.168-.705a21.962 21.962 0 01-.283-.673c-.071-.178-.093-.269-.28-.267l-.281.034c-.24.022-.513.111-.737.198-.369.145-.724.284-1.083.46-.55.271-1.101.54-1.653.804-.367.175-.76.29-1.123.474a4.47 4.47 0 00-.577.358c.114-.345.167-.701.206-1.067.02-.18-.014-.73-.222-.814l-.325.05c-.245.072-.491.147-.738.213-.666.174-1.322.319-1.97.57-.543.211-1.065.524-1.55.848-.532.354-1.014.828-1.503 1.242-.601.507-1.148 1.093-1.677 1.674l-.27.321c-.207.075-.412.151-.617.224-.386.136-.779.252-1.139.452-.207.115-.372.272-.567.403-.233.156-.486.266-.729.402-.227.128-.423.294-.639.438-.339.227-.63.51-.95.761-.358.278-.67.61-.97.948-.237.264-.52.476-.745.751-.149.18-.276.379-.425.559-.257.311-.453.664-.666 1.007l-.078.134-.036-.056.033-.078-.054.049-.212-.304c-.076-.107-.447-.607-.625-.61-.152-.003-.239.203-.317.305-.133.177-.287.308-.405.5-.22.358-.52.65-.754.999-.242.363-.41.772-.657 1.135-.483.712-1.003 1.342-1.2 2.206-.201.873-.414 1.744-.627 2.616-.249 1.02-.333 2.056-.363 3.106-.021.717.093 1.433.186 2.15l-.078-.08c-.165-.177-.329-.356-.503-.524l-.213-.18-.161.227a15.034 15.034 0 00-.392 1.664 7.444 7.444 0 00-.036 2.287c.069.525.154 1.047.216 1.573.048.399.072.798.201 1.18.144.426.255.905.451 1.31.08.161.174.31.278.454-.038.22-.053.442-.099.66-.044.206-.113.403-.137.615-.057.519.006.989.051 1.505.048.566.086 1.114.31 1.638.178.424.41.802.626 1.205.207.391.431.777.677 1.145.187.28.357.534.628.736.291.215.587.554.804.844.315.426.738.664 1.176.934.705.43 1.466.871 2.253 1.117.335.106.63.25.822.562.165.267.324.539.484.81.09.153.136.32.224.47.075.129.134.223.158.37.052.313.094.644.094.966 0 .346-.08.673-.16 1.006-.081.331-.138.68-.238 1.006-.101.326-1.907 5.574-.757 7.295 1.079 1.617 4.769 2.015 6.477 2.17 2.732.25 3.422-.619 4.328-3.003.534-1.4.8-3.037 1.476-4.348.625-1.214 1.387-1.437 2.278-1.99.164.036.329.07.486.11.235.059.447.077.688.085.214.006.42.05.634.044.426-.015.845-.104 1.27-.1.45.007.887-.16 1.319-.256.25-.056.507-.102.753-.181.224-.072.432-.191.657-.266.451-.146.888-.296 1.3-.536.231-.132.467-.222.68-.387.181-.14.34-.327.505-.489.303-.3.564-.62.822-.961.164-.216.356-.402.513-.623.134-.188.263-.382.398-.57.258-.361.532-.712.795-1.074l.343-.066c.378-.128.771-.172 1.157-.276a19.147 19.147 0 001.7-.543c.238-.087.473-.179.706-.287.246-.115.432-.289.669-.418.466-.26.904-.649 1.291-1.023.354-.342.707-.699 1.026-1.076.324-.383.659-.794.885-1.249.24-.482.539-.932.773-1.416.124-.253.21-.517.3-.786z" fill="#196654"/><path d="M42.808 43.276c.002-.01.03-.41.03-.951a10.05 10.05 0 00-.112-1.598 3.66 3.66 0 00-.209-.78c-.103-.243-.243-.493-.516-.68l-.066-.044-.075-.024c-.046-.017-.685-.227-1.732-.227-1.947-.01-5.309.763-8.696 4.77l.275.24v-.364l-.275.123.275.241v-.364.37l.244-.274-.244-.096v.37l.244-.274-.258.288h.384l-.126-.288-.258.288h.384-.367l.36.074.007-.074h-.367l.36.074.001-.011c.189-1.053.452-2.84.452-4.747-.011-2.31-.356-4.83-1.895-6.438l-.262-.27-.356.117c-.062.025-4.739 1.572-8.34 6.397l.114.089v-.142l-.114.053.114.089v-.142.139l.091-.104-.091-.035v.139l.091-.104-.102.116.157-.005-.055-.111-.102.116.157-.005c-.055-1.5-.218-3.904-.734-6.076-.26-1.087-.605-2.117-1.097-2.966-.487-.84-1.152-1.534-2.065-1.78l-.4-.106-.244.34c-.015.03-3.027 4.219-4.06 7.73l.002-.004.407.126v-.428a.429.429 0 00-.408.302l.409.126v-.428.437l.386-.197a.44.44 0 00-.386-.24v.437l.386-.197c-.278-.566-.803-1.565-1.474-2.453-.338-.446-.711-.865-1.133-1.195-.42-.325-.905-.577-1.47-.58-.244 0-.498.053-.733.162a.621.621 0 00-.305.815.601.601 0 00.803.308l.236-.052c.176-.003.436.093.734.327.91.69 1.883 2.433 2.258 3.219a.78.78 0 00.697.442.791.791 0 00.75-.572l.002-.004c.457-1.579 1.431-3.44 2.289-4.882a40.37 40.37 0 011.119-1.782c.291-.44.471-.692.471-.692l-.489-.363-.155.597c.48.125.93.528 1.331 1.216.602 1.024 1.017 2.606 1.268 4.19.253 1.586.355 3.178.394 4.268.007.303.148.587.351.766a1.057 1.057 0 001.566-.159 18.39 18.39 0 015.155-4.686c.764-.465 1.42-.789 1.881-.995.232-.104.415-.177.537-.224l.137-.05.04-.014-.189-.587-.43.434c1.143 1.145 1.554 3.388 1.544 5.571 0 1.792-.25 3.52-.431 4.526l.596.11-.595-.12-.016.168a.854.854 0 00.27.623.831.831 0 00.571.224.843.843 0 00.642-.3c3.194-3.754 6.131-4.337 7.78-4.344.442 0 .792.044 1.024.087l.26.058.058.015.01.003.05-.157-.052.157h.003l.049-.157-.052.157.192-.584-.332.515.04-.062-.052.053.012.01.04-.063-.052.053c.023-.003.17.318.219.725.062.41.081.902.081 1.31 0 .249-.006.467-.013.621-.006.154-.014.24-.012.241a.611.611 0 00.559.66.61.61 0 00.648-.571" fill="#17493A"/><path d="M8.973 24.708l.031.003c.219.023 1.424.192 2.736 1.154 1.311.965 2.764 2.708 3.508 6.034l1.197-.155v-.05c-.001-.368.048-2.596 1.044-5.061 1.004-2.471 2.906-5.16 6.69-6.63l-.215-.577-.495.355.026.04c.305.453 2.928 4.61 2.922 10.058 0 1.58-.217 3.268-.769 5.02a.618.618 0 00.392.776.605.605 0 00.762-.399c.592-1.882.826-3.703.826-5.397-.008-6.244-3.137-10.753-3.168-10.808l-.271-.392-.44.171c-4.142 1.598-6.302 4.625-7.38 7.314-1.085 2.693-1.134 5.063-1.136 5.53v.086l.606-.019.591-.136c-.844-3.817-2.66-5.902-4.29-6.975-1.628-1.077-3.03-1.168-3.097-1.172a.61.61 0 00-.64.58c-.02.339.235.63.57.65" fill="#17493A"/><path d="M27.51 32.288l.049-.063c.265-.333 1.582-1.91 3.6-3.393 2.018-1.486 4.722-2.863 7.764-2.886l-.005-.617-.553.254.054.13c.258.628 1.322 3.467 1.319 6.666-.002 2.35-.56 4.86-2.357 6.931a.627.627 0 00.054.872.6.6 0 00.855-.055c2.046-2.358 2.661-5.21 2.658-7.748-.005-3.965-1.461-7.257-1.476-7.302l-.162-.366-.396.003c-3.63.032-6.711 1.754-8.883 3.436-2.173 1.685-3.454 3.352-3.475 3.378a.625.625 0 00.103.865c.264.21.645.163.85-.105" fill="#17493A"/><path d="M51.65 30.542c-.038-.01-.47-.107-1.204-.107-2.266-.012-7.413.98-12.525 8.21a.621.621 0 00.137.86c.271.2.649.137.846-.14 4.939-6.941 9.605-7.685 11.542-7.697.314 0 .555.02.714.041l.176.026.037.008h.003a.607.607 0 00.728-.461.619.619 0 00-.453-.74M13.498 12.284l.177.198c.406.47 1.444 1.736 2.368 3.384.929 1.647 1.729 3.674 1.726 5.628 0 .583-.071 1.161-.225 1.729a.62.62 0 00.423.759.606.606 0 00.745-.43 7.834 7.834 0 00.269-2.058c-.006-2.621-1.173-5.109-2.312-6.965-1.141-1.853-2.272-3.072-2.29-3.092a.599.599 0 00-.857-.025.625.625 0 00-.024.872M21.847 7.11l.129.218c.603 1.016 3.027 5.51 3.015 9.687 0 1.196-.194 2.359-.66 3.42a.622.622 0 00.305.814c.306.14.664 0 .8-.31.552-1.254.765-2.596.765-3.924-.016-5.293-3.315-10.517-3.331-10.565a.6.6 0 00-.835-.19.62.62 0 00-.188.85" fill="#17493A"/><path d="M52.267 22.962c-.148.058-3.31 1.462-6.696 8.502l.545.27.564.224c.003-.008.729-1.897 1.458-4.263.727-2.375 1.467-5.192 1.473-7.2-.002-.564-.057-1.073-.224-1.523l-.145-.387-.407-.01-.063-.001c-.73.001-7.825.17-13.528 6.829l.456.404.511.331c.024-.05 2.837-4.518 2.846-10.083.001-2.617-.64-5.488-2.513-8.18l-.27-.388-.438.166c-.073.03-8.026 3.073-11.521 12.823a.622.622 0 00.361.79.604.604 0 00.777-.37c1.653-4.62 4.364-7.64 6.665-9.516a19.537 19.537 0 012.95-1.995c.377-.206.681-.352.888-.445l.234-.104.072-.03-.213-.576-.495.357c1.712 2.462 2.289 5.05 2.29 7.468.002 2.566-.662 4.935-1.331 6.655-.335.861-.67 1.559-.918 2.038a15.7 15.7 0 01-.299.548l-.082.139-.024.04.967.737c5.35-6.264 12.05-6.405 12.615-6.405h.035l.015-.615-.567.218c.088.23.145.612.144 1.085.006 1.713-.7 4.515-1.418 6.83a73.478 73.478 0 01-.984 2.966c-.268.757-.445 1.217-.445 1.218l1.107.496c1.644-3.414 3.2-5.404 4.324-6.534a8.944 8.944 0 011.32-1.119c.152-.102.267-.167.339-.207l.075-.038.014-.006-.084-.194.079.195.005-.001-.084-.194.079.195a.618.618 0 00.33-.803.6.6 0 00-.789-.337M29.802 2.001v.003c.007.041.03.194.03.461-.002 1.19-.449 4.704-4.871 10.724a.624.624 0 00.123.864.599.599 0 00.848-.125c4.531-6.167 5.111-9.947 5.111-11.463 0-.452-.05-.699-.061-.743a.607.607 0 00-.727-.461.618.618 0 00-.453.74" fill="#17493A"/><path d="M35.676 2.076l.157-.133-.168.122.01.01.158-.132-.168.122c.015.025.276.392.278 1.25.001 1.015-.38 2.752-2.118 5.368a.623.623 0 00.162.857.6.6 0 00.841-.165c1.83-2.752 2.327-4.724 2.327-6.06.003-1.286-.474-1.943-.548-2.027a.6.6 0 00-.853-.08.623.623 0 00-.078.868M49.065 13.664c-.152.007-3.954.546-7.898 6.679a.624.624 0 00.174.853c.28.186.656.107.84-.177 1.887-2.927 3.684-4.457 4.985-5.26a7.48 7.48 0 011.533-.74 4.19 4.19 0 01.399-.111l.091-.019.017-.001-.025-.168.02.168h.005l-.025-.168.02.168a.614.614 0 00.534-.682.607.607 0 00-.67-.542" fill="#17493A"/><path d="M38.545 12.696l4.382-3.926-.401-.462-.358.497.157-.22-.162.216.005.004.157-.22-.162.216c.006.018 2.166 1.67 2.232 7.418.003.34.278.613.612.61a.612.612 0 00.6-.622c-.05-6.264-2.584-8.307-2.722-8.395l-.393-.295-4.748 4.253a.625.625 0 00-.054.87c.222.256.605.28.855.056" fill="#17493A"/><path d="M40.914 5.345c-.017.045-.648 1.401-.653 3.135 0 .272.015.554.054.843.045.337.35.574.681.528a.616.616 0 00.519-.695 5.15 5.15 0 01-.043-.676c0-.708.136-1.375.274-1.856.069-.24.138-.436.188-.567l.06-.149.018-.04a.62.62 0 00-.293-.82.601.601 0 00-.805.297" fill="#17493A"/><path d="M13.724 50.37h30.953c7.084 0 12.83-5.844 12.83-13.055v-4.223H.894v4.223c0 7.21 5.743 13.055 12.83 13.055" fill="#4E321D"/></g></g><g><path d="M201 135c.086 2.317.381 4.367.843 6.164 3.486 13.534 21.468 16.197 28.39 4.144 1.787-3.108 2.58-6.683 2.767-10.308h-32" fill="#AB4735"/><path d="M205.013 112.744l-.006.74 23.496.19.006-.74-.67.31c0 .001.07.151.196.448.895 2.073 4.498 11.083 4.49 20.056 0 4.077-.738 8.127-2.748 11.536-2.912 4.931-7.8 7.23-12.727 7.236-3.21 0-6.418-.988-9.052-2.873-2.635-1.886-4.7-4.657-5.658-8.274-.544-2.056-.865-4.462-.865-7.278 0-5.397 1.183-12.304 4.235-21.107l-.697-.244-.006.74.006-.74-.696-.243c-3.091 8.917-4.315 15.979-4.317 21.594 0 2.93.335 5.465.915 7.658 1.043 3.952 3.33 7.03 6.227 9.1 2.898 2.071 6.4 3.147 9.908 3.147 5.38.006 10.813-2.554 13.996-7.963 2.19-3.72 2.954-8.038 2.954-12.29-.01-10.688-4.806-21.073-4.822-21.123l-.197-.426-24.49-.198-.174.501.696.243" fill="#000105"/><path fill="#000105" d="M217.023 187h1.954v-34h-1.954z"/><path fill="#000105" d="M208 187.977h20v-1.954h-20z"/></g></g></svg>