<svg width="600" height="371" xmlns="http://www.w3.org/2000/svg"><g fill="none" fill-rule="evenodd"><path fill="#D6C7C5" d="M332 113h34v32h-34z"/><path d="M498.285 369l-486.22-4.227c-12.762-30.573-5.877-67.557 2.203-100.66 6.775-27.75 16.155-58.426 42.298-72.667 11.98-6.528 25.23-8.446 39.013-8.446 3.99 0 8.027.16 12.09.417-6.91 24.617-12.285 49.86-11.42 75.358.411 12.155 3.31 25.932 13.82 32.033 4.013 2.329 8.524 3.16 13.167 3.16 4.825 0 9.794-.9 14.499-1.952a288.047 288.047 0 0030.92-8.785v.005c11.948-3.204 29.621-11.602 37.343-13.408a398.573 398.573 0 00-4.76 27.358c-2.3 16.717-3.342 34.324 1.439 50.286-.047.032-.068.053-.061.062 0 .004.008.006.02.006a.38.38 0 00.058-.007 64.026 64.026 0 003.72 9.578s3.73-.233 9.997-.588c.386.535.676.838.82.838a.1.1 0 00.037-.009c.108-.055.076-.366-.067-.873 3.648-.207 8.093-.45 13.11-.71.309.972.577 1.539.733 1.539.005 0 .009 0 .013-.002.154-.032.177-.614.108-1.582 4.791-.25 10.085-.512 15.705-.774.139.73.278 1.144.405 1.144h.004c.127-.01.229-.436.296-1.176 4.64-.213 9.494-.427 14.463-.63.067.144.13.22.192.22h.004c.061-.004.116-.087.163-.235 6.378-.258 12.948-.499 19.492-.702.115.33.222.51.313.51h.009c.09-.01.158-.197.207-.527 5.36-.163 10.708-.302 15.918-.406.103.349.209.541.312.541h.002c.104-.004.197-.2.27-.554a920.254 920.254 0 0117.622-.186c.446 0 .885 0 1.326.002.087.715.197 1.132.345 1.142h.006c.142 0 .302-.418.444-1.14 5.258.017 10.144.1 14.49.263 11.137.416 20.532 6.359 30.133 6.359 3.108 0 6.235-.622 9.452-2.257 8.182-20.022 5.353-41.112.606-60.982 7.832 8.415 16.73 15.704 26.705 21.437-.344 8.224 3.769 16.738 9.063 23.38 3.365 4.226 7.485 8.941 6.646 14.224-.412.41-.8.844-1.166 1.298l1.113-.993c.02-.102.036-.204.053-.305 2.64-2.63 6.211-4.322 9.927-4.652.532-.049 1.067-.07 1.6-.07 3.67 0 7.33.99 11.02 1.013h.134c5.361 0 10.495-2.168 14.606-5.636 7.282-.918 15.035-3.864 22.385-7.96 8.703 1.28 17.479 2.24 26.149 2.24 2.307 0 4.605-.068 6.895-.216 9.796-.634 10.736-1.398 15.817-2.56A10.28 10.28 0 01526 337.3c-7.516 11.707-17.07 22.378-27.715 31.7m42.897-67c-.218 0-.425-.004-.626-.006.095-.34.188-.677.284-1.014-2.844-.761-6.155-.404-8.918-1.482-3.177-1.242-5.51-4.24-9.991-5.502-43.587-12.292-109.976-51.374-109.976-51.374s-41.443-64.605-59.812-90.97c-3.05-4.378-6.45-8.738-11.135-11.289a15.66 15.66 0 00-.677-.347 58.394 58.394 0 0011.336-3.712 61.6 61.6 0 0010.304-5.84c1.772-1.218 3.468-2.58 5.241-4.106.943-.886 1.854-1.868 2.49-3.376.303-.747.506-1.736.288-2.792a4.28 4.28 0 00-1.708-2.61 5.462 5.462 0 00-3.097-.918c-.675 0-1.305.101-1.873.196-1.484.316-2.558.766-3.77 1.196-1.156.435-2.31.911-3.458 1.432a100.873 100.873 0 002.665-3.66c.72-1.034 1.41-2.069 2.077-3.103.638-1.053 1.338-1.982 1.961-3.363.29-.662.535-1.373.647-2.213.11-.816.085-1.857-.45-2.86-.499-.994-1.495-1.692-2.36-1.965a6.628 6.628 0 00-2.147-.325h-.078c-.121-.003-.241-.005-.362-.005-2.507 0-4.85.808-6.767 1.883-4.05 2.314-6.713 5.498-8.985 8.307-8.939 11.354-12.672 19.526-12.232 19.758.012.009.03.013.046.013.746 0 5.38-7.454 14.503-17.825 2.313-2.592 4.983-5.388 8.338-7.122 1.507-.768 3.141-1.263 4.801-1.263.173 0 .347.004.522.017h.017c.474 0 .877.078 1.083.158.203.085.19.123.207.165h.002c.072 0 .044.844-.38 1.659-.352.772-1.085 1.78-1.726 2.773a105.628 105.628 0 01-14.42 17.233 55.748 55.748 0 00-3.611 3.34l2.936 3.11.552-.496a100.756 100.756 0 003.055-2.847 54.128 54.128 0 018.52-5.906 53.168 53.168 0 016.507-3.086c1.08-.417 2.26-.89 3.119-1.079.389-.099.765-.135 1.08-.135.429 0 .742.068.812.146.154.15.29.167.101.8-.222.613-.805 1.387-1.46 2.018-1.544 1.406-3.153 2.798-4.766 3.993a64.218 64.218 0 01-9.518 5.976c-5.276 2.693-10.029 4.222-13.657 5.197a15.42 15.42 0 00-3.226-.349c-.645 0-1.285.044-1.915.131-.421.237-.84.468-1.254.696.818-.969 1.152-1.578 1.102-1.614-.005-.006-.013-.008-.022-.008-.177 0-1.086 1.131-2.942 2.625l-.263.14c.785-23.654 2.54-81.426 1.208-88.656-1.482-8.03-3.962-15.88-8.404-22.337C330.232 28.38 339.598 28 348.94 28c4.4 0 8.797.085 13.17.224 10.846.347 22.218 1.174 31.351 6.701 11.448 6.93 17.025 19.757 21.027 32.01 10.074 30.848 14.48 63.33 12.961 95.563-.58 12.355-1.042 26.92 9.349 34.483 5.31 3.864 12.287 4.84 18.913 5.823 20.042 2.97 40.584 7.476 56.736 19.057 24.05 17.25 34.137 48.365 29.424 76.486a92.62 92.62 0 01-.689 3.653m-388.167-96L152 187.662c.34.008.682.015 1.022.021.629.013 1.263.019 1.899.019 6.076 0 12.337-.645 17.28-3.876 5.99-3.915 8.806-10.778 11.323-17.22 9.934-25.408 20.444-50.862 36.007-73.635C227.486 81.33 236.887 70.375 247.7 61c-2.711 23.24-.664 52.488 24.301 60.495l-1.488 20.041c-1.888-1.82-3.257-3.502-4.243-4.608-.148-.252-.244-.392-.303-.392a.034.034 0 00-.02.007c-.005.002-.008.008-.01.014a8.747 8.747 0 00-.568-.562c-1.244-.68-2.719-.995-4.385-.995-12.502 0-35.816 17.771-54.058 33.56L153.015 206" fill="#D6C7C5"/><path d="M326.28 101.192s23.194-12.96 12.191-60.607C328.538-2.429 310.433 8.41 310.433 8.41l15.847 92.783" fill="#000105"/><path d="M347.105 64.98c1.5 6.17-2.288 12.386-8.46 13.885-6.17 1.497-12.386-2.29-13.885-8.462-1.497-6.168 2.29-12.385 8.46-13.884 6.172-1.498 12.386 2.29 13.885 8.461" fill="#B4706A"/><path d="M330.433 70.192c.113-1.248.633-2.37 1.374-3.362a6.868 6.868 0 013.076-2.34c1.311-.48 2.91-.377 4.084.286 1.229.593 2.009 1.665 2.466 2.79-1.213-.364-2.188-.803-3.14-.89-.927-.115-1.728-.078-2.543.244-1.666.585-3.291 1.913-5.317 3.272" fill="#000105"/><path d="M248.243 53.235c3.376-21.388 24.617-57.146 62.359-35.136 11.871 6.92 16.933 19.551 19.346 32.661 1.683 9.152-1.554 99.029-1.554 99.029-2.168 24.47-27.775 36.26-44.548 27.544-7.91-4.109-13.857-12.781-14.45-26.835l2.22-30.026c-27.34-8.806-27.163-43.227-23.373-67.237" fill="#B4706A"/><path d="M272.379 121.265s15.263 5.22 44.054-13.073c0 0-15.707 24.098-45 34l.946-20.927" fill="#975452"/><path d="M321.433 84.691c0 8.563-6.94 15.501-15.501 15.501s-15.499-6.938-15.499-15.501c0-8.56 6.938-15.499 15.499-15.499s15.501 6.94 15.501 15.499M263.433 73.692c0-8.01-6.676-14.5-14.906-14.5-.267 0-.532.008-.797.021-1.298 9.035-1.916 19.364-.441 28.924.41.034.82.055 1.238.055 8.23 0 14.906-6.494 14.906-14.5" fill="#AE5E5A"/><path d="M282.433 77.192c-2.236 6.563-9.626 9.203-14 .292l14-.292" fill="#FFFFFE"/><path d="M277.27 42.192c.373 1.6.05 3.288-.415 4.84-.482 1.573-1.17 3.064-1.977 4.48-.818 1.412-1.697 2.792-2.716 4.069a37.65 37.65 0 01-3.248 3.712l-.179-1.528c2.855 2.353 5.662 4.764 8.255 7.427-3.386-1.724-6.56-3.7-9.683-5.736l-.874-.568.695-.963c1.84-2.533 3.742-5.072 5.511-7.635a68.073 68.073 0 002.576-3.889c.793-1.33 1.582-2.663 2.056-4.209M294.593 54.494c-.365-1.775-.798-3.589-1.367-5.24-.3-.816-.634-1.616-1.058-2.223-.435-.647-.87-.896-1.06-.847-.139-.04-.646.188-1.138.797-.508.565-.936 1.325-1.35 2.098-.791 1.57-1.498 3.305-2.14 5l-.016.042c-.188.5-.783.764-1.327.592-.462-.149-.74-.561-.7-.986.183-1.964.584-3.848 1.356-5.738.382-.944.866-1.876 1.59-2.807.378-.457.824-.916 1.454-1.317.615-.399 1.511-.728 2.436-.665.904.04 1.77.424 2.343.895.584.471.977.986 1.27 1.495.584 1.02.906 2.012 1.122 3 .44 1.976.505 3.896.346 5.852-.037.447-.462.782-.95.748-.408-.028-.73-.305-.802-.658l-.009-.038M262.594 52.495c-.366-1.778-.799-3.59-1.367-5.24-.3-.818-.635-1.615-1.059-2.225-.435-.645-.87-.893-1.06-.847-.138-.038-.646.188-1.138.8-.507.562-.938 1.324-1.35 2.097-.791 1.567-1.498 3.3-2.14 5l-.016.04c-.188.499-.783.763-1.327.591-.462-.146-.74-.56-.7-.986.183-1.962.586-3.847 1.358-5.735.38-.946.864-1.877 1.588-2.81.378-.454.824-.915 1.454-1.318.615-.394 1.514-.723 2.437-.663.903.04 1.769.425 2.342.896.584.47.978.988 1.27 1.497.585 1.018.906 2.01 1.123 3 .437 1.975.505 3.893.345 5.85-.037.445-.461.78-.949.748-.407-.028-.73-.307-.803-.66l-.008-.035M322.433 9.247s-10.228 19.966-26.023 24.74c-15.796 4.772-2.366-6.003-.156-8.497 2.208-2.497-21.01 9.149-33.222 5.68C250.822 27.705 263.84.718 291.25.21c27.41-.502 31.184 9.036 31.184 9.036" fill="#000105"/><path d="M310.868 18.524s-5.112 55.075 19.716 38.588c0 0 11.196-37.853-10.802-50.92l-8.914 12.332M334.505 139.311c3.867-.936 9.44-2.49 15.743-5.622a66.072 66.072 0 009.748-5.958c1.652-1.192 3.3-2.58 4.88-3.982.672-.628 1.27-1.4 1.497-2.012.193-.63.054-.647-.104-.797-.123-.135-1-.243-1.938-.01-.879.187-2.087.66-3.194 1.075a55.133 55.133 0 00-6.664 3.077 55.31 55.31 0 00-12.31 9.117l-3.007-3.1.543-.475a107.203 107.203 0 0011.067-11.156 105.722 105.722 0 006.747-8.778c.656-.989 1.407-1.995 1.767-2.764.435-.815.463-1.658.387-1.654-.017-.042-.004-.08-.212-.164-.212-.08-.635-.16-1.126-.159-1.884-.118-3.748.397-5.452 1.243-3.436 1.729-6.171 4.517-8.54 7.1-9.564 10.583-14.31 18.12-14.901 17.76-.45-.232 3.373-8.379 12.528-19.7 2.328-2.8 5.054-5.974 9.202-8.282 2.057-1.122 4.593-1.955 7.302-1.872a7.06 7.06 0 012.28.324c.885.272 1.905.968 2.416 1.96.548 1 .574 2.037.461 2.85-.115.838-.366 1.547-.662 2.207-.64 1.377-1.356 2.303-2.01 3.353a101.44 101.44 0 01-6.875 9.23 103.58 103.58 0 01-11.46 11.687l-.565.493-3.008-3.1a57.44 57.44 0 0113.358-9.775 57.55 57.55 0 017.236-3.22c1.24-.428 2.34-.878 3.86-1.192 1.412-.232 3.19-.493 5.091.72.903.636 1.527 1.547 1.75 2.602.223 1.052.015 2.04-.295 2.784-.652 1.503-1.585 2.482-2.55 3.365-1.817 1.521-3.554 2.88-5.368 4.094a63.578 63.578 0 01-10.554 5.823c-6.786 2.927-12.708 4.078-16.77 4.534-4.083.437-6.352.234-6.37-.025-.026-.325 2.19-.684 6.072-1.601z" fill="#000105"/><path d="M576.597 321.43s6.08 1.07 10.307 2.715c4.227 1.65 10.482 1.387 10.236-.547-.658-5.164-31.107-12.755-31.107-12.755s-3.236-.594 5.515-4.617c8.752-4.024 6.035-7.562 6.035-7.562s-14.093 2.685-20.12 2.84c-2.399.06-18.53-.155-18.53-.155v.06c-10.355-1.17-21.289-2.332-27.74-3.217-4.474 12.285-9.48 24.39-14.76 36.384 19.877 2.235 35.907 2.677 44.772 2.104 18.346.43 35.356 10.09 38.168 8.288 2.943-1.886-12.818-10.017-12.818-10.017 5.836.658 26.055 12.076 26.65 7.82.36-2.56-19.51-13.863-19.51-13.863s8.278 2.29 18.075 6.826c7.07 3.274 7.654.599 7.654.599.526-5.147-22.827-14.904-22.827-14.904" fill="#B4706A"/><path d="M563.387 310.195c.145.02.02 1.903-1.414 4.443-1.38 2.499-4.337 5.577-8.535 6.617l.184-1.391.103.064c3.724 2.269 6.002 5.868 6.97 8.607 1.007 2.772.944 4.646.793 4.656-.226.045-.517-1.723-1.688-4.218-1.138-2.475-3.361-5.664-6.755-7.733l-.095-.06-1.517-.974 1.7-.421c3.75-.923 6.54-3.558 8.033-5.747 1.533-2.206 2-3.922 2.22-3.843" fill="#000105"/><path d="M126.675 104.097c5.119 19.548 31.528 23.393 41.695 5.988 2.622-4.489 3.79-9.653 4.063-14.893h-47c.129 3.35.562 6.312 1.242 8.905z" fill="#AB4735"/><path d="M131.51 64.237l-.009 1.04 33.171.269.009-1.04-.947.436s.098.21.28.627c1.261 2.914 6.348 15.57 6.337 28.173.002 5.728-1.042 11.417-3.88 16.206-4.111 6.927-11.009 10.156-17.967 10.165-4.53 0-9.06-1.388-12.781-4.036-3.719-2.65-6.636-6.542-7.987-11.62-.767-2.89-1.221-6.27-1.221-10.23-.002-7.58 1.668-17.284 5.977-29.647l-.982-.343-.009 1.04.009-1.04-.982-.34c-4.365 12.523-6.095 22.443-6.095 30.33 0 4.117.47 7.68 1.291 10.762 1.47 5.552 4.701 9.875 8.79 12.782 4.092 2.91 9.036 4.421 13.99 4.421 7.593.009 15.264-3.588 19.759-11.184 3.092-5.226 4.17-11.294 4.17-17.266-.013-15.015-6.785-29.603-6.808-29.671l-.275-.6-34.577-.279-.245.704.982.341" fill="#000105"/><path fill="#000105" d="M146.468 170.192h2.93v-49h-2.93z"/><path fill="#000105" d="M135.433 172.158h28v-2.931h-28z"/><path d="M111.433 177.192c5.56-23.609 8.394-46.771 15.856-50.047 7.497-3.293 9.365-6.596 15.798-9.74 8.018-3.923 19.434-7.37 19.409-5.843-.06 3.307-17.437 15.518-17.437 15.518s28.149-14.44 22.666-7.26c-5.481 7.18-22.841 17.176-22.841 17.176s24.243-9.242 17.432-2.747c-6.81 6.495-18.683 13.286-18.683 13.286s23.353-7.109 11.271 1.235c-6.307 4.353-7.933 6.44-8.155 9.175a950.032 950.032 0 01-1.665 18.25l-33.651.997" fill="#B4706A"/><path d="M532.494 300.4c-3.185-1.245-5.523-4.25-10.016-5.517-43.693-12.324-110.246-51.509-110.246-51.509s-41.544-64.775-59.959-91.21c-3.058-4.39-6.466-8.76-11.162-11.319-2.846-1.55-6.284-2.252-9.456-1.807-48.517 27.217-63.124.777-67.208-2.85-10.585-5.78-37.767 14.708-58.44 32.642l-53.905 37.529-1.97-35.652c-13.628 1.979-27.258 3.956-40.885 5.936-7.977 27.169-14.682 55.155-13.722 83.456.413 12.19 3.32 26.008 13.864 32.127 8.21 4.761 18.493 3.285 27.755 1.21a289.028 289.028 0 0031.018-8.81v.005c11.986-3.213 29.716-11.635 37.462-13.446a399.627 399.627 0 00-4.774 27.437c-2.783 20.223-3.73 41.743 5.192 60.1 0 0 86.783-5.42 127.143-3.907 14.79.551 26.512 10.816 39.711 4.114 8.208-20.08 5.37-41.232.608-61.16 10.133 10.885 22.045 19.895 35.766 26.096 16.413 7.419 34.408 10.462 52.172 13.438 15.67 2.621 31.902 5.37 47.623 4.354 9.827-.636 10.77-1.402 15.867-2.569 1.407-.324 2.812-.275 4.211-.224 1.71.059 3.41.118 5.089-.5 1.627-11.504 4.033-25.299 7.201-36.478-2.85-.763-6.17-.405-8.94-1.486" fill="#8BA577"/><path d="M298.433 149.717c2.776-.45 5.453-1.191 8-2.05-2.86 1.05-5.523 1.71-8 2.05" fill="#FFF1E2"/><path d="M329.479 140.192c1.847-1.493 2.751-2.625 2.928-2.625.008 0 .017.002.021.008.05.036-.282.646-1.096 1.614-.625.345-1.239.677-1.853 1.003m-62.716-3.609c-.115-.13-.225-.256-.33-.37.002-.006.004-.013.01-.015a.034.034 0 01.02-.006c.058 0 .153.14.3.391" fill="#FFFFFE"/><path d="M293.81 153.192c-3.617 0-7.09-.423-10.224-1.334-4.435-1.261-8.099-3.385-10.768-5.61-2.684-2.235-4.342-4.579-5.256-6.28-.462-.856-.767-1.544-.923-2.03-.152-.428-.223-.682-.202-.746.105.114.215.24.33.37.668 1.133 2.406 4.554 6.7 7.87 2.646 2.038 6.209 3.977 10.48 5.116 2.944.802 6.216 1.177 9.642 1.177a51.11 51.11 0 004.654-.218c.28-.025.56-.055.84-.085 2.615-.239 5.425-.705 8.444-1.446 1.713-.385 3.371-.806 4.964-1.23 4.338-1.139 8.157-2.421 11.187-3.888a29.185 29.185 0 005.899-3.684c.615-.326 1.23-.658 1.856-1.003-.202.24-.434.503-.7.787-1.329 1.402-3.522 3.218-6.59 4.835-3.056 1.626-6.935 3.044-11.292 4.266-4.35 1.232-9.223 2.424-14.473 2.917a49.811 49.811 0 01-4.568.216M526.909 335.192c-.208 0-1.096-.626-1.336-3.945-.245-3.371-.217-8.07.474-13.197.7-5.128 1.927-9.672 3.063-12.862 1.113-3.138 2.07-4.996 2.269-4.996h.01c.438.153-2.53 7.96-3.86 18.05-1.405 10.082-.149 16.914-.612 16.95h-.008" fill="#3A5E4E"/><path d="M201.908 348.74c-.018 0-.03-.003-.03-.009-.009-.012.021-.042.087-.087.006.03.015.057.024.087a.541.541 0 01-.08.009" fill="#FFFFFE"/><path d="M202.45 349.192c-.006-.023-.013-.043-.017-.066.169-.124.68-.408 1.512-.835 1.047-.56 2.632-1.29 4.7-2.162a74.62 74.62 0 011.576-.633c-.049.102-.028.341.057.696-.503.174-.98.345-1.436.513-2.086.777-3.7 1.412-4.78 1.877-.869.357-1.418.567-1.612.61m172.938-1.313c-.34 0-2.588-.937-6.542-2.128-4.24-1.317-10.492-2.83-18.346-3.718a136.479 136.479 0 00-8.86-.748c-.059-.346-.137-.54-.232-.547h-.004c-.095 0-.196.183-.3.517-4.163-.214-8.626-.302-13.33-.302-1.641 0-3.311.009-5.009.03-1.64.02-3.306.044-4.999.07-.086-.215-.168-.328-.24-.328h-.009c-.074.009-.133.124-.18.332-4.03.058-8.203.115-12.484.115-5.252 0-10.671-.086-16.204-.355-2.411-.101-4.797-.21-7.157-.32-.108-.676-.226-1.062-.357-1.062h-.002c-.126 0-.249.372-.354 1.03-8.827-.41-17.265-.807-25.128-.807l-1.05.002c-2.75.01-5.43.068-8.024.179-.095-.615-.192-1.082-.285-1.367 2.681-.144 5.453-.233 8.301-.262.92-.011 1.85-.018 2.787-.018 9.748 0 20.31.585 31.323 1.05 6.23.303 12.306.382 18.168.382 5.497 0 10.807-.07 15.886-.092.58-.003 1.159-.005 1.733-.005 9.798 0 18.67.364 26.129 1.4 7.901 1.036 14.18 2.73 18.395 4.237 2.128.693 3.718 1.425 4.799 1.898 1.083.476 1.638.752 1.62.802-.003.01-.018.015-.045.015m-164.521-1.89c-.233-.312-.414-.5-.53-.538 4.057-1.568 9.62-3.335 16.451-4.668 5.607-1.109 12.059-1.895 19.13-2.29-.067.29-.12.765-.16 1.384-6.31.296-12.115.893-17.266 1.742-.097-.293-.188-.454-.27-.454h-.005c-.084.01-.15.197-.194.533-.357.061-.707.122-1.057.186-6.616 1.163-12.052 2.724-16.1 4.104" fill="#72C09E"/><path d="M217.442 358.318c-.204 0-.615-.43-1.164-1.188l1.122-.063c.204.72.25 1.16.096 1.239a.143.143 0 01-.054.012" fill="#FFFFFE"/><path d="M217.497 358.192c-.925-1.038-2.33-2.987-3.764-5.28-1.641-2.618-2.857-4.947-3.202-6.048-.1-.319-.125-.534-.068-.625a.085.085 0 01.045-.039.102.102 0 01.045-.008c.015 0 .03.002.048.006.138.035.353.203.628.483.905.92 2.464 3.044 4.06 5.592 1.556 2.488 2.734 4.715 3.144 5.876l-.936.043" fill="#72C09E"/><path d="M231.341 358.816c-.222 0-.603-.804-1.04-2.184l1.211-.063c.1 1.374.066 2.199-.153 2.244-.006.003-.012.003-.018.003" fill="#FFFFFE"/><path d="M230.566 357.192c-.495-1.553-1.096-4.123-1.534-7.07-.58-3.87-.702-7.194-.523-8.423.045-.32.111-.498.197-.507h.004c.084 0 .176.153.275.432.408 1.143.95 4.417 1.528 8.276.444 2.99.806 5.642.92 7.247l-.867.045" fill="#72C09E"/><path d="M247.008 357.526c-.18 0-.378-.588-.576-1.623l1.002-.045c-.096 1.05-.24 1.653-.42 1.668h-.006" fill="#FFFFFE"/><path d="M247 356.192c-.436-1.615-.868-4.758-1.11-8.382-.226-3.322-.24-6.253-.079-7.98.057-.587.132-1.038.228-1.314.07-.21.153-.322.246-.324.093 0 .186.107.285.305.132.27.27.714.405 1.297.396 1.711.78 4.63 1.002 7.943.246 3.62.24 6.782.024 8.423l-1.002.032" fill="#72C09E"/><path d="M261.951 355.859c-.087 0-.177-.108-.273-.312.171-.006.339-.012.51-.021-.066.21-.144.327-.231.333h-.006" fill="#FFFFFE"/><path d="M262.11 356.192c-.533-.866-1.16-4.047-1.232-7.868-.096-4.498.612-8.132 1.182-8.132 0 0 .003 0 .003.002.585.02.813 3.65.906 8.108.072 3.79.024 6.984-.348 7.874-.171.007-.34.012-.51.016" fill="#72C09E"/><path d="M282.002 356.066c-.129 0-.282-.255-.444-.723.252-.006.495-.015.75-.024-.069.468-.165.732-.294.747h-.012" fill="#FFFFFE"/><path d="M282.261 355.192c-.552-1.175-1.215-4.157-1.446-7.683-.213-3.147-.027-5.888.294-7.3.15-.649.324-1.017.504-1.017h.003c.186 0 .354.381.507 1.048.324 1.412.573 4.106.783 7.193.231 3.521.34 6.541.105 7.741-.255.007-.498.014-.75.018" fill="#72C09E"/><path d="M298.962 356.085c-.147 0-.298-.273-.445-.768l.832-.018c-.106.501-.238.78-.385.786h-.002" fill="#FFFFFE"/><path d="M298.855 353.192c-.426-.956-.816-3.154-.966-5.717-.207-3.455.096-6.267.675-6.283h.006c.576 0 1.203 2.782 1.41 6.227.15 2.573.02 4.79-.294 5.761l-.831.012" fill="#72C09E"/><path d="M317.867 356.502h-.009c-.21-.015-.366-.606-.489-1.62.378 0 .753 0 1.128.003-.201 1.023-.429 1.617-.63 1.617" fill="#FFFFFE"/><path d="M318.48 354.192c-.375-.002-.75-.002-1.128-.002-.222-1.255-.333-3.444-.43-5.93-.113-3.183-.17-5.881.139-6.765.066-.19.15-.295.255-.303h.012c.102 0 .219.103.342.299.552.867 1.23 3.537 1.344 6.731.099 2.514-.177 4.713-.534 5.97M341.216 355.192h-.01c-.575-.029-.716-3.185-.317-7.051.306-2.958.843-5.474 1.338-6.48.147-.303.29-.469.426-.469h.006c.135.006.246.182.33.495.282 1.035.297 3.586-.012 6.554-.4 3.848-1.188 6.951-1.761 6.951M362.58 361.192c-.006 0-.012 0-.016-.002-.393-.097.13-3.758 1.16-8.175 1.02-4.355 2.155-7.823 2.562-7.823.005 0 .01 0 .017.002.39.097-.13 3.758-1.163 8.175-1.019 4.357-2.155 7.823-2.56 7.823" fill="#72C09E"/><path d="M203.635 281.192c-.734-.1.595-14.732 2.969-32.678 2.373-17.953 4.893-32.421 5.627-32.322.734.098-.595 14.73-2.97 32.68-2.374 17.947-4.894 32.417-5.626 32.32M385.498 261.17c-.296-.177.41-1.868 2.153-4.27 1.735-2.399 4.592-5.45 8.335-8.176 3.75-2.722 7.609-4.55 10.51-5.52 2.908-.978 4.82-1.191 4.93-.878.256.718-6.702 3.2-13.788 8.413-7.15 5.138-11.47 10.85-12.14 10.431" fill="#000105"/><path d="M382.433 243.44c.045-.822 6.752-1.056 14.987-1.194 8.238-.122 14.949-.099 15.012.72.069.795-6.624 2.09-14.974 2.213-8.346.143-15.07-.945-15.025-1.74" fill="#000105"/><path fill="#FBF7E8" d="M238.852 207.804l-6.938 79.576-40.481 73.812h192l-25.447-68.044-9.254-89.956-109.88 4.612"/><path fill="#DCDCDC" d="M238.852 207.804l-6.938 79.576-40.481 73.812h192l-25.447-68.044-9.254-89.956-109.88 4.612"/><path d="M241.673 210.19c-.577-.128-.087-4.832 1.17-12.332 1.329-7.482 3.052-17.83 6.238-29.144 3.155-11.301 7.948-21.173 12.903-27.231 4.837-6.172 9.131-8.63 9.406-8.254.473.531-2.995 3.732-6.945 10.012-4.079 6.184-8.17 15.64-11.258 26.66-3.101 11.001-5.31 21.296-7.393 28.61-2.013 7.334-3.544 11.805-4.12 11.678M343.234 209.176c-.633-.346 1.581-4.192 2.223-10.963.355-3.371.287-7.437-.214-11.957-.48-4.515-1.402-9.522-2.375-14.772-1.936-10.48-4.651-19.65-7.52-25.953-2.819-6.318-5.375-9.896-4.845-10.311.403-.353 3.927 2.637 7.646 8.938 3.754 6.256 7.109 15.83 9.078 26.534.988 5.337 1.804 10.453 2.085 15.237.3 4.768.041 9.159-.758 12.752-.767 3.604-2.013 6.371-3.114 8.108-1.089 1.756-1.976 2.526-2.206 2.387" fill="#DCDCDC"/><path d="M288.44 287.2c.074-.077.63.326 1.666 1.087.519.376 1.158.847 1.936 1.35.767.475 1.724 1.094 2.736 1.305 2.151.273 4.993-.983 8.055-2.496 1.556-.769 3.207-1.647 5.056-2.48.93-.411 1.895-.83 2.979-1.143.527-.173 1.111-.289 1.708-.386l.936-.085.826-.012 31.028-.318c5.843-.027 11.97-.058 18.322-.087 3.178-.009 6.41-.017 9.69-.023l2.472-.002c.789 0 1.39-.056 2.062-.236 1.292-.336 2.467-1.118 3.061-2.124.614-.996.57-2.164-.054-3.139-.618-.986-1.793-1.74-3.077-2.06-.67-.17-1.25-.213-2.051-.213l-2.431-.004c-1.617-.004-3.22-.01-4.81-.015-6.352-.03-12.484-.058-18.326-.087-11.658-.12-22.166-.225-31.03-.316-8.832-.136-15.98-.295-20.92-.473-4.938-.178-7.668-.372-7.668-.579 0-.204 2.73-.398 7.668-.576 4.94-.178 12.088-.337 20.92-.473 8.864-.091 19.372-.199 31.03-.317l18.327-.086 4.809-.015 2.43-.004c.83-.01 1.894.054 2.811.3 1.881.477 3.726 1.55 4.884 3.347 1.201 1.767 1.288 4.367.105 6.206-1.126 1.86-2.981 2.984-4.881 3.49-.934.26-1.999.341-2.859.333l-2.471-.004c-3.28-.006-6.513-.014-9.69-.023l-18.323-.086c-11.657-.118-22.164-.226-31.028-.317-2.057-.157-3.839.548-5.68 1.259-1.794.73-3.48 1.537-5.094 2.244-3.213 1.368-6.198 2.658-9.043 2.129-1.391-.416-2.233-1.145-3.01-1.722a21.822 21.822 0 01-1.808-1.614c-.919-.917-1.332-1.463-1.262-1.535" fill="#000105"/><path d="M192.433 270.192v55.868c0 12.173 9.956 22.132 22.12 22.132h55.76c12.164 0 22.12-9.959 22.12-22.132v-55.868h-100" fill="#EA9439"/><path fill="#EAC692" d="M191.433 272.192h102v-4h-102z"/><path fill="#000105" d="M184.433 360.192h139v-14h-139zM223.924 135.196c.195.112-.664 1.887-2.126 5.095-1.352 3.202-3.664 7.923-4.1 13.992-.215 3.005.328 6.314 2.101 9.264 1.788 2.948 4.785 5.403 8.149 7.825 3.31 2.477 7.249 4.886 10.153 9.04 1.435 2.073 2.29 4.698 2.327 7.348.079 2.684-.831 5.327-2.124 7.571-2.663 4.512-6.329 7.71-9.462 10.951-3.249 3.176-5.753 6.458-7.323 10.158-3.129 7.38-2.934 15.107-1.271 20.963 1.531 5.987 4.526 10.183 6.769 12.791l1.56 1.712c.475.437.892.818 1.257 1.152.671.644 1.003 1.029.944 1.115-.06.087-.506-.129-1.314-.627l-1.478-.955c-.542-.472-1.147-.994-1.817-1.575-2.607-2.457-6.072-6.711-7.984-13.009-2.03-6.164-2.538-14.452.753-22.649 1.61-4.078 4.519-7.943 7.772-11.155 3.173-3.308 6.687-6.494 8.95-10.374 1.107-1.927 1.798-3.981 1.745-6.033a10.499 10.499 0 00-1.79-5.746c-2.318-3.43-6.007-5.883-9.336-8.432-3.362-2.525-6.64-5.266-8.659-8.803-1.99-3.531-2.447-7.426-2.062-10.704.345-3.309 1.288-6.134 2.265-8.503.992-2.369 2.037-4.302 2.922-5.856 1.808-3.087 3.012-4.653 3.18-4.556"/><path d="M58.62 302.26l-11.187-9.052s15.178-8.56 49.083-9.933c8.905-.361 17.843.447 26.496 2.629 10.012 2.527 21.692 6.797 21.377 12.913 0 0 .822 2.805-4.656 4.486-5.478 1.684-1.094 32.256 1.37 36.46 2.464 4.208-50.944 15.429-50.944 15.429L58.62 302.26" fill="#B97C4A"/><path d="M45.986 316.272s2.234-7.243-.557-9.751c-2.79-2.508-10.607-4.178-2.233-11.142 8.06-6.703 33.96-15.47 55.552 2.26 2.145 1.763 3.822 4.095 4.459 6.794.557 2.366.278 4.874-3.071 5.43-6.7 1.116-3.937 34.125-3.07 38.442.835 4.18-7.109 8.169-27.633 7.871-24.277-.348-29.314-8.276-28.748-10.099.564-1.822 5.301-29.805 5.301-29.805" fill="#F3DFAA"/><path d="M49.037 360.192h86.794c12.482 0 22.602-10.296 22.602-23h-132c0 12.704 10.12 23 22.604 23" fill="#D8BDB1"/><path d="M443.003 347.664c32.386 6.283 86.02-45.378 60.967-55.03-6-2.311-11.85 4.954-15.908 9.914a73.34 73.34 0 00-1.586 2.013c-14.974 19.617-42.103 36.323-61.857 23.12-19.755-13.204-16.81-23.23-20.712-22.917-3.902.315-2.858 34.763 39.096 42.9" fill="#A12629"/><path d="M504.84 290.836c-1.377-.337-2.776-.676-4.198-.642-1.422.03-2.899.488-3.823 1.501-.188.21-.357.45-.383.723-.043.493.396.908.844 1.17 1.511.879 3.464.895 4.949 1.815 1.567.97 2.3 2.731 3.333 4.201 1.098 1.56 2.665 2.89 4.572 3.438 1.243.358 2.981.106 3.262-1.084.104-.443-.032-.902-.168-1.336-.99-3.146-2.096-6.47-4.728-8.63-1.258-1.036-2.987-1.759-4.6-1.337" fill="#5C7838"/><path d="M504.433 293.491c.37-1.392.773-2.841 1.798-3.93.62-.659 1.436-1.146 2.272-1.567 2.683-1.362 5.837-2.176 8.852-1.63 1.06.193 2.15.597 2.74 1.419.587.821.415 2.126-.562 2.543-.603.255-1.317.122-1.94-.09-1.318-.447-2.51-1.231-3.904-1.43-1.423-.206-2.888.242-4.093.957-1.208.715-2.2 1.688-3.18 2.648-.54.527-1.1 1.088-1.31 1.781" fill="#5C7838"/><path d="M451.981 293.571a28.74 28.74 0 0012.256 2.62c2.47-.026 5.116-.449 6.9-2.129 2.67-2.51 2.406-6.693 1.945-10.293 2.601-.42 5.228.372 7.752 1.116 2.526.74 5.198 1.446 7.765.859 2.567-.59 4.915-2.938 4.514-5.496-.39-2.471-3.122-4.644-2.194-6.975.552-1.379 2.15-1.994 3.569-2.495a85.947 85.947 0 0016.445-7.882c3-1.857 5.962-3.98 7.821-6.944 1.86-2.967 2.391-6.963.48-9.894-1.58-2.42-4.56-3.718-7.486-3.852-2.923-.135-5.803.751-8.477 1.918-5.09 2.219-9.705 5.505-13.383 9.61-2.575 2.877-5.798 6.54-9.525 5.412-3.29-.992-4.255-5.02-4.675-8.373-1.782-.445-3.676.57-4.78 2.014-1.107 1.44-1.59 3.24-2.048 4.988l-2.992 11.378c-.452 1.726-1.282 3.79-3.085 3.983-2.093.223-3.4-2.274-5.387-2.95-2.02-.688-4.272.771-5.183 2.67-.91 1.901-.821 4.095-.716 6.192.242 4.784.482 9.565.722 14.349" fill="#1F9E6C"/><path d="M435.25 288.475l10.865-12.134c1.466-1.638 2.989-3.383 3.448-5.541.461-2.16-.598-4.817-2.735-5.285-.977-.214-1.995.051-2.991-.019-.996-.07-2.118-.7-2.137-1.711-.01-.521.28-.994.57-1.428 1.882-2.819 4.107-5.388 6.42-7.856 1.393-1.486 2.866-3.011 3.49-4.958.628-1.944.097-4.446-1.717-5.354-2.387-1.193-5.961.665-7.595-1.458-.747-.972-.636-2.34-.443-3.552 1.17-7.36 4.038-14.443 4.359-21.89.201-4.69-1.313-10.272-5.726-11.749-1.808-.603-3.811-.37-5.598.3-5.808 2.17-9.164 8.535-9.949 14.74-.784 6.205.466 12.457 1.089 18.68.19 1.936.013 4.412-1.791 5.098-1.43.544-2.96-.447-4.483-.544-3.06-.204-5.258 3.406-4.843 6.472.418 3.067 2.553 5.573 4.613 7.867 2.06 2.294 4.226 4.757 4.73 7.811.07.432.102.892-.089 1.284-.742 1.512-3.236.163-4.65 1.059-1.434.906-.688 3.133.208 4.581l6.374 10.334c1.082 1.754 2.207 3.554 3.87 4.76 1.66 1.207 4.01 1.688 5.76.614" fill="#24AC7B"/><path d="M441.473 305.162c-.403-.315 2.242-4.497 7.603-10.404 2.664-2.964 6.067-6.285 10-9.795a189.551 189.551 0 0113.407-10.675c9.864-7.11 19.302-12.734 26.235-16.585 6.943-3.84 11.403-5.92 11.699-5.444.3.483-3.63 3.438-10.158 7.888-6.519 4.465-15.631 10.426-25.343 17.428a332.223 332.223 0 00-13.37 10.24c-3.988 3.283-7.523 6.316-10.4 8.97-5.78 5.274-9.193 8.769-9.673 8.377M437.159 305.19c-.936.202-4.973-20.649-5.614-46.854-.72-26.212 2.228-47.282 3.174-47.144 1.08.12-.2 21.137.516 47.024.629 25.885 2.994 46.786 1.924 46.975" fill="#000105"/><path d="M414.321 358.192c2.756-3.358 6.95-5.553 11.341-5.935 4.302-.376 8.58.913 12.902.94 9.822.064 18.91-6.825 22.632-15.705 3.723-8.88 2.557-19.252-1.709-27.896-2.339-4.739-5.639-9.128-10.079-12.106-10.505-7.05-25.245-4.717-36.063 1.866-5.248 3.194-10.066 7.486-12.38 13.088-4.18 10.118.785 21.74 7.754 30.267 3.505 4.294 7.814 9.096 6.74 14.49l-1.138.991" fill="#A02E55"/><path d="M451.433 320.192l-.317-.112-.101-.02-.507-.048c-1.452-.125-3.063-.137-4.742-.219-3.351-.123-6.433-.788-8.36-2.6-1.942-1.734-2.563-4.521-1.354-6.653.85-1.524 2.414-2.348 4.1-2.348a5.47 5.47 0 012.08.42c2.427.917 4.455 3.459 6.16 6.51.873 1.52 1.65 3.009 2.45 4.296l.283.444.062.084.246.246M441.325 331.192c-.513-.058-1.035-.117-1.563-.183-3.333-.385-6.338-1.102-8.233-2.494-1.91-1.34-2.617-3.31-1.693-4.78.624-1.002 1.852-1.543 3.288-1.543.675 0 1.397.12 2.122.37 2.138.688 4.223 2.416 6.187 4.557-1.343-.873-2.395-1.373-2.969-1.373-.15 0-.267.033-.349.105-.565.492.772 2.623 3.21 5.341" fill="#7D2245"/><path d="M453.962 342.192c-1.339 0-5.32-3.14-9.481-7.556a65.403 65.403 0 01-3.752-4.324c-2.407-3.054-3.727-5.45-3.17-6.002.082-.08.197-.118.346-.118.566 0 1.604.562 2.93 1.543 1.81 1.339 4.15 3.463 6.553 6.013 4.624 4.9 7.72 9.526 6.918 10.326-.08.079-.195.118-.344.118M448.271 345.192c-1.97 0-6.205-1.447-10.845-3.813-6.05-3.087-10.505-6.565-9.946-7.773.13-.28.52-.414 1.115-.414 1.972 0 6.205 1.45 10.85 3.818 6.045 3.084 10.498 6.565 9.94 7.77-.128.28-.518.412-1.114.412" fill="#7D2245"/><path d="M407.48 339.756c-12.305 7.77-22.975 7.019-35.308-1.026-12.331-8.04-15.739-17.57-16.553-22.252-.815-4.68 1.055-10.27-.154-11.71-1.21-1.436-3.142-4.717-1.218-5.161 1.923-.444 3.746 1.14 6.029-.244 2.28-1.385 20.752-9.08 35.243.755 14.494 9.836 17.115 17.253 18.505 24.381 1.393 7.127 5.817 8.685 5.379 10.504-.441 1.82-2.769 1.785-4.967 2.292-2.2.507-6.955 2.461-6.955 2.461" fill="#E7A83C"/><path d="M372.037 298.367c.684.568.397 1.967-.216 3.362-.638 1.388-1.499 2.548-2.394 2.458-.877-.077-1.414-1.818-.572-3.688.84-1.877 2.524-2.695 3.182-2.132M382.03 309.323c.59.496.448 1.836.107 3.211-.365 1.367-.877 2.586-1.613 2.655-.717.084-1.422-1.532-.923-3.477.499-1.942 1.864-2.886 2.43-2.389M392.749 306.229c.697.257.893 1.794.442 3.43-.45 1.638-1.38 2.755-2.074 2.496-.695-.255-.893-1.792-.442-3.43.45-1.636 1.379-2.753 2.074-2.496M401.824 312.318c.666.45.758 1.692.411 2.877-.354 1.181-1.084 2.1-1.85 1.988-.756-.109-1.227-1.5-.775-3.022.45-1.522 1.56-2.29 2.214-1.843M392.779 320.255c.685.306.86 1.642.392 2.99-.468 1.346-1.4 2.19-2.084 1.884-.684-.306-.86-1.642-.392-2.99.467-1.344 1.4-2.19 2.084-1.884" fill="#274045"/><path d="M355.63 305.38a1.115 1.115 0 011.238 0c2.87 1.933 15.317 11.266 13.357 26.735-1.225 9.663-1.7 14.63-1.881 17.138-.066.91-1.12 1.22-1.855.656-10.841-8.316-18.756-39.19-10.858-44.53" fill="#3C5C2F"/><path d="M373.233 360.192h91.4c13.143 0 23.8-10.744 23.8-24h-139c0 13.256 10.657 24 23.8 24" fill="#644133"/><path fill="#B2372B" d="M0 371h600v-12H0z"/></g></svg>