<svg width="267" height="189" xmlns="http://www.w3.org/2000/svg"><g fill="none" fill-rule="evenodd"><path d="M256.579 188.404H9.829C3.673 182.429-1.68 174.241.493 165.769c2.865-11.171 17.097-15.233 19.431-26.554 2.294-11.129-8.436-20.807-8.734-32.218-.192-7.336 4.178-14.138 9.82-17.974 5.643-3.836 12.382-5.148 18.983-5.696a95.798 95.798 0 0126.847 1.569c8.492 1.715 16.991 4.596 25.54 4.596a34.22 34.22 0 004.524-.29c3.985-.53 7.966-1.89 11.148-4.602 4.207-3.585 6.63-9.159 8.344-14.728 4.717-15.331 5.321-32.457 13.13-46.149C138.511 7.968 155.817 0 172.757 0c2.098 0 4.189.122 6.258.367 18.785 2.22 35.93 12.984 50.908 25.751 14.633 12.471 28.24 27.865 33.88 47.351 5.64 19.488 1.253 43.653-14.097 55.015-3.82 2.827-8.741 5.809-8.757 10.902-.006 1.742.619 3.403 1.253 4.998 4.504 11.324 10.06 22.242 12.869 34.221a63.733 63.733 0 011.508 9.799" fill="#C7E5E2"/><path d="M60.437 85.555a1.651 1.651 0 012.737.412c2.343 5.027 7.264 17.356 9.202 25.248 2.746 11.191 4.587 18.539 4.587 18.539L89 149.858s-8.287 1.623-12.74-6.118c-3.37-5.858-3.165-14.206-3.165-14.206S66.97 98.277 60.26 87.595a1.7 1.7 0 01.178-2.04" fill="#493A2A"/><path d="M95 188l-2.976-50.906h1.168V133H55.344a17.404 17.404 0 011.459 8.529L53 188h42" fill="#937F7C"/><path d="M67 188l2.684-45.599c.2-3.42 1.41-6.698 3.464-9.401H109a14.463 14.463 0 00-2.69 9.302L109 188H67" fill="#C2C0B1"/><g><path d="M150 176.172c0-5.427 4.477-16.172 10-16.172s10 10.745 10 16.172c0 5.428-4.477 9.828-10 9.828s-10-4.4-10-9.828M174 176.172c0-5.427 4.477-16.172 10-16.172s10 10.745 10 16.172c0 5.428-4.477 9.828-10 9.828s-10-4.4-10-9.828M198 176.172c0-5.427 4.477-16.172 10-16.172 5.522 0 10 10.745 10 16.172 0 5.428-4.478 9.828-10 9.828-5.523 0-10-4.4-10-9.828" fill="#B97C4A"/><path d="M218.826 173h-69.633c-1.753 0-3.174 1.437-3.174 3.213 0 1.107-.016 2.214-.019 3.318 0 .533.002 1.065.01 1.596.019 1.146 1.324.744 2.062.744.898 0 1.677.625 1.884 1.508.633 2.709 3.022 4.621 5.77 4.621h8.57c2.748 0 5.137-1.912 5.77-4.621a1.94 1.94 0 011.883-1.508h.123a1.94 1.94 0 011.881 1.508c.636 2.709 3.023 4.621 5.772 4.621h8.568c2.75 0 5.137-1.912 5.771-4.621a1.94 1.94 0 011.883-1.508h.123a1.94 1.94 0 011.882 1.508c.634 2.709 3.023 4.621 5.772 4.621h8.568c2.748 0 5.136-1.912 5.77-4.621a1.94 1.94 0 011.882-1.508c.496 0 1.173.012 1.664.003.227-.005.392.011.387-.263-.007-.574.005-1.813.005-2.418v-2.98c0-1.776-1.42-3.213-3.174-3.213" fill="#CE8269"/><path d="M149.51 180c22.99-.66 45.99-.09 68.979-.75.68-.019.683-1.27 0-1.25-22.989.66-45.989.091-68.979.75-.679.02-.681 1.27 0 1.25" fill="#FFFFFE"/></g><g><path d="M158.076 110.814c-2.09 5.267-1.513 12.944-4.69 14.247-3.175 1.304-3.463-6.087-4.617-8.791-1.156-2.705-5.702-6.393-10.609-6.09-4.908.306-7.577 6.09-8.443 12.17-.321 2.247-5.195 4.292-5.484-3.042-.122-3.093-4.509-8.083-6.928-5.179-3.392 4.072-.265 11.406-4.69 13.454-3.898 1.802-3.97-8.609-3.97-13.454 0-2.321-1.783-3.998-3.645-5.158V143h56v-36c-1.18.818-2.22 2.043-2.924 3.814" fill="#EAC5C3"/><path d="M105 97v12.186c1.862 1.16 3.645 2.836 3.645 5.157 0 4.844.072 15.252 3.97 13.45 4.425-2.048 1.298-9.38 4.69-13.45 2.419-2.903 6.806 2.085 6.928 5.177.289 7.332 5.163 5.288 5.484 3.042.866-6.08 3.535-11.862 8.443-12.167 4.907-.304 9.453 3.384 10.609 6.088 1.154 2.704 1.442 10.092 4.617 8.789 3.177-1.303 2.6-8.978 4.69-14.243.704-1.771 1.745-2.996 2.924-3.814V97h-56" fill="#FBF7E8"/><path fill="#C5B397" d="M131 183h5v-41h-5z"/><path fill="#C5B397" d="M114 188h38v-6h-38z"/></g></g></svg>