<svg width="267" height="189" xmlns="http://www.w3.org/2000/svg"><g fill="none" fill-rule="evenodd"><path d="M256.579 188.404H9.829C3.673 182.429-1.68 174.241.493 165.769c2.865-11.171 17.097-15.233 19.431-26.554 2.294-11.129-8.436-20.807-8.734-32.218-.192-7.336 4.178-14.138 9.82-17.974 5.643-3.836 12.382-5.148 18.983-5.696a95.798 95.798 0 0126.847 1.569c8.492 1.715 16.991 4.596 25.54 4.596a34.22 34.22 0 004.524-.29c3.985-.53 7.966-1.89 11.148-4.602 4.207-3.585 6.63-9.159 8.344-14.728 4.717-15.331 5.321-32.457 13.13-46.149C138.511 7.968 155.817 0 172.757 0c2.098 0 4.189.122 6.258.367 18.785 2.22 35.93 12.984 50.908 25.751 14.633 12.471 28.24 27.865 33.88 47.351 5.64 19.488 1.253 43.653-14.097 55.015-3.82 2.827-8.741 5.809-8.757 10.902-.006 1.742.619 3.403 1.253 4.998 4.504 11.324 10.06 22.242 12.869 34.221a63.733 63.733 0 011.508 9.799" fill="#F3DFAA"/><path fill="#97D0C2" d="M119 171h50V71h-50z"/><path d="M167 168h-45v-64h18.53l-16.624 21.562a1.106 1.106 0 00.24 1.585c.208.152.455.225.699.225.357 0 .71-.157.94-.457L143.456 104h5.546l-25.236 31.871a1.11 1.11 0 00.218 1.59c.213.156.463.233.712.233.354 0 .701-.154.932-.445L151.954 104H167v64M150.948 103H148l13.899-16.581c.232-.274.58-.419.93-.419.249 0 .499.07.711.22.515.358.612 1.029.218 1.499L150.948 103" fill="#A8D7C9"/><path d="M125.113 138c-.237 0-.475-.08-.677-.243-.488-.394-.58-1.133-.207-1.65L148.196 103H151l-25.002 34.538c-.22.303-.55.462-.885.462" fill="#AED9CD"/><path d="M142.815 104H140l16.966-22.55a1.135 1.135 0 011.58-.228c.5.369.602 1.068.231 1.562L142.815 104" fill="#A8D7C9"/><path d="M125.126 127c-.234 0-.47-.072-.672-.221a1.106 1.106 0 01-.23-1.56L140.19 104H143l-16.97 22.55c-.222.296-.561.45-.904.45" fill="#AED9CD"/><path d="M115 95.803s-6.839-13.287-9.487-24.472c-1.549-6.539-8.576-35.576-11.065-32.032-2.49 3.545 2.703 20.166 5.152 27.735 1.973 6.098 8.621 24.316 8.621 24.316s-19.38-36.828-25.27-37.592c-5.889-.763 4.077 13.304 6.075 16.167 6.668 9.565 11.11 15.779 16.969 23.069 0 0-41.108-38.677-45.398-32.95-4.291 5.726 15.634 13.777 24.93 20.422 7.124 5.092 22.522 17.449 22.522 17.449s-2.2-3.575-10.155-8.615c-11.977-7.586-32.838-16.793-34.069-12.89-1.67 5.298 10.007 7.098 19.987 10.81 22.224 8.262 24.793 15.78 24.793 15.78L115 95.803" fill="#17493A"/><path d="M123.391 96.905s-5.47-7.802-14.505-1.35c-9.035 6.454-3.297 17.992-.516 21.16 2.78 3.17 28.037 29.518 31.417 35.958 3.38 6.44 14.72 23.595 18.396 22.252 3.677-1.342.882-5.809-.621-17.003-1.502-11.192-6.653-23.477-13.348-31.765-6.695-8.287-20.823-29.252-20.823-29.252" fill="#E77933"/><path d="M126.613 103.016c-1.258.203-2.555 1.04-3.624 1.744-1.09.721-2.128 1.526-3.18 2.305-1.976 1.459-4.092 2.884-6.532 3.201-.685.088-1.277.562-1.277 1.364 0 .667.588 1.451 1.277 1.363 2.77-.36 5.139-1.63 7.408-3.306 1.05-.779 2.076-1.593 3.145-2.341.562-.39 1.14-.752 1.719-1.11.622-.384 1.311-.66 1.912-1.074 1.106-.757.354-2.339-.848-2.146M135.15 113.011c-.606-.083-1.233.312-1.754.62-.499.295-.983.611-1.469.933-.907.603-1.815 1.203-2.711 1.824-1.87 1.294-3.737 2.585-5.605 3.879-1.418.982-.11 3.5 1.31 2.504 1.89-1.32 3.778-2.642 5.666-3.964.898-.627 1.783-1.275 2.67-1.921.93-.676 2.325-1.456 2.7-2.69.194-.638-.306-1.116-.807-1.185M144.366 127.154c-1.733 1.103-3.349 2.43-5 3.676-.832.63-1.664 1.258-2.495 1.89-.841.645-1.792 1.25-2.515 2.058-.983 1.097.256 2.727 1.441 2.071.85-.47 1.613-1.205 2.389-1.81.85-.663 1.702-1.319 2.553-1.975 1.672-1.29 3.41-2.525 4.928-4.037.923-.918-.259-2.533-1.3-1.873M153.71 145.028c-.823.178-1.573.738-2.283 1.156-.656.387-1.3.789-1.945 1.19l-1.879 1.165c-.751.466-1.567.894-2.247 1.45-.468.385-.448 1.123-.096 1.558.394.488 1.038.568 1.602.306.725-.337 1.394-.857 2.064-1.284l1.92-1.222c.625-.395 1.248-.79 1.862-1.202.758-.506 1.599-.97 2.151-1.69.237-.306.15-.805-.079-1.08-.261-.313-.658-.436-1.07-.347" fill="#BD5D2E"/><path d="M173.927 176.2s33.908-34.192 11.302-37.042c-22.605-2.848-33.908 18.047-33.908 18.047s24.49-33.242 2.826-37.041C132.483 116.363 136.251 180 136.251 180l37.676-3.8" fill="#8BA577"/><path d="M136.906 173.304s10.388-62.173-15.107-60.26c-25.497 1.911-17.942 29.65-17.942 29.65s-8.499-37.303-24.553-27.739c-16.053 9.567 7.554 39.22 7.554 39.22s-32.105-15.307-27.384-1.914C64.197 165.65 91.58 180 91.58 180l45.325-6.696" fill="#135E3C"/><path d="M92.179 188h73.642c10.592 0 19.179-8.506 19.179-19H73c0 10.494 8.586 19 19.179 19" fill="#D8BDB1"/><path d="M110 172.771c0-7.306 6.268-21.771 14-21.771s14 14.465 14 21.771c0 7.307-6.268 13.229-14 13.229s-14-5.922-14-13.229M142 172.771c0-7.306 6.044-21.771 13.5-21.771 7.455 0 13.5 14.465 13.5 21.771 0 7.307-6.045 13.229-13.5 13.229-7.456 0-13.5-5.922-13.5-13.229M174 172.771c0-7.306 6.268-21.771 14-21.771 7.73 0 14 14.465 14 21.771 0 7.307-6.27 13.229-14 13.229-7.732 0-14-5.922-14-13.229" fill="#E8DACE"/><path d="M202.74 169h-93.455c-2.353 0-4.26 1.822-4.26 4.07 0 1.4-.021 2.803-.025 4.205-.001.672.002 1.346.015 2.02.025 1.45 1.776.944 2.768.944 1.205 0 2.249.79 2.526 1.908.852 3.431 4.058 5.853 7.746 5.853h11.5c3.69 0 6.894-2.422 7.745-5.853.277-1.119 1.323-1.908 2.526-1.908h.164c1.205 0 2.25.79 2.527 1.908.85 3.431 4.055 5.853 7.745 5.853h11.5c3.69 0 6.894-2.422 7.745-5.853.278-1.119 1.324-1.908 2.527-1.908h.164c1.202 0 2.248.79 2.526 1.908.851 3.431 4.056 5.853 7.745 5.853h11.5c3.69 0 6.894-2.422 7.745-5.853.278-1.119 1.324-1.908 2.527-1.908.664 0 1.572.012 2.23.002.305-.005.529.014.522-.333-.011-.725.007-2.297.007-3.063-.002-1.258-.002-2.518-.002-3.776 0-2.247-1.906-4.069-4.257-4.069" fill="#3F487A"/><path d="M108.693 178c31.2-.33 62.413-.045 93.613-.375.924-.01.926-.635 0-.625-31.2.33-62.413.045-93.613.375-.922.01-.926.635 0 .625" fill="#FFFFFE"/></g></svg>