<?xml version="1.0" encoding="UTF-8"?>
<svg width="600px" height="371px" viewBox="0 0 600 371" version="1.1" xmlns="http://www.w3.org/2000/svg" xmlns:xlink="http://www.w3.org/1999/xlink">
    <title>Artwork</title>
    <g id="Graphics" stroke="none" stroke-width="1" fill="none" fill-rule="evenodd">
        <g id="Artwork-1" transform="translate(0.000000, -29.000000)">
            <g id="Artwork" transform="translate(0.000000, 29.000000)">
                <path d="M498.285321,369 L12.0647742,364.772679 C-0.697202724,334.200205 6.18763138,297.215906 14.2681746,264.112114 C21.0431556,236.362788 30.4229234,205.686692 56.5658575,191.446183 C68.5461871,184.918049 81.7961654,183 95.578509,183 C99.5691355,183 103.606238,183.160719 107.668692,183.416599 C100.758507,208.034029 95.3841534,233.277415 96.2481906,258.774567 C96.6601399,270.929964 99.5585727,284.70735 110.06856,290.808311 C114.082425,293.136615 118.592741,293.967699 123.236149,293.967699 C128.061237,293.967699 133.029978,293.068944 137.73465,292.015815 C148.612223,289.575431 158.900392,286.595793 168.654083,283.231277 L168.654083,283.235507 C180.602724,280.031709 198.276404,271.634165 205.997812,269.828196 C204.113408,278.817861 202.5142,287.93018 201.238214,297.1863 C198.937635,313.903144 197.896143,331.510284 202.676867,347.472173 C202.630391,347.503894 202.609265,347.525041 202.615603,347.5335 C202.615603,347.53773 202.624053,347.539844 202.636729,347.539844 C202.649404,347.539844 202.668417,347.53773 202.693768,347.5335 C203.676108,350.802854 204.903506,354.002422 206.413986,357.111057 C206.413986,357.111057 210.144768,356.878438 216.410622,356.523165 C216.79722,357.058189 217.086641,357.360593 217.230295,357.360593 C217.245083,357.360593 217.257759,357.356364 217.268321,357.352135 C217.376062,357.297152 217.344374,356.986288 217.20072,356.478756 C220.849111,356.271514 225.293938,356.028321 230.311269,355.768211 C230.619703,356.740981 230.887998,357.307726 231.044327,357.307726 C231.048552,357.307726 231.052778,357.307726 231.057003,357.305611 C231.21122,357.27389 231.234458,356.692343 231.164743,355.723802 C235.95603,355.474265 241.250106,355.21204 246.869517,354.949815 C247.008946,355.679393 247.148375,356.093878 247.275128,356.093878 C247.277241,356.093878 247.277241,356.093878 247.279353,356.093878 C247.406107,356.083304 247.50751,355.658246 247.575112,354.918094 C252.214294,354.704508 257.068958,354.490921 262.0377,354.287909 C262.105302,354.431709 262.168679,354.507839 262.229943,354.507839 C262.229943,354.507839 262.232055,354.507839 262.234168,354.507839 C262.295432,354.50361 262.350359,354.421136 262.396835,354.273106 C268.774655,354.01511 275.344717,353.774032 281.889429,353.571019 C282.003508,353.900915 282.111248,354.080666 282.202088,354.080666 C282.204201,354.080666 282.208426,354.080666 282.210538,354.080666 C282.301379,354.070093 282.36898,353.883997 282.417569,353.554102 C287.777135,353.391268 293.126138,353.251697 298.335711,353.148076 C298.439227,353.497004 298.544855,353.689443 298.64837,353.689443 L298.650483,353.689443 C298.753998,353.685214 298.846951,353.488545 298.920891,353.135387 C305.047316,353.016963 310.98361,352.949292 316.541756,352.949292 C316.987506,352.949292 317.426919,352.949292 317.868444,352.951407 C317.955059,353.666182 318.064912,354.082781 318.212791,354.093355 C318.214904,354.093355 318.217017,354.093355 318.219129,354.093355 C318.360671,354.093355 318.521225,353.67464 318.662767,352.953522 C323.920929,352.970439 328.807282,353.052913 333.152818,353.215747 C344.290236,353.632346 353.684792,359.574703 363.286379,359.574703 C366.393955,359.574703 369.520544,358.952976 372.737973,357.318299 C380.91992,337.296151 378.091201,316.206071 373.344278,296.336183 C381.175539,304.750645 390.073644,312.040077 400.049153,317.773077 C399.704806,325.997214 403.817961,334.511068 409.112037,341.153397 C412.477346,345.378603 416.596838,350.094423 415.758152,355.376988 C415.346203,355.787243 414.957492,356.220761 414.592019,356.675425 L415.705338,355.681508 C415.724351,355.580001 415.741251,355.478495 415.758152,355.376988 C418.398852,352.746279 421.969079,351.054505 425.685073,350.724609 C426.217438,350.675971 426.751916,350.654823 427.284281,350.654823 C430.955911,350.654823 434.614865,351.644511 438.305508,351.667773 C438.349872,351.667773 438.394236,351.667773 438.4386,351.667773 C443.800278,351.667773 448.933799,349.500188 453.044842,346.03205 C460.326837,345.114263 468.079934,342.168461 475.429531,338.072253 C484.133279,339.351657 492.908855,340.311739 501.578803,340.311739 C503.885719,340.311739 506.184184,340.244068 508.4742,340.096038 C518.270142,339.461622 519.210231,338.698209 524.290939,337.535115 C524.859217,337.404002 525.429609,337.334216 526,337.300381 C518.48351,349.007458 508.930513,359.678324 498.285321,369 M541.182,302 C540.964247,302 540.757065,301.995769 540.556225,301.993654 C540.65136,301.653095 540.74438,301.316766 540.839515,300.980438 C537.996043,300.218939 534.685353,300.57642 531.922217,299.49763 C528.744716,298.255964 526.412857,295.258619 521.930953,293.9958 C478.344435,281.703939 411.955172,242.622122 411.955172,242.622122 C411.955172,242.622122 370.512357,178.017401 352.142892,151.652616 C349.092237,147.273998 345.692755,142.914416 341.007897,140.363395 C340.785916,140.242824 340.559706,140.126484 340.331383,140.01649 C343.606133,139.309988 347.46649,138.165624 351.667218,136.304183 C354.971565,134.836182 358.468296,132.917628 361.97137,130.463909 C363.74299,129.245511 365.438503,127.883274 367.212238,126.358161 C368.155129,125.471861 369.066308,124.490373 369.702654,122.982182 C370.004971,122.23549 370.207926,121.245542 369.990173,120.19002 C369.77242,119.132382 369.163557,118.218584 368.281975,117.579771 C367.191097,116.864808 366.1425,116.661741 365.18481,116.661741 C364.510411,116.661741 363.880407,116.763275 363.311713,116.858462 C361.82761,117.173638 360.753645,117.624191 359.542262,118.053592 C358.385846,118.489339 357.231544,118.965276 356.083585,119.485633 C357.009563,118.271465 357.899602,117.050952 358.749472,115.826208 C359.468268,114.791838 360.159581,113.757469 360.825524,112.7231 C361.463984,111.669693 362.163753,110.741087 362.787414,109.359813 C363.077047,108.697732 363.322283,107.987 363.434331,107.147235 C363.544264,106.330739 363.518895,105.290024 362.984026,104.287384 C362.485097,103.293205 361.489353,102.595164 360.624684,102.322294 C359.791726,102.049423 359.091957,101.996541 358.476753,101.996541 C358.449269,101.996541 358.4239,101.996541 358.398531,101.996541 C358.278027,101.994426 358.157523,101.992311 358.037019,101.992311 C355.529689,101.992311 353.18726,102.800346 351.269766,103.874905 C347.21914,106.189016 344.55748,109.372505 342.284817,112.181589 C333.346378,123.536384 329.612867,131.707691 330.052601,131.940371 C330.065285,131.948832 330.082198,131.953063 330.099111,131.953063 C330.84539,131.953063 335.47951,124.498834 344.601877,114.127642 C346.914708,111.536431 349.584824,108.740037 352.93991,107.005512 C354.447267,106.237667 356.081471,105.742693 357.741044,105.742693 C357.914401,105.742693 358.087757,105.746924 358.263228,105.759615 C358.26957,105.759615 358.273799,105.759615 358.280141,105.759615 C358.753701,105.759615 359.157495,105.83788 359.362563,105.918261 C359.565517,106.002872 359.552833,106.040947 359.569745,106.083252 C359.571859,106.083252 359.571859,106.083252 359.571859,106.083252 C359.643739,106.083252 359.616256,106.927247 359.19132,107.741628 C358.840379,108.513703 358.106784,109.522689 357.46621,110.514753 C356.806609,111.49624 356.121639,112.479843 355.415528,113.463446 C354.001191,115.428536 352.487491,117.385165 350.878657,119.318526 C348.481261,122.197415 345.866112,125.023422 343.045895,127.747896 C341.804915,128.799188 340.59776,129.911822 339.435002,131.087915 L342.371495,134.197369 L342.923277,133.702395 C343.967645,132.767443 344.986644,131.8198 345.978159,130.855235 C348.673644,128.574969 351.5446,126.601417 354.498006,124.949388 C356.631138,123.747912 358.817124,122.730465 361.005223,121.863202 C362.085531,121.446493 363.265202,120.972671 364.123529,120.784412 C364.512525,120.684994 364.888835,120.649034 365.203837,120.649034 C365.633001,120.649034 365.945888,120.716723 366.015654,120.794988 C366.169984,120.945173 366.305286,120.962095 366.117131,121.594562 C365.89515,122.207992 365.311657,122.982182 364.656284,123.612534 C363.112987,125.019192 361.504152,126.411043 359.891089,127.606173 C356.67342,130.042969 353.443067,132.01229 350.373385,133.581824 C345.096577,136.274569 340.344068,137.803912 336.716262,138.779054 C335.650753,138.550604 334.566217,138.430034 333.490137,138.430034 C332.845335,138.430034 332.20476,138.474455 331.574757,138.561181 C331.15405,138.798092 330.735457,139.028657 330.321092,139.257106 C331.139251,138.28831 331.47328,137.679111 331.422541,137.643152 C331.418313,137.636806 331.409857,137.634691 331.4014,137.634691 C331.223815,137.634691 330.31475,138.766362 328.458565,140.259746 C328.369773,140.308398 328.285208,140.352819 328.196416,140.399355 C328.980749,116.746352 330.735457,58.9739682 329.40357,51.7439591 C327.921582,43.7143761 325.441736,35.8645915 321,29.4066577 C330.2323,28.3807495 339.597788,28 348.940022,28 C353.339476,28 357.736816,28.084611 362.1109,28.2242191 C372.956263,28.5711242 384.328038,29.3981966 393.460975,34.9254095 C404.908857,41.8550496 410.485868,54.6820757 414.487871,66.9358624 C424.561584,97.7829141 428.967381,130.265073 427.449453,162.49763 C426.868074,174.85295 426.407199,189.418732 436.798029,196.980839 C442.108662,200.845446 449.085211,201.820588 455.710819,202.80419 C475.752541,205.774036 496.295307,210.279571 512.447075,221.860701 C536.497142,239.110766 546.58354,270.226458 541.871199,298.34692 C541.66613,299.569549 541.435693,300.787948 541.182,302 M153.015207,206 L152,187.661827 C152.339109,187.67029 152.682456,187.676638 153.021565,187.682986 C153.651036,187.695681 154.284745,187.702028 154.920574,187.702028 C160.99698,187.702028 167.257776,187.056691 172.200286,183.82577 C178.191914,179.911426 181.006517,173.04757 183.5244,166.606887 C193.458168,141.197505 203.96842,115.743689 219.531394,92.9706698 C227.485614,81.3313148 236.887405,70.375383 247.698617,61 C244.987866,84.2406245 247.035236,113.48818 272,121.494601 L270.51216,141.536043 C268.623748,139.716402 267.254597,138.034292 266.269062,136.927696 C266.120702,136.675908 266.025327,136.536261 265.965983,136.536261 C265.959625,136.536261 265.953267,136.538377 265.946908,136.542609 C265.94055,136.544725 265.938431,136.551073 265.936311,136.55742 C265.726488,136.335255 265.539978,136.144827 265.368304,135.994601 C264.124199,135.315409 262.649075,135.000146 260.983204,135.000146 C248.480687,135.000146 225.166958,152.771268 206.925025,168.559828 L153.015207,206" id="Fill-130" fill="#D6C7C5"></path>
                <path d="M326.279612,101.192009 C326.279612,101.192009 349.473931,88.2327295 338.471071,40.5854375 C328.538367,-2.42897601 310.433,8.40876469 310.433,8.40876469 L326.279612,101.192009" id="Fill-131" fill="#000105"></path>
                <path d="M347.105428,64.9799551 C348.604375,71.1500243 344.81712,77.3662798 338.644984,78.865235 C332.474948,80.3620909 326.258726,76.5748147 324.759779,70.4026461 C323.262931,64.2346762 327.050187,58.0184207 333.220223,56.5194655 C339.392358,55.0205102 345.606481,58.8098858 347.105428,64.9799551" id="Fill-132" fill="#B4706A"></path>
                <path d="M330.433,70.192009 C330.545665,68.9444299 331.065657,67.8216088 331.806646,66.8299985 C332.543301,65.8319352 333.581119,64.9887438 334.883266,64.4897121 C336.194079,64.0100395 337.793055,64.1132874 338.967371,64.7757949 C340.195852,65.3694705 340.97584,66.4406677 341.433,67.5656399 C340.219685,67.2021212 339.2447,66.7633175 338.293548,66.6751266 C337.366228,66.5611237 336.564574,66.5976906 335.749919,66.9203404 C334.083778,67.505412 332.458803,68.832578 330.433,70.192009" id="Fill-133" fill="#000105"></path>
                <path d="M248.242603,53.234706 C251.619033,31.8473719 272.859843,-3.9106716 310.601761,18.098523 C322.473245,25.0196401 327.534713,37.6499889 329.947961,50.7599981 C331.630883,59.9117481 328.394168,149.78864 328.394168,149.78864 C326.226479,174.259808 300.618538,186.04969 283.846469,177.33303 C275.935675,173.224081 269.989349,164.551991 269.396621,150.497518 L271.615115,120.472053 C244.275563,111.666253 244.453381,77.2453154 248.242603,53.234706" id="Fill-134" fill="#B4706A"></path>
                <path d="M272.378607,121.265477 C272.378607,121.265477 287.642205,126.485882 316.433,108.192009 C316.433,108.192009 300.725887,132.290135 271.433,142.192009 L272.378607,121.265477" id="Fill-135" fill="#975452"></path>
                <path d="M321.433,84.6909658 C321.433,93.254202 314.493106,100.192009 305.931957,100.192009 C297.370807,100.192009 290.433,93.254202 290.433,84.6909658 C290.433,76.1319027 297.370807,69.192009 305.931957,69.192009 C314.493106,69.192009 321.433,76.1319027 321.433,84.6909658" id="Fill-136" fill="#AE5E5A"></path>
                <path d="M263.433,73.692009 C263.433,65.6817789 256.757473,59.192009 248.526931,59.192009 C248.26007,59.192009 247.995216,59.1998163 247.730362,59.213479 C246.432176,68.2484096 245.814183,78.5773907 247.288939,88.1373584 C247.698258,88.1705391 248.109585,88.192009 248.526931,88.192009 C256.757473,88.192009 263.433,81.6983356 263.433,73.692009" id="Fill-137" fill="#AE5E5A"></path>
                <path d="M282.433,77.192009 C280.196598,83.7553129 272.807477,86.3946035 268.433,77.4840877 L282.433,77.192009" id="Fill-138" fill="#FFFFFE"></path>
                <path d="M277.270909,42.192009 C277.642946,43.7924239 277.319739,45.4795821 276.854693,47.0322881 C276.373369,48.6045114 275.685101,50.0964971 274.878245,51.5125823 C274.059763,52.9243304 273.180825,54.3035497 272.162373,55.5808456 C271.169499,56.886333 270.092916,58.1029085 268.914023,59.2934611 L268.73498,57.7646095 C271.590366,60.1175229 274.396922,62.5289881 276.989556,65.192009 C273.604017,63.4679849 270.430075,61.492405 267.307287,59.4561048 L266.433,58.8879359 L267.128245,57.9250847 C268.967504,55.3921788 270.869544,52.8527671 272.639046,50.289501 C273.543561,49.0143737 274.408548,47.7218978 275.215404,46.4012302 C276.008308,45.0718884 276.796562,43.7382093 277.270909,42.192009" id="Fill-139" fill="#000105"></path>
                <path d="M294.593251,54.4942283 C294.228017,52.7186688 293.794986,50.905033 293.226359,49.2537226 C292.926736,48.4380874 292.592121,47.6384844 292.167838,47.0312671 C291.732619,46.3839695 291.297401,46.1354713 291.10713,46.1835677 C290.969347,46.1434874 290.461957,46.3719454 289.969876,46.9811667 C289.462485,47.5462996 289.033828,48.3058223 288.62048,49.079373 C287.828776,50.6485187 287.122367,52.3839979 286.479381,54.0793967 L286.464072,54.1214811 C286.275987,54.6204814 285.681116,54.8850118 285.136546,54.7126663 C284.675084,54.564369 284.397331,54.1515413 284.436698,53.7266896 C284.620408,51.7627525 285.020634,49.878976 285.792654,47.9891875 C286.175384,47.0452953 286.658717,46.1134271 287.382623,45.181559 C287.760979,44.724643 288.207132,44.265723 288.836996,43.8649195 C289.45155,43.46612 290.348231,43.1374611 291.273344,43.1995857 C292.176586,43.239666 293.042648,43.6244374 293.61565,44.0953815 C294.199586,44.5663256 294.593251,45.0813581 294.886312,45.5903786 C295.470248,46.6104235 295.791741,47.6024121 296.008257,48.5903928 C296.447849,50.566354 296.51346,52.4862028 296.353807,54.4421239 C296.316628,54.8890198 295.892345,55.2236907 295.404638,55.1896224 C294.995663,55.1615662 294.674171,54.8850118 294.601999,54.5323047 L294.593251,54.4942283" id="Fill-140" fill="#000105"></path>
                <path d="M262.593637,52.4945657 C262.22839,50.717194 261.795342,48.9057576 261.226693,47.2546253 C260.927059,46.4370744 260.592431,45.6395615 260.168132,45.0304059 C259.732897,44.3851819 259.297662,44.1367105 259.107384,44.182798 C258.969596,44.1447257 258.462186,44.3711553 257.970086,44.9823147 C257.462677,45.5453828 257.031816,46.3068273 256.620639,47.0802946 C255.828906,48.6472672 255.122469,50.3805554 254.479459,52.0797788 L254.464149,52.1198549 C254.276057,52.6188014 253.681163,52.8833032 253.136573,52.7109763 C252.675093,52.5646988 252.39733,52.1519157 252.436698,51.725106 C252.620415,49.7633846 253.022843,47.8778075 253.794893,45.9902267 C254.17545,45.0444325 254.658802,44.1126649 255.382735,43.1808973 C255.761105,42.7260344 256.207276,42.2651601 256.837163,41.8623961 C257.451741,41.4676472 258.350643,41.1390238 259.273604,41.1991378 C260.17688,41.2392139 261.042976,41.6239437 261.615999,42.094837 C262.199957,42.5657303 262.593637,43.082711 262.88671,43.5916766 C263.470668,44.6096076 263.792173,45.6014893 264.008697,46.5913671 C264.446119,48.5671152 264.51392,50.484753 264.354261,52.4424669 C264.31708,52.8873108 263.89278,53.2219456 263.405055,53.1898848 C262.998252,53.1618315 262.67456,52.8833032 262.602385,52.5306341 L262.593637,52.4945657" id="Fill-141" fill="#000105"></path>
                <path d="M322.433,9.24663145 C322.433,9.24663145 312.205008,29.2127554 296.409532,33.9870781 C280.614055,38.7592714 294.044149,27.9840381 296.25411,25.4904021 C298.461943,22.9925071 275.244572,34.6387029 263.032299,31.1697592 C250.822155,27.7050745 263.839212,0.718013018 291.248696,0.211193745 C318.658181,-0.291366542 322.433,9.24663145 322.433,9.24663145" id="Fill-142" fill="#000105"></path>
                <path d="M310.867913,18.5238844 C310.867913,18.5238844 305.755921,73.5994029 330.584047,57.1118955 C330.584047,57.1118955 341.780196,19.2589962 319.781961,6.19200905 L310.867913,18.5238844" id="Fill-143" fill="#000105"></path>
                <path d="M334.504613,139.310978 C338.371766,138.374603 343.945144,136.820304 350.248214,133.688507 C353.392171,132.123664 356.700687,130.160228 359.996212,127.730713 C361.648304,126.539154 363.296067,125.151463 364.876706,123.749009 C365.547937,123.12054 366.145548,122.348663 366.3729,121.737067 C366.565608,121.10649 366.427032,121.089618 366.268968,120.939882 C366.145548,120.804909 365.268618,120.697353 364.331061,120.929337 C363.451966,121.117034 362.243751,121.58944 361.137303,122.004904 C358.89626,122.869575 356.657382,123.883982 354.472635,125.081867 C350.096646,127.464985 345.900373,130.520859 342.163136,134.198874 L339.15559,131.098712 L339.69907,130.624198 C343.771923,127.081155 347.468021,123.320891 350.765711,119.467833 C352.413473,117.540249 353.963799,115.589467 355.412358,113.630249 C356.135554,112.649585 356.837098,111.668922 357.512659,110.690367 C358.168733,109.701268 358.920078,108.695297 359.279511,107.925529 C359.714728,107.111473 359.742876,106.267891 359.667092,106.272109 C359.64977,106.22993 359.662762,106.191969 359.454897,106.107611 C359.242701,106.02747 358.820476,105.94733 358.328962,105.949439 C356.445186,105.831338 354.580898,106.345922 352.876839,107.191613 C349.440572,108.920955 346.70585,111.708992 344.337056,114.29246 C334.773105,124.87519 330.026857,132.41259 329.435741,132.051959 C328.985367,131.819974 332.809215,123.673086 341.963932,112.352223 C344.291586,109.551532 347.017647,106.377557 351.166284,104.070361 C353.22328,102.948398 355.758799,102.115361 358.467539,102.197611 C359.117116,102.193393 359.857635,102.23979 360.747557,102.522389 C361.633148,102.794444 362.652985,103.490399 363.163986,104.481607 C363.711797,105.481251 363.73778,106.518857 363.625186,107.332913 C363.510428,108.170167 363.259257,108.878776 362.962617,109.538878 C362.323865,110.916025 361.607165,111.841856 360.953256,112.892115 C360.2712,113.923393 359.56316,114.954672 358.826972,115.98595 C357.354595,118.048507 355.771791,120.09841 354.078558,122.123005 C350.694257,126.172196 346.861748,130.11594 342.61784,133.808718 L342.052707,134.302213 L339.045162,131.202051 C343.092032,127.220346 347.649903,123.945141 352.402647,121.427051 C354.775771,120.161678 357.205192,119.100875 359.638944,118.206678 C360.879637,117.778561 361.979589,117.329353 363.499601,117.015119 C364.91135,116.783134 366.689028,116.521624 368.590126,117.734273 C369.493039,118.371177 370.116634,119.282245 370.339656,120.336721 C370.562677,121.389089 370.354812,122.37608 370.04518,123.12054 C369.393437,124.624224 368.46021,125.602779 367.494505,126.486431 C365.677852,128.006986 363.941314,129.365152 362.126827,130.57991 C358.538992,133.026296 354.957653,134.939117 351.573353,136.402731 C344.78743,139.329959 338.865446,140.481447 334.803419,140.936981 C330.71974,141.373535 328.450548,141.171075 328.433226,140.911674 C328.407243,140.586895 330.622303,140.228373 334.504613,139.310978 Z" id="Fill-144" fill="#000105"></path>
                <path d="M576.596867,321.429337 C576.596867,321.429337 582.677307,322.499576 586.90398,324.144773 C591.130653,325.794277 597.385541,325.531562 597.139633,323.59781 C596.481777,318.433959 566.033337,310.843228 566.033337,310.843228 C566.033337,310.843228 562.796601,310.24889 571.548399,306.22634 C580.300198,302.201638 577.5826,298.663603 577.5826,298.663603 C577.5826,298.663603 563.490187,301.348892 557.462291,301.503937 C555.064164,301.564232 538.933028,301.348892 538.933028,301.348892 L538.933028,301.409187 C528.577574,300.239891 517.644131,299.077056 511.193778,298.192009 C506.719095,310.47715 501.712663,322.581405 496.433,334.575837 C516.309503,336.811065 532.339754,337.252512 541.205048,336.679708 C559.551458,337.110388 576.561137,346.770536 579.373314,344.968141 C582.315801,343.081763 566.554578,334.950529 566.554578,334.950529 C572.391212,335.609469 592.610304,347.02679 593.205107,342.771674 C593.564511,340.211282 573.694313,328.908091 573.694313,328.908091 C573.694313,328.908091 581.973212,331.197154 591.769593,335.734366 C598.83997,339.007532 599.424264,336.333011 599.424264,336.333011 C599.949708,331.186387 576.596867,321.429337 576.596867,321.429337" id="Fill-145" fill="#B4706A"></path>
                <path d="M563.386538,310.19461 C563.531977,310.21588 563.406192,312.09823 561.973418,314.637807 C560.59371,317.136971 557.635789,320.214666 553.437704,321.254744 L553.622451,319.86372 L553.724652,319.927528 C557.449077,322.196983 559.726971,325.79578 560.695911,328.53529 C561.702194,331.306705 561.639301,333.180547 561.487965,333.191181 C561.261945,333.235847 560.971066,331.468353 559.79969,328.973442 C558.661726,326.497673 556.438863,323.309377 553.044625,321.239856 L552.950286,321.180301 L551.433,320.206159 L553.133067,319.785023 C556.883043,318.861927 559.673905,316.226637 561.165641,314.038007 C562.698649,311.832361 563.166414,310.115913 563.386538,310.19461" id="Fill-146" fill="#000105"></path>
                <path d="M126.674963,104.096904 C131.793689,123.645153 158.2029,127.489694 168.370381,110.085175 C170.99206,105.596186 172.159681,100.431746 172.433,95.192009 L125.433,95.192009 C125.562007,98.5426945 125.994945,101.503611 126.674963,104.096904 Z" id="Fill-147" fill="#AB4735"></path>
                <path d="M131.509937,64.2370288 L131.501413,65.2777919 L164.672023,65.5459639 L164.680547,64.5052009 L163.734398,64.9415126 C163.734398,64.9415126 163.832423,65.1522192 164.013555,65.5693758 C165.275087,68.4830867 170.361701,81.1382546 170.351047,93.7423421 C170.353178,99.4697315 169.309004,105.15881 166.470558,109.947598 C162.359926,116.875376 155.46199,120.104083 148.504387,120.112596 C143.973954,120.112596 139.443522,118.724912 135.722856,116.077245 C132.004321,113.427449 129.087029,109.534698 127.735997,104.456455 C126.968849,101.566156 126.514953,98.1863365 126.514953,94.2276059 C126.512822,86.6464239 128.183499,76.9432771 132.492312,64.5796931 L131.509937,64.2370288 L131.501413,65.2777919 L131.509937,64.2370288 L130.527562,63.8964928 C126.163344,76.4197031 124.433,86.3399415 124.433,94.2276059 C124.433,98.3438344 124.903943,101.906692 125.724365,104.988543 C127.194731,110.541407 130.425275,114.864086 134.514598,117.771411 C138.606052,120.680866 143.549892,122.192009 148.504387,122.192009 C156.097018,122.200507 163.768494,118.603596 168.2627,111.007516 C171.354731,105.782417 172.433,99.7144917 172.433,93.7423421 C172.420214,78.7268343 165.648006,64.1391247 165.624565,64.0710175 L165.34967,63.4708229 L130.772623,63.192009 L130.527562,63.8964928 L131.509937,64.2370288" id="Fill-148" fill="#000105"></path>
                <polygon id="Fill-149" fill="#000105" points="146.4675 170.192009 149.3985 170.192009 149.3985 121.192009 146.4675 121.192009"></polygon>
                <polygon id="Fill-150" fill="#000105" points="135.433 172.157509 163.433 172.157509 163.433 169.226509 135.433 169.226509"></polygon>
                <path d="M111.433,177.192009 C116.992804,153.583007 119.827131,130.420929 127.28858,127.144888 C134.786313,123.851981 136.653809,120.548534 143.086535,117.405305 C151.105032,113.482066 162.521306,110.035265 162.495695,111.561555 C162.435935,114.869219 145.058612,127.079536 145.058612,127.079536 C145.058612,127.079536 173.207656,112.64092 167.724685,119.819119 C162.243849,126.999426 144.8836,136.996202 144.8836,136.996202 C144.8836,136.996202 169.126909,127.754139 162.316415,134.249302 C155.505921,140.744466 143.632911,147.534768 143.632911,147.534768 C143.632911,147.534768 166.986224,140.426137 154.904054,148.770135 C148.597251,153.123434 146.970928,155.210487 146.748963,157.944738 C145.916593,168.139678 145.084223,176.194861 145.084223,176.194861 L111.433,177.192009" id="Fill-151" fill="#B4706A"></path>
                <path d="M532.493813,300.399719 C529.308512,299.154775 526.97093,296.149519 522.478024,294.883367 C478.784515,282.559061 412.232288,243.374087 412.232288,243.374087 C412.232288,243.374087 370.687744,178.59884 352.273188,152.164465 C349.215045,147.774288 345.807218,143.4032 341.11086,140.845445 C338.264646,139.295098 334.82715,138.593094 331.654565,139.038474 C283.13754,166.255446 268.531357,139.814708 264.447475,136.188041 C253.861596,130.408702 226.679516,150.896191 206.00791,168.830167 L152.101518,206.358751 L150.132692,170.707127 C136.503505,172.685887 122.874318,174.662527 109.247249,176.643408 C101.270222,203.8116 94.5647723,231.798444 95.524813,260.099174 C95.9380756,272.289866 98.8457486,286.107256 109.389242,292.225932 C117.599392,296.987258 127.882212,295.511141 137.143532,293.436942 C148.055783,290.989472 158.376751,288.001183 168.161537,284.626897 L168.161537,284.631139 C180.14827,281.418039 197.878294,272.996112 205.624318,271.184899 C203.733907,280.200667 202.1296,289.339444 200.849546,298.62244 C198.066911,318.844822 197.119586,340.365169 206.041819,358.721195 C206.041819,358.721195 292.824838,353.302403 333.184696,354.814575 C347.975257,355.365998 359.697079,365.630951 372.896049,358.929039 C381.10408,338.848755 378.266343,317.697437 373.504287,297.769855 C383.636637,308.654099 395.549196,317.663504 409.269513,323.864893 C425.683454,331.283654 443.67839,334.327086 461.442322,337.302649 C477.112391,339.92403 493.344073,342.672662 509.065004,341.656771 C518.892176,341.020514 519.835263,340.254884 524.932168,339.088412 C526.33938,338.763921 527.744472,338.8127 529.143207,338.863601 C530.853478,338.922985 532.553153,338.982369 534.231635,338.363079 C535.859254,326.859544 538.264654,313.065483 541.433,301.88644 C538.582548,301.122932 535.263732,301.481357 532.493813,300.399719" id="Fill-152" fill="#8BA577"></path>
                <path d="M298.433,149.716509 C301.209447,149.266509 303.886094,148.525509 306.433,147.667509 C303.572721,148.717509 300.910046,149.377509 298.433,149.716509" id="Fill-153" fill="#FFF1E2"></path>
                <path d="M329.478748,140.192009 C331.325733,138.698619 332.230294,137.566943 332.406998,137.566943 C332.415413,137.566943 332.423827,137.569058 332.428035,137.575404 C332.478522,137.611364 332.146149,138.220565 331.332044,139.189365 C330.707267,139.534156 330.093007,139.866255 329.478748,140.192009 M266.76327,136.583336 C266.64757,136.452189 266.538181,136.327387 266.433,136.213162 C266.435104,136.206816 266.437207,136.20047 266.443518,136.198355 C266.449829,136.194124 266.45614,136.192009 266.462451,136.192009 C266.521352,136.192009 266.616016,136.331618 266.76327,136.583336" id="Fill-154" fill="#FFFFFE"></path>
                <path d="M293.810053,153.192009 C290.192705,153.192009 286.720725,152.768617 283.585831,151.858323 C279.151051,150.596613 275.487354,148.4733 272.818058,146.248373 C270.134016,144.012861 268.475977,141.669384 267.561632,139.967346 C267.100247,139.112094 266.794763,138.424081 266.638861,137.93718 C266.487173,137.509553 266.415542,137.255518 266.43661,137.192009 C266.541949,137.306325 266.651502,137.431226 266.767375,137.562477 C267.435225,138.695052 269.173322,142.116063 273.466948,145.431226 C276.113068,147.46986 279.67564,149.408998 283.946091,150.547923 C286.891375,151.350252 290.16321,151.724954 293.588841,151.724954 C295.114152,151.724954 296.671066,151.650861 298.242726,151.506907 C298.522929,151.481504 298.803131,151.451866 299.083333,151.422229 C301.697852,151.183012 304.508302,150.71728 307.527323,149.976344 C309.240138,149.591056 310.898177,149.169781 312.490906,148.746389 C316.828774,147.607463 320.648373,146.324584 323.677928,144.857529 C326.243991,143.642393 328.180126,142.304473 329.576923,141.174015 C330.192104,140.848003 330.807285,140.51564 331.433,140.170575 C331.230749,140.411908 330.999003,140.674412 330.733548,140.958085 C329.404167,142.359514 327.211005,144.175867 324.143528,145.793226 C321.086584,147.419053 317.207995,148.837418 312.851166,150.058905 C308.500657,151.290977 303.627666,152.482827 298.377561,152.976079 C296.839608,153.117915 295.31219,153.192009 293.810053,153.192009" id="Fill-155" fill="#3A5E4E"></path>
                <path d="M526.90858,335.192009 C526.700617,335.192009 525.813025,334.565695 525.572903,331.247074 C525.328494,327.87591 525.356365,323.176456 526.046715,318.050353 C526.747784,312.922148 527.974119,308.378222 529.110409,305.187806 C530.223115,302.049933 531.179313,300.192009 531.3787,300.192009 C531.382988,300.192009 531.387276,300.192009 531.38942,300.192009 C531.826784,300.345435 528.859567,308.151236 527.528179,318.24161 C526.123897,328.323577 527.380247,335.15628 526.917155,335.192009 C526.915011,335.192009 526.910723,335.192009 526.90858,335.192009" id="Fill-156" fill="#3A5E4E"></path>
                <path d="M201.908281,348.740009 C201.890281,348.740009 201.878281,348.737009 201.878281,348.731009 C201.869281,348.719009 201.899281,348.689009 201.965281,348.644009 C201.971281,348.674009 201.980281,348.701009 201.989281,348.731009 C201.953281,348.737009 201.926281,348.740009 201.908281,348.740009" id="Fill-157" fill="#FFFFFE"></path>
                <path d="M202.449888,349.192009 C202.443555,349.169417 202.437222,349.149084 202.433,349.126493 C202.601885,349.002237 203.112761,348.717579 203.944517,348.290592 C204.991602,347.730313 206.577007,347.000594 208.645843,346.128546 C209.141942,345.92296 209.667595,345.710596 210.220692,345.495973 C210.172138,345.597636 210.193249,345.837111 210.277691,346.191804 C209.775259,346.365761 209.29816,346.53746 208.842172,346.70464 C206.756446,347.481802 205.141487,348.116634 204.062737,348.582028 C203.192981,348.93898 202.644106,349.149084 202.449888,349.192009 M375.387747,347.879419 C375.047867,347.879419 372.79959,346.941855 368.845579,345.751261 C364.606575,344.434153 358.353621,342.920495 350.500486,342.032633 C347.735,341.700532 344.773186,341.454281 341.640376,341.284841 C341.581267,340.939185 341.503158,340.744895 341.40816,340.738117 C341.40816,340.738117 341.406049,340.738117 341.403938,340.738117 C341.30894,340.738117 341.20761,340.921112 341.104168,341.255472 C336.941162,341.040849 332.478385,340.95274 327.774949,340.95274 C326.132545,340.95274 324.462699,340.961777 322.765408,340.98211 C321.125116,341.002442 319.459492,341.027293 317.766423,341.052145 C317.67987,340.837521 317.597539,340.724562 317.525763,340.724562 C317.521541,340.724562 317.519429,340.724562 317.517318,340.724562 C317.443431,340.733599 317.384322,340.848817 317.337879,341.056663 C313.307869,341.115402 309.134308,341.171882 304.853082,341.171882 C299.60077,341.171882 294.181685,341.086032 288.648602,340.817189 C286.237774,340.715525 283.852279,340.607084 281.492116,340.496384 C281.384452,339.820886 281.266233,339.434564 281.135348,339.434564 C281.133236,339.434564 281.133236,339.434564 281.133236,339.434564 C281.006573,339.434564 280.884132,339.80733 280.778579,340.464755 C271.952246,340.055841 263.514348,339.658224 255.650657,339.658224 C255.300222,339.658224 254.949786,339.660483 254.601461,339.660483 C251.850753,339.66952 249.171821,339.728259 246.577331,339.838959 C246.482333,339.224459 246.385224,338.756807 246.292338,338.472149 C248.973381,338.32756 251.7452,338.239452 254.593017,338.210083 C255.513438,338.198787 256.442304,338.192009 257.379614,338.192009 C267.128479,338.192009 277.690101,338.777139 288.70349,339.242533 C294.933222,339.545264 301.008846,339.624336 306.871254,339.624336 C312.368448,339.624336 317.677759,339.554301 322.756964,339.531709 C323.337505,339.52945 323.915935,339.527191 324.490142,339.527191 C334.287562,339.527191 343.160338,339.890921 350.618705,340.927889 C358.520395,341.962598 364.798681,343.656992 369.014464,345.163872 C371.14241,345.857443 372.732036,346.589421 373.812898,347.061592 C374.895871,347.538281 375.451079,347.813903 375.432551,347.863605 C375.429968,347.874901 375.415191,347.879419 375.387747,347.879419 M210.866676,345.988476 C210.63446,345.676708 210.452909,345.489195 210.336801,345.450789 C214.394254,343.882911 219.956891,342.116223 226.788274,340.783301 C232.395244,339.674038 238.846637,338.88784 245.918681,338.492481 C245.851127,338.783917 245.79835,339.258347 245.75824,339.877365 C239.448288,340.173319 233.642879,340.769746 228.491898,341.619201 C228.394789,341.325507 228.304014,341.165104 228.221683,341.165104 C228.219572,341.165104 228.217461,341.165104 228.217461,341.165104 C228.133018,341.174141 228.067575,341.361654 228.023243,341.698273 C227.666474,341.759271 227.316039,341.820269 226.965603,341.883527 C220.349548,343.04701 214.913574,344.608111 210.866676,345.988476" id="Fill-158" fill="#72C09E"></path>
                <path d="M217.442471,358.317509 C217.238471,358.317509 216.827471,357.888509 216.278471,357.129509 C216.647471,357.108509 217.016471,357.087509 217.400471,357.066509 C217.604471,357.786509 217.649471,358.227509 217.496471,358.305509 C217.481471,358.311509 217.463471,358.317509 217.442471,358.317509" id="Fill-159" fill="#FFFFFE"></path>
                <path d="M217.49746,358.192009 C216.571926,357.154446 215.166114,355.205207 213.732787,352.912821 C212.09184,350.293532 210.876138,347.964598 210.530939,346.86409 C210.430881,346.545309 210.405866,346.33008 210.4634,346.23871 C210.473405,346.220435 210.488414,346.208253 210.508426,346.200131 C210.520933,346.19404 210.535941,346.192009 210.553452,346.192009 C210.56846,346.192009 210.583469,346.19404 210.600979,346.1981 C210.738558,346.232618 210.953683,346.401146 211.228841,346.681349 C212.134364,347.601146 213.692764,349.725004 215.288685,352.273227 C216.844583,354.760537 218.022763,356.987948 218.433,358.149369 C218.112815,358.163583 217.805138,358.177796 217.49746,358.192009" id="Fill-160" fill="#72C09E"></path>
                <path d="M231.341438,358.815509 C231.119438,358.815509 230.738438,358.011509 230.300438,356.631509 C230.705438,356.610509 231.101438,356.589509 231.512438,356.568509 C231.611438,357.942509 231.578438,358.767509 231.359438,358.812509 C231.353438,358.815509 231.347438,358.815509 231.341438,358.815509" id="Fill-161" fill="#FFFFFE"></path>
                <path d="M230.566168,357.192009 C230.070529,355.638632 229.469755,353.069006 229.032048,350.121242 C228.45273,346.251765 228.330429,342.92801 228.508516,341.699059 C228.553574,341.37893 228.620088,341.200603 228.705913,341.192009 C228.705913,341.192009 228.708059,341.192009 228.710205,341.192009 C228.793884,341.192009 228.886146,341.344554 228.984844,341.623861 C229.392513,342.766871 229.935355,346.04121 230.512528,349.899945 C230.956672,352.89068 231.319282,355.541949 231.433,357.14689 C231.13905,357.16193 230.855827,357.176969 230.566168,357.192009" id="Fill-162" fill="#72C09E"></path>
                <path d="M247.008,357.526009 C246.828,357.526009 246.63,356.938009 246.432,355.903009 C246.762,355.888009 247.101,355.873009 247.434,355.858009 C247.338,356.908009 247.194,357.511009 247.014,357.526009 C247.011,357.526009 247.011,357.526009 247.008,357.526009" id="Fill-163" fill="#FFFFFE"></path>
                <path d="M246.999456,356.192009 C246.564456,354.577284 246.132456,351.43361 245.889456,347.809593 C245.664456,344.487935 245.649456,341.556555 245.811456,339.830322 C245.868456,339.24276 245.943456,338.792438 246.039456,338.515812 C246.108456,338.305662 246.192456,338.194153 246.285456,338.192009 C246.378456,338.192009 246.471456,338.299228 246.570456,338.496512 C246.702456,338.766705 246.840456,339.210594 246.975456,339.793868 C247.371456,341.50509 247.755456,344.423603 247.977456,347.736684 C248.223456,351.356412 248.217456,354.519386 248.001456,356.159843 C247.668456,356.170565 247.329456,356.181287 246.999456,356.192009" id="Fill-164" fill="#72C09E"></path>
                <path d="M261.951,355.858509 C261.864,355.858509 261.774,355.750509 261.678,355.546509 C261.849,355.540509 262.017,355.534509 262.188,355.525509 C262.122,355.735509 262.044,355.852509 261.957,355.858509 C261.954,355.858509 261.951,355.858509 261.951,355.858509" id="Fill-165" fill="#FFFFFE"></path>
                <path d="M262.110747,356.192009 C261.576747,355.326053 260.949747,352.144897 260.877747,348.32437 C260.781747,343.826333 261.489747,340.192009 262.059747,340.192009 C262.059747,340.192009 262.062747,340.192009 262.062747,340.194252 C262.647747,340.214443 262.875747,343.84428 262.968747,348.301936 C263.040747,352.091056 262.992747,355.285671 262.620747,356.176305 C262.449747,356.183035 262.281747,356.187522 262.110747,356.192009" id="Fill-166" fill="#72C09E"></path>
                <path d="M282.002,356.065509 C281.873,356.065509 281.72,355.810509 281.558,355.342509 C281.81,355.336509 282.053,355.327509 282.308,355.318509 C282.239,355.786509 282.143,356.050509 282.014,356.065509 C282.011,356.065509 282.005,356.065509 282.002,356.065509" id="Fill-167" fill="#FFFFFE"></path>
                <path d="M282.261199,355.192009 C281.709199,354.016654 281.046199,351.034775 280.815199,347.508708 C280.602199,344.361789 280.788199,341.62078 281.109199,340.209015 C281.259199,339.560005 281.433199,339.192009 281.613199,339.192009 C281.613199,339.192009 281.613199,339.192009 281.616199,339.192009 C281.802199,339.192009 281.970199,339.573386 282.123199,340.240239 C282.447199,341.652003 282.696199,344.346177 282.906199,347.432879 C283.137199,350.954485 283.245199,353.974278 283.011199,355.174167 C282.756199,355.180858 282.513199,355.187548 282.261199,355.192009" id="Fill-168" fill="#72C09E"></path>
                <path d="M298.9615,356.085009 C298.8145,356.085009 298.6645,355.812009 298.5175,355.317009 C298.7965,355.311009 299.0695,355.305009 299.3485,355.299009 C299.2435,355.800009 299.1115,356.079009 298.9645,356.085009 L298.9615,356.085009" id="Fill-169" fill="#FFFFFE"></path>
                <path d="M298.854848,353.192009 C298.428848,352.235516 298.038848,350.037575 297.888848,347.474972 C297.681848,344.019641 297.984848,341.207951 298.563848,341.192009 C298.563848,341.192009 298.566848,341.192009 298.569848,341.192009 C299.145848,341.192009 299.772848,343.973809 299.979848,347.419176 C300.129848,349.991743 300.000848,352.209611 299.685848,353.180053 C299.406848,353.184038 299.133848,353.188024 298.854848,353.192009" id="Fill-170" fill="#72C09E"></path>
                <path d="M317.867,356.502009 C317.864,356.502009 317.861,356.502009 317.858,356.502009 C317.648,356.487009 317.492,355.896009 317.369,354.882009 C317.747,354.882009 318.122,354.882009 318.497,354.885009 C318.296,355.908009 318.068,356.502009 317.867,356.502009" id="Fill-171" fill="#FFFFFE"></path>
                <path d="M318.479889,354.192009 C318.104889,354.189949 317.729889,354.189949 317.351889,354.189949 C317.129889,352.935473 317.018889,350.745804 316.922889,348.25951 C316.808889,345.076972 316.751889,342.378509 317.060889,341.494814 C317.126889,341.305303 317.210889,341.200249 317.315889,341.192009 C317.318889,341.192009 317.321889,341.192009 317.327889,341.192009 C317.429889,341.192009 317.546889,341.295004 317.669889,341.490694 C318.221889,342.35791 318.899889,345.027534 319.013889,348.222432 C319.112889,350.735505 318.836889,352.935473 318.479889,354.192009" id="Fill-172" fill="#72C09E"></path>
                <path d="M341.215544,355.192009 C341.212544,355.192009 341.209544,355.192009 341.206544,355.192009 C340.630544,355.163371 340.489544,352.00703 340.888544,348.140869 C341.194544,345.18295 341.731544,342.666878 342.226544,341.660449 C342.373544,341.357702 342.517544,341.192009 342.652544,341.192009 C342.655544,341.192009 342.658544,341.192009 342.658544,341.192009 C342.793544,341.198146 342.904544,341.374066 342.988544,341.687041 C343.270544,342.722108 343.285544,345.272956 342.976544,348.241103 C342.577544,352.088853 341.788544,355.192009 341.215544,355.192009" id="Fill-173" fill="#72C09E"></path>
                <path d="M362.580387,361.192009 C362.574123,361.192009 362.567859,361.192009 362.563683,361.189848 C362.17115,361.092603 362.693136,357.431879 363.724579,353.014808 C364.743495,348.660405 365.879336,345.192009 366.286485,345.192009 C366.290661,345.192009 366.296925,345.192009 366.303188,345.19417 C366.693634,345.291415 366.173736,348.952139 365.140204,353.369211 C364.121288,357.725775 362.985448,361.192009 362.580387,361.192009" id="Fill-174" fill="#72C09E"></path>
                <path d="M203.634907,281.192009 C202.901085,281.091768 204.230351,266.460308 206.603741,248.513743 C208.977131,230.56081 211.497285,216.092771 212.231107,216.192009 C212.964929,216.29015 211.635663,230.921609 209.260176,248.872419 C206.886786,266.818985 204.366632,281.289146 203.634907,281.192009" id="Fill-175" fill="#000105"></path>
                <path d="M385.498478,261.17029 C385.202403,260.992852 385.908752,259.302203 387.651363,256.899807 C389.385514,254.501398 392.242634,251.449059 395.985862,248.723685 C399.735435,246.002299 403.594979,244.174085 406.49651,243.203159 C409.404385,242.226251 411.316181,242.012926 411.426152,242.325935 C411.682045,243.043663 404.724292,245.525807 397.637536,250.739306 C390.487334,255.877044 386.168875,261.588965 385.498478,261.17029" id="Fill-176" fill="#000105"></path>
                <path d="M382.433,243.439613 C382.477863,242.617942 389.184756,242.383835 397.420099,242.246124 C405.657567,242.12448 412.368712,242.147432 412.432486,242.966808 C412.500511,243.760937 405.808499,245.055413 397.458363,245.179352 C389.112479,245.321653 382.388579,244.233742 382.433,243.439613" id="Fill-177" fill="#000105"></path>
                <polyline id="Fill-178" fill="#FBF7E8" points="238.852487 207.803649 231.91393 287.380369 191.433 361.192009 383.433 361.192009 357.985964 293.147565 348.731724 203.192009 238.852487 207.803649"></polyline>
                <polyline id="Fill-179" fill="#000000" points="238.852487 207.803649 231.91393 287.380369 191.433 361.192009 383.433 361.192009 357.985964 293.147565 348.731724 203.192009 238.852487 207.803649"></polyline>
                <path d="M241.673081,210.189377 C241.096451,210.062464 241.586481,205.358218 242.84324,197.857653 C244.171814,190.376125 245.895369,180.028476 249.080567,168.714172 C252.236194,157.412559 257.028775,147.540834 261.983997,141.482848 C266.820935,135.310641 271.115037,132.852757 271.389623,133.229266 C271.862756,133.760185 268.394524,136.960511 264.44471,143.240595 C260.366052,149.425494 256.27472,158.880521 253.186684,169.90081 C250.085974,180.902061 247.876613,191.19683 245.793983,198.511256 C243.781057,205.844719 242.249712,210.316291 241.673081,210.189377" id="Fill-180" fill="#000105"></path>
                <path d="M343.234229,209.176097 C342.60129,208.829608 344.815482,204.984008 345.457181,198.212502 C345.811978,194.84172 345.744084,190.775822 345.242551,186.256494 C344.762919,181.741444 343.840887,176.734464 342.868482,171.48366 C340.932434,161.003438 338.216709,151.834314 335.347677,145.531209 C332.529018,139.213133 329.97317,135.634886 330.503175,135.219955 C330.906153,134.86705 334.430025,137.857121 338.148816,144.158087 C341.902648,150.414137 345.257882,159.987498 347.226782,170.692296 C348.214518,176.028654 349.031425,181.144713 349.311758,185.929255 C349.611802,190.696686 349.35337,195.087685 348.553983,198.680903 C347.787448,202.284816 346.541281,205.05245 345.43966,206.789173 C344.35118,208.545144 343.46419,209.31512 343.234229,209.176097" id="Fill-181" fill="#000105"></path>
                <path d="M288.440511,287.199825 C288.514307,287.123365 289.070934,287.526333 290.106176,288.286807 C290.624851,288.662911 291.263707,289.134074 292.04172,289.636235 C292.809191,290.111531 293.766421,290.731483 294.778471,290.942267 C296.929076,291.215045 299.771248,289.95861 302.832697,288.445928 C304.388723,287.677188 306.039629,286.798923 307.888728,285.966122 C308.818548,285.554887 309.784212,285.135386 310.867948,284.823344 C311.395057,284.649758 311.979094,284.534033 312.575782,284.436908 L313.511927,284.352181 L314.338434,284.339782 C323.2023,284.248856 333.708639,284.141397 345.366183,284.02154 C351.20866,283.994675 357.335776,283.963678 363.688494,283.934747 C366.865908,283.926481 370.09814,283.918215 373.378867,283.912015 L375.849955,283.909949 C376.63851,283.909949 377.239414,283.854153 377.912005,283.674367 C379.204477,283.337527 380.378876,282.556388 380.973455,281.55 C381.58701,280.553944 381.542733,279.386368 380.918636,278.410978 C380.300864,277.425255 379.126465,276.67098 377.842427,276.350672 C377.171944,276.181219 376.592124,276.137822 375.790918,276.137822 L373.359891,276.133689 C371.742721,276.129556 370.140309,276.123356 368.550548,276.119223 C362.19783,276.088226 356.066497,276.061361 350.22402,276.03243 C338.566476,275.912573 328.058029,275.807181 319.194163,275.716255 C310.361923,275.579866 303.214324,275.420745 298.274258,275.243025 C293.3363,275.065306 290.605875,274.871054 290.605875,274.664404 C290.605875,274.45982 293.3363,274.265568 298.274258,274.087849 C303.214324,273.910129 310.361923,273.751008 319.194163,273.614619 C328.058029,273.523693 338.566476,273.416234 350.22402,273.298444 C356.066497,273.269513 362.19783,273.240581 368.550548,273.21165 C370.140309,273.207517 371.742721,273.203384 373.359891,273.197185 L375.790918,273.193052 C376.619534,273.182719 377.684294,273.246781 378.601464,273.492695 C380.482189,273.970058 382.327071,275.042574 383.484603,276.840434 C384.686411,278.607296 384.772857,281.20696 383.590024,283.04615 C382.464119,284.906004 380.608695,286.030183 378.708994,286.536477 C377.774957,286.796857 376.710197,286.877451 375.849955,286.869184 L373.378867,286.865051 C370.09814,286.858852 366.865908,286.850586 363.688494,286.84232 C357.335776,286.813389 351.20866,286.784458 345.366183,286.755527 C333.708639,286.637736 323.2023,286.530278 314.338434,286.439351 C312.2806,286.282297 310.498972,286.986975 308.658307,287.697853 C306.864028,288.42733 305.177279,289.235333 303.564325,289.942078 C300.351068,291.310105 297.365522,292.599604 294.521242,292.070579 C293.129674,291.655211 292.288408,290.925735 291.510395,290.34918 C290.753466,289.747826 290.167321,289.194003 289.703465,288.735239 C288.784186,287.81771 288.370933,287.272153 288.440511,287.199825" id="Fill-182" fill="#000105"></path>
                <path d="M192.433,270.192009 L192.433,326.060212 C192.433,338.233339 202.388522,348.192009 214.553071,348.192009 L270.312929,348.192009 C282.477478,348.192009 292.433,338.233339 292.433,326.060212 L292.433,270.192009 L192.433,270.192009" id="Fill-183" fill="#EA9439"></path>
                <polygon id="Fill-184" fill="#EAC692" points="191.433 272.192009 293.433 272.192009 293.433 268.192009 191.433 268.192009"></polygon>
                <polygon id="Fill-185" fill="#000105" points="184.433 360.192009 323.433 360.192009 323.433 346.192009 184.433 346.192009"></polygon>
                <path d="M223.924096,135.196274 C224.118711,135.308273 223.259866,137.083356 221.798137,140.291185 C220.446407,143.492673 218.134294,148.213549 217.698525,154.282642 C217.482756,157.287604 218.026409,160.596866 219.7991,163.546884 C221.586598,166.49479 224.584095,168.950321 227.947554,171.372042 C231.258127,173.848705 235.19697,176.257746 238.10139,180.412286 C239.535619,182.485329 240.390234,185.109916 240.428311,187.759861 C240.50658,190.443618 239.596965,193.087223 238.304467,195.331435 C235.6412,199.843104 231.975242,203.040367 228.84236,206.282006 C225.593133,209.458137 223.08852,212.739927 221.518906,216.44013 C218.390255,223.819403 218.58487,231.547354 220.247561,237.403014 C221.779098,243.389693 224.77448,247.586496 227.016785,250.194178 C227.592169,250.826023 228.112553,251.396585 228.577938,251.905865 C229.051783,252.343296 229.468514,252.723671 229.834475,253.057555 C230.505051,253.70208 230.837166,254.086681 230.777936,254.173322 C230.718705,254.259963 230.272359,254.044417 229.464283,253.545703 C229.03486,253.268875 228.544092,252.951896 227.985631,252.59054 C227.444093,252.119297 226.839093,251.597338 226.168517,251.01621 C223.562366,248.558565 220.097369,244.304706 218.185063,238.007388 C216.154296,231.843201 215.646604,223.555254 218.938139,215.358175 C220.547945,211.27971 223.456596,207.414678 226.710055,204.202624 C229.883129,200.895475 233.396779,197.708778 235.660238,193.828954 C236.766584,191.901721 237.458314,189.847697 237.405429,187.795785 C237.373698,185.733308 236.764468,183.749019 235.615815,182.050011 C233.297356,178.620297 229.608129,176.166879 226.278517,173.618367 C222.917174,171.0931 219.638331,168.352288 217.620256,164.814801 C215.629681,161.283654 215.172758,157.389037 215.557758,154.111473 C215.902565,150.802211 216.846026,147.976871 217.823333,145.607981 C218.815447,143.23909 219.860446,141.305518 220.744676,139.75232 C222.553328,136.664944 223.756981,135.099067 223.924096,135.196274" id="Fill-186" fill="#000105"></path>
                <path d="M58.6195261,302.259747 L47.433,293.207551 C47.433,293.207551 62.6105196,284.647158 96.5161379,283.274833 C105.420898,282.914033 114.359213,283.721536 123.012308,285.903513 C133.024396,288.431256 144.703766,292.700714 144.389185,298.817121 C144.389185,298.817121 145.211292,301.621906 139.733375,303.303488 C134.255459,304.987218 138.638631,335.558515 141.102854,339.763544 C143.567078,343.970722 90.1594899,355.192009 90.1594899,355.192009 L58.6195261,302.259747" id="Fill-187" fill="#B97C4A"></path>
                <path d="M45.9860623,316.271512 C45.9860623,316.271512 48.22049,309.029214 45.4285194,306.520958 C42.6386767,304.012701 34.8224357,302.343362 43.1962197,295.379287 C51.2550557,288.676444 77.1552652,279.909228 98.7483493,297.639054 C100.8934,299.401842 102.570285,301.73382 103.206565,304.433222 C103.764108,306.799181 103.485336,309.307437 100.135823,309.863883 C93.4367954,310.9789 96.1989737,343.987639 97.0650804,348.305408 C97.9013948,352.485127 89.9574722,356.473701 69.4326574,356.176363 C45.156132,355.828053 40.1190935,347.899754 40.6851485,346.077498 C41.2490755,344.255243 45.9860623,316.271512 45.9860623,316.271512" id="Fill-188" fill="#F3DFAA"></path>
                <path d="M49.0367972,360.192009 L135.831318,360.192009 C148.313317,360.192009 158.433,349.896136 158.433,337.192009 L26.433,337.192009 C26.433,349.896136 36.5526828,360.192009 49.0367972,360.192009" id="Fill-189" fill="#D8BDB1"></path>
                <path d="M443.003225,347.66388 C475.388635,353.946912 529.022642,302.285953 503.970139,292.633912 C497.969131,290.323008 492.119427,297.587963 488.061928,302.548363 C487.541954,303.185343 487.013456,303.854066 486.476434,304.560881 C471.501619,324.178163 444.373483,340.883538 424.618745,327.680493 C404.864008,314.477448 407.809104,304.450838 403.907171,304.764037 C400.005237,305.079352 401.049447,339.527046 443.003225,347.66388" id="Fill-190" fill="#A12629"></path>
                <path d="M504.839313,290.836117 C503.462565,290.499033 502.06417,290.159919 500.641964,290.194439 C499.219758,290.224899 497.743434,290.68179 496.819108,291.695072 C496.630779,291.904226 496.461933,292.14587 496.435956,292.417974 C496.392662,292.911416 496.832096,293.325664 497.280188,293.587614 C498.791148,294.466875 500.743705,294.48312 502.228688,295.402994 C503.795929,296.373632 504.529761,298.134185 505.562322,299.604357 C506.659824,301.163878 508.227065,302.493937 510.134164,303.042206 C511.3767,303.399596 513.114952,303.147799 513.396363,301.957852 C513.500269,301.515176 513.363893,301.056255 513.227517,300.621701 C512.23825,297.476262 511.132089,294.152128 508.499817,291.991543 C507.242127,290.955924 505.512534,290.233021 503.899834,290.655391" id="Fill-191" fill="#5C7838"></path>
                <path d="M504.433,293.491067 C504.802994,292.099054 505.205635,290.649781 506.230736,289.561839 C506.851021,288.902361 507.667184,288.414663 508.502936,287.994097 C511.186482,286.631702 514.340138,285.818214 517.354502,286.363172 C518.414427,286.556672 519.504821,286.961441 520.094636,287.782827 C520.682273,288.604214 520.510335,289.909349 519.533115,290.325965 C518.930242,290.580674 518.216371,290.448384 517.59391,290.235139 C516.27499,289.788905 515.082303,289.005034 513.689384,288.805611 C512.265994,288.600265 510.801253,289.048473 509.595507,289.763237 C508.387585,290.478001 507.39513,291.451422 506.415733,292.411023 C505.875977,292.93821 505.316633,293.498964 505.105519,294.192009" id="Fill-192" fill="#5C7838"></path>
                <path d="M451.981218,293.571461 C455.798274,295.329485 460.020625,296.23271 464.236542,296.190601 C466.706907,296.165336 469.353113,295.742147 471.137265,294.062023 C473.80706,291.552364 473.543297,287.368898 473.082249,283.768632 C475.683422,283.349654 478.310329,284.141291 480.834304,284.884504 C483.360423,285.625611 486.032363,286.330927 488.599226,285.743515 C491.166089,285.153998 493.514222,282.806456 493.113217,280.248372 C492.722934,277.776611 489.990951,275.603819 490.919482,273.273121 C491.470596,271.894072 493.068184,271.27929 494.487786,270.7782 C500.236959,268.740155 505.760969,266.091539 510.933295,262.895513 C513.93333,261.038534 516.894765,258.916272 518.753972,255.951843 C520.613178,252.985308 521.144993,248.989224 519.23432,246.058482 C517.653887,243.63725 514.673152,242.340312 511.748172,242.205566 C508.825336,242.070819 505.945389,242.9572 503.271305,244.123602 C498.180467,246.342713 493.565688,249.629271 489.888019,253.734837 C487.312578,256.610839 484.089524,260.274267 480.362533,259.145763 C477.073002,258.154111 476.108016,254.126445 475.687711,250.772514 C473.905703,250.32827 472.012186,251.343082 470.907813,252.787399 C469.801296,254.227505 469.318802,256.027638 468.859898,257.775135 C467.862746,261.5691 466.865593,265.360958 465.868441,269.152817 C465.41597,270.87926 464.586081,272.94257 462.782629,273.136269 C460.689682,273.359443 459.383734,270.862417 457.395862,270.186577 C455.375825,269.498106 453.12419,270.957161 452.212814,272.856248 C451.303583,274.757441 451.391504,276.951287 451.49658,279.048284 C451.738899,283.831795 451.979073,288.6132 452.219248,293.396711" id="Fill-193" fill="#1F9E6C"></path>
                <path d="M435.249927,288.475033 C438.872251,284.429546 442.492476,280.386176 446.114799,276.340689 C447.580928,274.703431 449.103688,272.958153 449.563033,270.799854 C450.024475,268.639436 448.965255,265.983394 446.827938,265.515304 C445.850519,265.30138 444.833248,265.566137 443.836952,265.496241 C442.840655,265.426345 441.718511,264.795164 441.699634,263.784852 C441.689147,263.26381 441.980695,262.791483 442.270145,262.357282 C444.151572,259.538149 446.376983,256.968947 448.690487,254.501411 C450.083204,253.014536 451.555625,251.489535 452.18067,249.543042 C452.807812,247.598666 452.277153,245.097242 450.462846,244.188595 C448.07593,242.99613 444.501848,244.853665 442.867923,242.731373 C442.121225,241.759185 442.23239,240.390921 442.425357,239.179393 C443.595743,231.819147 446.462979,224.736367 446.783891,217.289282 C446.985248,212.599905 445.470877,207.016709 441.05781,205.540424 C439.249794,204.936778 437.246715,205.169764 435.459674,205.83907 C429.651792,208.010077 426.295847,214.374836 425.511395,220.580741 C424.726942,226.784528 425.977032,233.037029 426.599979,239.259879 C426.790849,241.195782 426.612564,243.67179 424.808744,244.35804 C423.378272,244.90238 421.84922,243.91113 420.326459,243.8137 C417.266257,243.610366 415.068113,247.219534 415.483411,250.286479 C415.900807,253.353425 418.036027,255.859085 420.095738,258.15294 C422.15545,260.446795 424.322132,262.910094 424.825523,265.964331 C424.896837,266.396415 424.928299,266.856033 424.73743,267.247874 C423.994927,268.760166 421.50104,267.410964 420.087348,268.306902 C418.652682,269.21343 419.39938,271.439507 420.294998,272.888257 C422.41973,276.332217 424.544463,279.778294 426.669196,283.222253 C427.751488,284.976004 428.875729,286.776352 430.53902,287.981526 C432.198115,289.188818 434.549374,289.669617 436.29866,288.595762" id="Fill-194" fill="#24AC7B"></path>
                <path d="M441.47299,305.162104 C441.070372,304.8465 443.715228,300.665281 449.075611,294.757773 C451.739741,291.794487 455.142717,288.473235 459.076806,284.963467 C463.043019,281.489709 467.566043,277.859207 472.483119,274.288013 C482.347252,267.177399 491.785211,261.553722 498.717516,257.702933 C505.66053,253.862735 510.121448,251.782716 510.416987,252.259299 C510.716808,252.742236 506.787003,255.697049 500.259456,260.147273 C493.740476,264.612324 484.628039,270.572786 474.915958,277.575375 C470.075979,281.091497 465.570087,284.565256 461.546052,287.814491 C457.558424,291.097617 454.022669,294.130802 451.146523,296.784838 C445.366389,302.059021 441.952705,305.553961 441.47299,305.162104" id="Fill-195" fill="#000105"></path>
                <path d="M437.158746,305.190569 C436.222556,305.391524 432.186197,284.54135 431.545444,258.335933 C430.824117,232.124103 433.772732,211.053734 434.718514,211.192009 C435.798585,211.31241 434.518998,232.329334 435.234569,258.216215 C435.863811,284.100959 438.229225,305.00244 437.158746,305.190569" id="Fill-196" fill="#000105"></path>
                <path d="M414.321459,358.192009 C417.077241,354.834183 421.271387,352.63852 425.662066,352.256757 C429.964196,351.881321 434.24257,353.170035 438.564139,353.197454 C448.386473,353.26073 457.474508,346.372125 461.195679,337.492447 C464.919009,328.61277 463.752769,318.239788 459.487353,309.59634 C457.148393,304.856996 453.848365,300.467778 449.408013,297.489606 C438.903212,290.440703 424.163231,292.773464 413.345273,299.356237 C408.097191,302.549546 403.278891,306.841741 400.965848,312.443742 C396.784661,322.561512 401.749821,334.183133 408.719186,342.710576 C412.224386,347.004881 416.532996,351.8075 415.459623,357.200691 L414.321459,358.192009" id="Fill-197" fill="#A02E55"></path>
                <path d="M451.433,320.192009 L451.116155,320.080413 L451.01485,320.059916 L450.508329,320.012089 C449.055582,319.886828 447.445491,319.87544 445.766426,319.793451 C442.414762,319.670468 439.332525,319.005446 437.405588,317.192578 C435.463563,315.459422 434.842805,312.671796 436.05199,310.540083 C436.901222,309.016454 438.46605,308.192009 440.151581,308.192009 C440.839157,308.192009 441.543977,308.328657 442.231552,308.611064 C444.658545,309.528885 446.686786,312.070544 448.391716,315.122356 C449.264657,316.64143 450.04276,318.130897 450.842418,319.417669 L451.124776,319.861776 L451.187283,319.946042 L451.433,320.192009" id="Fill-198" fill="#7D2245"></path>
                <path d="M441.325205,331.192009 C440.812103,331.133681 440.290377,331.075353 439.762183,331.009248 C436.429173,330.624284 433.423859,329.90685 431.52883,328.514757 C429.618709,327.175159 428.911576,325.205619 429.836454,323.735755 C430.459507,322.732515 431.688366,322.192009 433.12419,322.192009 C433.798985,322.192009 434.521209,322.312553 435.245588,322.561419 C437.384234,323.249689 439.468982,324.97814 441.433,327.118775 C440.089879,326.2458 439.037803,325.746124 438.464336,325.746124 C438.313423,325.746124 438.197005,325.779177 438.115081,325.851115 C437.550238,326.343014 438.886891,328.473927 441.325205,331.192009" id="Fill-199" fill="#7D2245"></path>
                <path d="M453.961696,342.192009 C452.623081,342.192009 448.641287,339.052169 444.480727,334.636292 C443.06337,333.135199 441.790728,331.658142 440.728775,330.312184 C438.321821,327.257559 437.00236,324.862803 437.559939,324.309999 C437.640809,324.229154 437.75573,324.192009 437.904701,324.192009 C438.470793,324.192009 439.509337,324.753553 440.835183,325.734616 C442.644122,327.074019 444.985102,329.197836 447.387799,331.747726 C452.012298,336.648673 455.108776,341.274311 454.306459,342.074019 C454.225589,342.152679 454.110668,342.192009 453.961696,342.192009" id="Fill-200" fill="#7D2245"></path>
                <path d="M448.271025,345.192009 C446.301731,345.192009 442.066134,343.744591 437.425917,341.378967 C431.375987,338.291896 426.920863,334.81357 427.480443,333.60588 C427.609578,333.325443 427.999132,333.192009 428.595301,333.192009 C430.566747,333.192009 434.800192,334.641689 439.444713,337.009574 C445.490338,340.094384 449.943311,343.574972 449.385882,344.7804 C449.256748,345.060837 448.867194,345.192009 448.271025,345.192009" id="Fill-201" fill="#7D2245"></path>
                <path d="M407.480933,339.756266 C395.175314,347.525449 384.504959,346.774602 372.17191,338.730108 C359.840971,330.689785 356.433294,321.160282 355.618827,316.477915 C354.804361,311.797634 356.673836,306.207993 355.464796,304.76887 C354.255756,303.331831 352.322981,300.051046 354.247316,299.606795 C356.169541,299.162543 357.992596,300.747665 360.275634,299.362769 C362.556563,297.977873 381.027651,290.283775 395.519247,300.117788 C410.012953,309.953887 412.633594,317.370589 414.024095,324.499467 C415.416707,331.626259 419.841412,333.184267 419.402529,335.002985 C418.961535,336.82379 416.634186,336.788333 414.435549,337.295155 C412.236911,337.801977 407.480933,339.756266 407.480933,339.756266" id="Fill-202" fill="#E7A83C"></path>
                <path d="M372.03739,298.367271 C372.720732,298.93522 372.433728,300.334262 371.820998,301.728919 C371.183212,303.116997 370.322201,304.277017 369.427022,304.18711 C368.550066,304.11036 368.012504,302.369233 368.855292,300.498727 C369.695803,298.621642 371.379103,297.803707 372.03739,298.367271" id="Fill-203" fill="#274045"></path>
                <path d="M382.030662,309.323098 C382.620926,309.818535 382.47755,311.158514 382.136798,312.53403 C381.771839,313.901185 381.25978,315.119918 380.524277,315.188903 C379.807395,315.272521 379.101684,313.656602 379.600709,311.712483 C380.099734,309.770454 381.464604,308.82557 382.030662,309.323098" id="Fill-204" fill="#274045"></path>
                <path d="M392.748943,306.228831 C393.445862,306.486005 393.641521,308.02256 393.190573,309.658527 C392.741489,311.296656 391.811643,312.413954 391.116587,312.15462 C390.421532,311.899608 390.224009,310.363052 390.674957,308.724924 C391.125904,307.088957 392.053887,305.971658 392.748943,306.228831" id="Fill-205" fill="#274045"></path>
                <path d="M401.824138,312.318457 C402.489801,312.767838 402.581819,314.009847 402.235283,315.1954 C401.880915,316.376438 401.150644,317.295524 400.385132,317.182614 C399.62941,317.07422 399.157572,315.683171 399.609831,314.161146 C400.060132,312.639121 401.170223,311.871334 401.824138,312.318457" id="Fill-206" fill="#274045"></path>
                <path d="M392.778584,320.254691 C393.463889,320.561078 393.638501,321.897265 393.170992,323.244091 C392.703482,324.590917 391.770341,325.435609 391.086914,325.129222 C390.403487,324.822835 390.226998,323.486648 390.694507,322.139822 C391.162016,320.795123 392.095157,319.948304 392.778584,320.254691" id="Fill-207" fill="#274045"></path>
                <path d="M355.630938,305.379529 C356.002837,305.128466 356.496563,305.130541 356.868461,305.379529 C359.738916,307.313342 372.184678,316.646267 370.224733,332.114689 C369.000034,341.777524 368.525543,346.744849 368.343869,349.25341 C368.277611,350.162218 367.2239,350.473454 366.488653,349.90908 C355.648037,341.592858 347.733447,310.718262 355.630938,305.379529" id="Fill-208" fill="#3C5C2F"></path>
                <path d="M373.23321,360.192009 L464.63279,360.192009 C477.776347,360.192009 488.433,349.448034 488.433,336.192009 L349.433,336.192009 C349.433,349.448034 360.089653,360.192009 373.23321,360.192009" id="Fill-209" fill="#644133"></path>
                <polygon id="Fill-210" fill="#B2372B" points="0 371 600 371 600 359 0 359"></polygon>
            </g>
        </g>
    </g>
</svg>