<svg width="61" height="57" xmlns="http://www.w3.org/2000/svg"><path d="M53.79 4.853c-.641-.814-3.76-.829-6.075-.565-2.147.4-4.259.965-6.318 1.692l-1.08-4.028c-.475-1.777-2.375-1.285-4.822-.629L15.358 6.72C10.162 8.11 1.22 10.303.128 12.296c-1.09 1.992 5.039 5.092 6.486 5.758 1.448.666.983 1.012 1.34 2.345 0 0 7.152 26.693 8.889 32.67 1.737 5.978 12.262 1.542 15.69.624 3.426-.918 13.15-3.796 17.162-4.87 4.011-1.075 1-8.904.307-11.49-.693-2.585-5.272-18.408-6.184-21.496-.912-3.087 4.395-3.37 5.11-3.358.714.013 1.002.582 1.464 1.801.462 1.22 1.988 6.913 3.26 12.165 1.271 5.252 4.828 3.806 6.104 2.818 1.275-.987-1.828-11.053-2.868-16.01a22.917 22.917 0 00-3.098-8.4zm-10.5 19.813c1.778 7.394 5.075 18.121 5.122 19.876.047 1.756-2.607 2.399-4.834 2.996-2.227.596-6.988 2.093-8.836 2.588-1.848.495-10.772 2.19-11.956 2.507-1.185.317-2.164.58-2.224.103a28.774 28.774 0 01-.66-3.223c.099-.452 2.392-.862 3.481-1.222s1.39-.372 1.678-.875c.289-.502.076-1.295-1.243-1.23a36.243 36.243 0 00-4.701.902c-.521.14-.515-.848-.694-1.514-.178-.666 1.284-.769 2.115-1.077.832-.307 1.223-.174 1.028-.904-.196-.73-3.427-.153-3.792-.19-.366-.039-.097-1.182-.283-1.625-.187-.443.666-.671 1.124-.794.458-.123 1.248-.334 1.125-.794-.124-.46-1.83-.513-2.43-.352-.6.16-.446-.085-.625-.75-.178-.667.88-.44 1.759-.83.877-.387 1.355-.498 1.052-1.063-.304-.565-2.27-.072-2.997.123-.727.195-.638-2.379-.744-2.776-.106-.396 3.108-1.036 3.817-1.294.71-.258.403-.33.203-1.33s-1.317-.429-3.536-.055c-2.219.374-1.553-.74-1.71-1.327-.157-.587-.161-.603.72-.975.883-.372 1.214-.461 1.16-.667-.056-.206-1.245-.16-2.086-.139-.84.022-.841-1.56-.91-1.813-.067-.254 1.874-.655 2.79-.9.916-.246.846-.567.37-1.017-.476-.45-2.79.39-3.47.504-.68.115-.618-1.041-.809-1.755-.191-.713 1-.692 1.663-.87.663-.178.642-.257.502-.78-.14-.524-1.925-.046-2.4.013-.475.06-.391-1.459-.48-1.792-.09-.333 3.275-1.167 4.334-1.45 1.058-.284.543-1.132.17-2.018-.373-.886-4.79.57-5.202.612-.412.043-.179-.666-.336-1.253-.157-.587-.932-.889-2.336-1.074-1.403-.185-1.88-.703-3.322-1.66-1.441-.956 1.876-1.148 4.576-1.872 2.701-.723 6.708-2.069 9.266-2.754.269-.072 9.015-1.923 9.775-1.99.76-.069.905.47 1.437 2.453.53 1.983 3.682 11.406 5.488 18.147 1.806 6.74 4.987 17.788 5.949 17.462.962-.326-1.86-9.344-3.855-15.966-1.995-6.622-6.268-21.117-6.653-22.238-.385-1.12 1.792-.956 2.456-1.134.663-.177 1.67 4.653 3.106 10.014 1.436 5.36 5.196 17.307 6.415 21.859 1.22 4.552 1.81 5.176 2.764 5.005.953-.17-1.281-5.538-2.646-10.63-1.364-5.09-7.26-24.76-7.545-25.823-.285-1.062.706-1.532 1.37-1.71.663-.178 1.413 1.61 1.995 3.783.582 2.173 2.746 9.175 4.504 16.558zm11.397-8.001c-.487.266-.806-.923-1.55-3.699-.743-2.775-1.729-2.222-3.605-2.654a17.766 17.766 0 00-6.177.89c-.269.072-.823-.987-.91-1.814-.085-.827.234-.963.935-1.253a36.765 36.765 0 018.04-1.576c1.631-.233 1.833 3.112 2.437 5.365.603 2.252 1.329 4.454.83 4.74z" fill="#1D1D1B" fill-rule="nonzero"/></svg>