<svg width="89" height="65" xmlns="http://www.w3.org/2000/svg"><path d="M84.495 32.028c-2.809-.338-7.788.338-8.127-.338-.339-.676.498-10.44-.657-16.228-1.155-5.787-8.147-4.653-12.13-4.653-3.984 0-14.6-.318-14.6-.318a9.055 9.055 0 01-.339-3.48c.339-1.174 1.673-.498 3.326-1.67 1.654-1.174 1.156-3.64-1.653-4.635a30.502 30.502 0 00-14.44.339c-3.486 1.312-3.984 4.474-1.176 5.627a4.314 4.314 0 012.49 4.972c-.16.994-5.477.994-8.624 1.154-3.147.159-11.294 1.81-11.294 1.81a5.977 5.977 0 00-4.037 2.493 5.958 5.958 0 00-.943 4.646c.327 3.749.44 7.513.34 11.275 0 0-3.327 0-7.63-.338C.7 32.346-.157 37 .021 41.971c.18 4.972 10.458 3.64 12.27 3.978 1.813.338.996 10.44 1.335 13.582C13.965 62.673 16.773 65 25.238 65s44.816-.497 47.804-1.153c2.987-.657 3.167-7.12 3.485-9.785.32-2.664-.498-10.261 0-10.261s8.466 0 10.139-.18c1.673-.178 1.494-2.982 1.653-6.78.16-3.799-.996-4.475-3.824-4.813zM13.287 43.96c-.318.656-5.796 0-9.122-.497-3.326-.497-1.653-4.137-1.653-6.304 0-2.168 1.155-2.665 3.306-2.665s6.971.338 6.971.338c.996-.16.837 8.472.498 9.128zM45.495 7.329c0-1.65.498-5.29.498-5.29.44 1.626.72 3.291.836 4.972 0 1.81.16 3.639-.677 3.798-.836.159-.657-1.81-.657-3.48zm-2.49-5.131v9.108h-.657l-.339-9.267.996.159zM17.112 18.445a116.433 116.433 0 0126.89-3.977c12.11-.179 27.546-1.332 28.542 1.313.588 1.933.704 3.978.338 5.966 0-.16-.358-1.094-11.95-.637-12.609.497-24.24 1.492-33.025 2.327-4.133.463-8.29.682-12.449.656 0 0-.498-4.991 1.654-5.648zm56.268 8.452a58.238 58.238 0 00-.657 7.776c-.18 4.156.16 15.75 0 21.378s-2.33 4.653-3.326 3.977c-.996-.676-.339-8.77-.498-16.903-.16-8.134.657-11.594-.658-12.091-1.314-.498-2.33.994-2.669 3.639-.338 2.645-.318 14.1-.318 17.898s.16 6.801-.837 7.955c-.996 1.153-12.29.676-21.252.676a197.655 197.655 0 01-24.898-1.83c-1.992-.497-.996-7.617-1.315-13.085-.318-5.47-1.733-17.322-.996-17.74a60.843 60.843 0 0112.609-1.332c1.832.18 1.493 2.486 1.334 5.807-.16 3.321.16 8.293 0 14.08-.16 5.787-.18 8.293 1.494 8.293 1.673 0 1.494-6.801.996-12.588a92.824 92.824 0 01.657-15.75c.16-1.154 21.91-1.99 24.24-2.327 2.33-.339 1.992 3.162 2.311 10.28.319 7.12.339 10.78 1.175 11.277.837.497 1.992-.676 2.49-4.972.498-4.296 0-15.591.498-16.745.498-1.153 6.473-1.153 7.967 0 1.494 1.154 1.813 1.83 1.653 2.327zm11.613 14.736c-1.156.835-5.299-.159-7.29-.159-1.992 0-1.674-3.003-1.674-4.633 0-1.631.538-2.427 1.176-2.665a23.939 23.939 0 017.628.338c1.833.338 1.335 6.304.16 7.12zM25.736 38.65c0-3.64.996-9.764-.996-9.764-.498 0-.498 3.142-.498 6.96s.498 10.262.678 13.424c.179 3.162-.34 6.622.816 6.622 1.155 0 1.673-5.469 1.494-8.293-.18-2.824-1.494-5.29-1.494-8.949z" fill="#D8BDB1" fill-rule="evenodd"/></svg>