<svg width="59" height="65" xmlns="http://www.w3.org/2000/svg"><path d="M56.815 48.097c-1.165-.39-1.354-.35-1.842-2.127a4.626 4.626 0 011.355-4.038 2.68 2.68 0 00.637-2.168c0-1.157-2.087-5.21-6.015-14.47-3.929-9.262-6.652-15.09-8.833-19.91-2.18-4.818-2.479-4.926-4.62-5.25a13.479 13.479 0 00-6.109.54c-2.235.578-6.408 2.113-9.483 3.27-3.075 1.158-7.288 2.8-8.128 3.325A32.7 32.7 0 018.44 9.962a22.59 22.59 0 00-6.11 3.513C.732 14.82.095 20.327 0 22.642c.075 1.87.47 3.713 1.165 5.452a87.188 87.188 0 005.134 9.422c1.951 3.231 3.062 5.492 5.88 10.944 2.817 5.452 7.518 14.417 8.927 15.911 1.409 1.494 5.337 0 9.117-1.117a91.447 91.447 0 008.589-3.379 57.452 57.452 0 008.534-3.702c4.81-2.517 9.619-4.967 10.336-5.976.718-1.01.299-1.723-.867-2.1zM3.4 27.124a9.104 9.104 0 01-1.07-5.546c.244-2.692.623-4.819 1.016-4.926a19.652 19.652 0 011.45 3.432c.487 1.158.785 1.346.392 1.831a12.288 12.288 0 00-1.503 3.567c-.244 1.104.149 2.114-.285 1.642zm4.457 6.22c-.149 1.251 0 2.786-.338 2.544a36.094 36.094 0 01-1.897-3.177 2.317 2.317 0 01-.38-1.831c.19-.296.583.148.773.525.19.377 1.11 1.212 1.842-.135.732-1.346.434-2.423-.095-2.853-.528-.431-1.598-.095-2.045.296a7.403 7.403 0 01.487-2.41c.488-1.252.678-1.83.976-1.252a43.31 43.31 0 012.086 4.039c0 .484 0 .673-.244.915a8.378 8.378 0 00-1.165 3.338zm12.084 21.74c-.393.578-.19 1.493-.339 2.072-.149.579-.338-.094-.826-1.158-.488-1.063-2.858-4.724-4.755-8.076-1.897-3.352-3.78-6.946-4.47-8.198a3.214 3.214 0 01-.475-2.356c0-.579.434-3.62.624-4.576.19-.956.555-1.118.677-.97a43.817 43.817 0 013.454 6.462c1.355 2.894 5.92 13.595 6.503 14.807.582 1.211 0 1.413-.393 1.992zm25.035-.243c-5.487 2.504-9.117 4.334-13.398 5.936-4.281 1.602-8.047 3.325-8.345 1.346-.298-1.979-.474-4.86-.474-4.86 0-.78 0-2.557 1.354-3.324 1.355-.767 8.738-3.81 14.17-5.694 5.433-1.885 8.928-3.042 10.92-3.81 1.99-.767 3.047-1.211 3.142-.969.095.242-.582 1.023-1.504 1.346-.92.323-14.739 6.071-16.107 6.704-1.368.633.203.336.677.094.475-.242 8.59-3.082 11.65-4.294 3.062-1.211 5.528-2.02 5.623-1.777.095.242-3.875 1.777-6.638 3.271-2.764 1.494-8.21 4.294-8.792 4.483-.583.188-1.057.39-.867.484a42.321 42.321 0 005.148-1.978c1.937-.822 6.597-3.083 8.128-3.662a6.592 6.592 0 013.156-.673c.542.148.542.821-.488 1.212-1.03.39-5.608 2.934-9.767 4.523-4.159 1.588-5.77 2.22-5.527 2.41.244.188 3.834-1.347 5.581-1.926 1.748-.579 5.961-2.8 8.25-3.513 2.29-.714 3.346-.875 3.441-.579.095.296-3.847 2.746-9.333 5.25zm9.17-14.417c-.975.485-8.737 2.948-15.619 5.546-6.882 2.598-11.989 4.429-13.208 5.115-1.22.687-3.075 2.114-4.172-.336-1.098-2.45-4.552-11.671-6.3-14.66-1.747-2.988-3.982-7.376-5.635-10.903a55.382 55.382 0 01-2.33-5.64c-.678-1.252-2.37-4.671-1.788-5.21a101.038 101.038 0 0110.918-5.734 119.82 119.82 0 0112.423-4.82A28.604 28.604 0 0136.292 2.1c1.26 0 1.937-.444 4.064 4.765 2.127 5.21 7.329 16.006 10.092 22.52 2.764 6.516 4.674 10.554 3.699 11.039zM40.507 9.329c-1.152-2.315-2.805-3.527-3.875-3.42-1.07.108-4.322 1.253-11.407 3.703a137.634 137.634 0 00-13.723 5.33c-2.912 1.346-1.503 3.527-.677 5.385.826 1.857 3.197 7.08 3.197 7.08s1.653 3.621 2.858 6.179c1.206 2.557 4.66.188 12.72-2.989 8.061-3.176 14.32-5.357 15.77-6.232 1.449-.875-.244-3.621-1.26-6.22-1.016-2.597-2.439-6.5-3.604-8.816zm2.478 13.986c-1.653.956-5.283 1.925-13.547 5.102-8.263 3.176-9.212 3.378-9.889 3.62-.677.243-1.165.149-1.747-1.009-.583-1.158-4.227-8.83-4.227-8.83-.434-1.104-1.991-4.389-1.26-4.725a91.216 91.216 0 018.833-4.039c4.362-1.642 9.794-3.23 11.596-3.903 1.801-.673 3.44-1.79 4.66-1.118 1.22.674 2.18 4.147 4.064 8.158 1.883 4.011 3.17 5.775 1.517 6.744zm-23.03-3.137c-.338-.484-1.016 0-1.733.243-.718.242-.976.134-1.274-.337-.298-.47-.433-1.063.15-1.454.582-.39 1.692-.673 1.598-1.157-.095-.485-1.165-.767-2.181-.283a2.938 2.938 0 00-1.165 3.608 2.46 2.46 0 001.448 1.31 2.48 2.48 0 001.952-.153c1.192-.47 1.585-1.292 1.233-1.777h-.027zm15.701-4.2c.46-.21.72-.701.637-1.197.301-.156.66-.156.962 0 .637.242 1.896.282 1.747-.727-.149-1.01-.433-1.01-1.354-1.01s-1.07-.148-.827-.538c.244-.39.88-1.05.298-1.737-.582-.686-1.165.687-1.503 1.023-.339.337-.786.337-.88 0-.096-.336 0-1.063-1.166-.767-.393.108-.582.673 0 1.777.49.9.864 1.86 1.11 2.854a.64.64 0 00.975.323h.001zm-12.558 4.106a3.54 3.54 0 003.211-1.884 2.677 2.677 0 00.008-2.68 2.712 2.712 0 00-2.325-1.359c-.61-.107-2.628 1.885-2.709 3.083-.081 1.198.962 2.84 1.815 2.84zm1.016-4.038c1.165 0 1.165.727 1.165.956a2.294 2.294 0 01-1.219 1.346.83.83 0 01-.927.096.82.82 0 01-.427-.823c.054-.579.772-1.589 1.408-1.589v.014zm8.345-.673c0-1.885-.487-2.558-2.33-2.692a3.153 3.153 0 00-2.465 3.203c.19 1.643 1.354 2.693 2.276 2.316.92-.377 2.573-.97 2.52-2.84v.013zm-1.11 0a1.943 1.943 0 01-1.166 1.252.94.94 0 01-.866-.155.926.926 0 01-.353-.801 1.673 1.673 0 011.355-1.454.938.938 0 01.792.287.925.925 0 01.237.804v.067zm-8.454 9.84c-.582-.485-.921-2.033-3.048-1.494-1.165.282-2.628 1.198-2.14 2.113.487.915 1.463 2.948 1.801 3.621.34.673.434 1.494 1.789 1.064 1.354-.431 3.4-1.98 3.102-3.568-.298-1.588-.921-1.319-1.504-1.803v.067zm-3.387.861a.59.59 0 01-.008-.646.597.597 0 01.591-.269c.962 0 1.45.727.772 1.346-.677.62-1.07.175-1.327-.498l-.028.067zm2.859 2.464c-.583.484-1.355 1.104-1.558.619-.203-.485.108-1.01.826-1.494.718-.485 1.016-.956 1.463-.579.447.377-.149.902-.731 1.387v.067zm4.064-5.883a2.69 2.69 0 00-1.842 3.271c.487 1.737 2.032 2.221 3.684.875 1.653-1.346 1.937-2.369 1.016-3.473-.92-1.103-1.49-1.077-2.845-.74l-.013.067zm1.124 3.056c-1.165.821-1.354-.202-1.45-.875.004-.323.14-.63.38-.85.238-.218.557-.33.88-.308 1.504.31 1.355 1.225.19 2.033zm4.715-5.384a2.575 2.575 0 00-1.897 2.301 2.24 2.24 0 00.712 1.716 2.271 2.271 0 001.767.6 2.474 2.474 0 001.558-2.787 2.096 2.096 0 00-2.14-1.83zm.92 2.369c-.108.377-.338.82-.73.82a.742.742 0 01-.678-.78c0-.377.19-.767.623-.767.434 0 .88.377.786.767v-.04zm7.032-1.212c-1.504-.579-1.748-.915-1.558-1.346.19-.43 1.707-1.346.975-2.073-.731-.727-1.45 0-1.842.727-.393.727-.488 1.494-.732 1.158-.244-.337-.284-1.831-1.504-1.346-.487.188-.392.861 0 2.207.27 1.04.729 2.02 1.355 2.894.339.39.637.727 1.07.202.434-.525 0-.915 0-1.346 0-.43.786.094 1.355.39.569.297 1.463.822 1.897.243.433-.58.487-1.09-1.016-1.67v-.04z" fill="#D8BDB1" fill-rule="evenodd"/></svg>