<svg width="69" height="65" xmlns="http://www.w3.org/2000/svg"><path d="M26.04 21.346c.688.094.89-.188.984-1.89.094-1.703.782-4.093 0-4.358-.78-.266-.953.484-1.312 2.577-.36 2.093-.704 3.546.328 3.67zm2.766 10.325c.89.703 1.407 1 1.797.484.391-.515-.547-1.562-1.437-2.374-.891-.812-1.063-.937-1.563-.531s.328 1.702 1.203 2.42zm.328-4.108c0 .843 1.704.78 3.61.593a13.93 13.93 0 004.954-1.077 1.046 1.046 0 00-.75-1.563c-.719 0-2.344.125-4.297.36-1.954.234-3.564 1-3.517 1.687zm-4.36 1.827c-.625 0-.719.719-.75 1.422-.031.703.234 1.671.875 1.562a1.141 1.141 0 001.047-1.312c-.062-.672-.453-1.672-1.172-1.672zm6.064-6.607a19.327 19.327 0 013.125-3.218c.782-.562.938-1.171.485-1.702-.453-.532-1.375 0-2.907 1.562S27.9 22.72 28.744 23.5c.375.407 1.14.516 2.094-.687v-.031zm-7.892 4.327c.922 1.171 2.547.843 3.719-.266 1.172-1.109 1.438-2.28.516-2.92-.922-.641-2.985-.141-2.985-.141-1.047.562-2.157 2.186-1.25 3.358v-.031zm-2.266-5.108c1.562 1.562 1.828 1.812 2.234 1.359.891-.937-1.562-2.562-2.469-3.608-.906-1.047-1.656-1.828-2.188-1.078-.531.75.782 1.827 2.423 3.358v-.031zm46.587-8.685a32.366 32.366 0 00-1.47-12.215C65.22-.741 64.236.134 63.454.821c-.781.687-1.172.187-4.204.875A49.726 49.726 0 0046.856 6.96a17.716 17.716 0 00-7.72 8.7c0 .281-1.078 0-3.422-2.452-2.345-2.453-4.689-2.234-11.628-2.047-6.938.188-13.377 5.015-16.8 10.42-3.422 5.404.5 11.62.5 11.62a28.644 28.644 0 00-6.157.485c-2.344.578-1.47 8.497-1.47 12.2 0 3.701 3.611 4.201 4.892 4.982 1.282.781 1.36 6.639 2.235 10.7.875 4.061 9.22 3.327 20.91 3.42 11.69.095 21.88-.39 27.256-1.952 5.376-1.562 3.516-11.137 3.516-12.2 0-1.061 2.141-.89 4.298-1.28s1.688-1.843 1.688-4.39c0-2.545.203-10.543 0-12.105-.203-1.562-3.22-1.359-4.595-1.265-1.375.094.5-2.546 2.063-4.686a39.038 39.038 0 004.845-13.762v-.03zm-57.215 9.685c1.641-2.984 5.861-6.108 9.252-7.514a26.58 26.58 0 0113.284-.515c2.61.843 6.908 5.717 7.236 8.263.328 2.546.781 5.53.187 6.763-.594 1.234-.906 3.125-1.36 3.125-.452 0-14.658.656-17.003.718-4.36.125-5.344.203-7.689.125-2.344-.078-2.86-.187-3.578-1.421-.72-1.234-1.954-6.514-.329-9.513v-.031zm44.806 36.567c-1.36 1.75-5.22 3.124-15.284 3.124-10.065 0-13.69-.5-18.754-.5-5.063 0-9.002-.719-10.252-1.656-1.25-.937-1.953-5.31-2.297-6.53-.344-1.218-1.032-2.295-.25-2.545.781-.25 8.017-.14 12.315 0 5.048.478 10.124.608 15.19.39 7.564-.437 9.518-.187 13.909-.578 4.392-.39 6.501-.78 6.501.578 0 1.36.297 5.952-1.078 7.717zm5.282-25.68c1.36 0 2.094 0 2.188 1.562.094 1.562.203 5.03.344 7.81.14 2.78-.14 3.905-1.47 4.046-1.327.14-17.971 1.562-24.707 2.015-6.736.453-12.252-1.031-16.66-.781-4.407.25-9.517.328-12.392.234-2.876-.094-4.689-1.562-4.689-3.124s.188-6.639.188-6.639c0-1.655.11-3.217 2.39-3.124 2.282.094 13.19.781 20.864.39 7.674-.39 17.879-1.561 23.786-2.092a62.903 62.903 0 0110.158-.297zm-2.672-3.296a1.907 1.907 0 01-1.438 1.031c-.516 0-7.423.469-8.533.531-1.11.063-1.563 0-1.563 0a33.965 33.965 0 001.563-3.577c.578-1.765 1.172-3.265 1.563-2.937a10.364 10.364 0 004.548 1.828c1.563 0 3.266-.515 3.203-1.437-.062-.922-1.703 0-3.203-.516-1.5-.515-4.548-.905-3.97-1.765.578-.859 2.548-5.326 3.266-5.076 1.539.338 3.118.449 4.689.328 1.563-.125 2.86-.719 2.47-1.297-.392-.578-2.533-.78-3.908-.906-1.375-.125-2.797 0-2.22-.593.58-.594 2.876-4.17 3.783-5.53.906-1.359 1.563-1.593.984-2.093-.578-.5-1.437.781-2.406 2.28-.97 1.5-2.548 3.718-2.798 3.578a3.794 3.794 0 01.25-3.25c.72-1.561 1.235-1.749.985-1.952a7.56 7.56 0 00-2.797 4.03c-.329 1.703.125 3.593-.141 4.374a29.049 29.049 0 01-2.204 4.217c-.656.984-1.172 1.562-1.375 1.437a3.623 3.623 0 01-.969-2.858c0-1.89.188-4.233-.531-4.358-.72-.125-1.297 3.827-.844 5.78a5.122 5.122 0 001.297 2.842c.39.39-.125 1.234-.25 1.562-.125.328-1.704 6.045-2.094 6.108-.43.054-.864.08-1.297.078-.844-.078-1.954.64-1.297-1.25.656-1.89 1.562-4.873.843-7.216-.718-2.343-2.406-5.014-2.078-6.061a16.51 16.51 0 014.938-7.217 43.157 43.157 0 019.377-4.81c1.704-.532 3.845-.922 4.689-1.11.843-.187 3-.39 3.39.578.392.969 2.142 9.373-.656 15.433a89.49 89.49 0 01-5.266 9.794zm-39.633 1.265c1.047-.687 2.126-1.327 3.626-2.436 1.5-1.11 1.156-1.313.844-1.828-.657-1.047-3.126 1.234-4.407 2.156-1.282.921-1.75 1.359-1.75 2.108 0 .75.656.656 1.687 0z" fill="#D8BDB1" fill-rule="evenodd"/></svg>