<svg width="62" height="82" xmlns="http://www.w3.org/2000/svg"><path d="M50.013 13.96c.98-1.698-1.884-2.326-2.98-2.546-1.096-.22-2.186 1.845-2.923 3.386-.737 1.541-4.652 8.057-5.45 9.91-.798 1.853.482 1.93.899 2.386.407.274.832.52 1.273.735.56.324 3.136-3.313 4.41-5.519s3.762-6.604 4.77-8.351zm-6.777 8.797c-1.21 1.83-2.189 3.232-2.6 2.944-.412-.287.882-2.911 2.156-5.117 1.274-2.207 3.592-6.487 3.592-6.487.294-.508.332-.75.83-.612.497.138 1.145.397.81.98-.337.582-3.613 6.491-4.81 8.329l.022-.037zm-4.102-11.193c-1.054.002-3.153 5.666-4.219 7.777-1.066 2.112.435 2.483.57 3.337.046.275.56.324 1.159.553.597.23 2.106-2.089 2.822-3.328.715-1.24 2.748-4.76 3.595-6.022.848-1.263-2.9-2.303-3.974-2.295l.047-.022zm-2.3 9.513c-.356-.206 1.154-4.292 1.707-5.162.222-.384.523-2.376 1.274-2.206.751.169 1.5.138.865 1.06-.635.923-2.419 4.19-2.913 5.046-.494.855-.666 1.565-.98 1.285l.047-.023zm21.692-1.887c2.487-4.662.722-6.194-1.537-7.812a113.87 113.87 0 00-14.44-8.436c-3.22-1.248-3.863.249-5.868 2.81a164.098 164.098 0 00-8.991 15.367c-1.173 2.414-.251 2.847.533 4.225.784 1.378 3.853 6.77 3.197 8.258-.655 1.49-4.707 8.537-4.707 8.537-1.231-.81-3.107.586-4.734 3.051-1.627 2.465-10.19 18.18-12.874 22.828-2.684 4.648 1.9 6.27 4.77 8.124 2.868 1.855 5.803-5.11 8.934-10.327 3.13-5.216 8.766-16.125 9.7-17.537.934-1.41-.48-3.169-.48-3.169s4.483-7.03 5.672-8.707c1.19-1.677 5.326-.958 7.952-1.094 2.14.002 4.1-1.096 5.172-2.898.869-1.564 5.226-8.551 7.7-13.22zM17.883 68.64c-2.627 4.168-2.803 5.207-3.44 4.84-.637-.368-1.822-.64-.433-3.044l10.018-17.353c1.074-1.859 3.946-7.01 4.719-6.878.772.133 1.336 1.185-.091 3.452-1.427 2.266-8.166 14.82-10.773 18.983zm28.963-35.634a88.707 88.707 0 00-9.002.884 6.508 6.508 0 00-3.842 3.153c-1.166 2.02-3.18 7.155-3.74 6.831-.56-.323-1.88-.772-1.609-1.243 0 0 4.854-7.113 4.777-9.009-.078-1.896-3.149-9.255-3.524-10.81a8.983 8.983 0 011.014-5.199c.69-1.37 7.415-12.46 9.182-12.58 1.768-.12 10.104 5.122 13.245 7.035 3.142 1.913 5.049 2.816 3.697 5.54-1.351 2.723-6.738 11.495-7.504 12.821-.766 1.326-.926 2.457-2.694 2.577zm5.326-12.99c.715-1.24-1.252-1.714-2.114-2.046-.86-.332-1.118.908-1.54 1.639l-3.335 5.776s.85 2.292 1.789 2.52c.938.228 1.31-.797 1.83-1.786s2.692-4.841 3.37-6.103zm-5.074 5.847c-.28-.162-.024-.989.785-2.39.809-1.4 1.603-3.04 1.933-2.966a12.422 12.422 0 01-1.394 3.592c-.515.892-1.056 1.918-1.324 1.764z" fill="#1D1D1B" fill-rule="nonzero"/></svg>