<svg width="66" height="85" xmlns="http://www.w3.org/2000/svg"><path d="M49.603 34.76c8.15-4.458 12.563-12.735 10.972-19.214-1.592-6.48-11.1-10.86-15.851-10.243-4.751.617-10.687 4.881-12.79 12.103-2.102 7.221 1.355 17.029 1.807 17.93.452.903-3.668 6.925-3.668 6.925-.81-.312-2.446.476-3.623 2.394-1.177 1.919-11.768 20.383-13.676 23.508-1.908 3.125-2.085 3.612-1.862 6.234.222 2.623 4.094 4.581 5.673 5.216 1.58.635 3.023-1.927 4.576-4.616 1.552-2.689 12.425-22.273 13.497-24.13a8.816 8.816 0 001.326-4.553c-.117-.76-.316-1.048.144-1.753a58.34 58.34 0 013.232-5.599c.45-.329 2.049.213 10.243-4.202zM33.71 44.898c.727.696-.02 1.72-.817 1.866-.797.147-1.106-.43-1.416-1.58-.31-1.148 1.59-.917 2.233-.286zm-14.868 28.76c-1.853 3.21-2.214 3.174-3.422 2.528-1.208-.645 4.016-8.732 6-12.35 1.985-3.617 7.23-12.16 8.162-13.683.931-1.524 1.162-1.321 1.494-1.355 2.762-.362-10.35 21.687-12.195 24.883l-.039-.023zM36.369 35.78a62.943 62.943 0 01-1.996-13 17.178 17.178 0 016.26-12.737c4.366-3.23 10.203-1.488 12.803.567 2.6 2.056 6.713 7.929 3.678 13.486-3.035 5.558-6.061 6.738-10.424 8.55-4.364 1.81-8.713 4.651-10.321 3.134zm12.68-25.451c-1.576-.581-4.192.04-6.136.788a8.98 8.98 0 00-4.637 5.654c-.662 2.441.77 4.324 1.532 4.176 1.439-.295 1.31-1.635 1.718-3.997.408-2.363 2.167-3.183 3.927-3.795a3.933 3.933 0 014.308 1.084c.968 1.061 1.125 1.48 2.535.303 1.41-1.178-1.672-3.633-3.248-4.213z" fill="#1D1D1B" fill-rule="nonzero"/></svg>